<svg xmlns="http://www.w3.org/2000/svg" viewBox="28.07 28.09 143.94 143.89"><g fill="#fff"><path d="M89.55 28.84c14.34-2.06 29.32.11 42.32 6.57 18.9 9.12 33.31 26.95 38.3 47.34 2.35 8.21 1.83 16.8 1.68 25.22-1.69 17.18-10.06 33.52-22.73 45.2-11.25 10.46-25.95 17.25-41.27 18.7-5.24.12-10.49.17-15.72-.03-17.15-1.75-33.49-10.13-45.06-22.88-11.27-12.16-18.11-28.35-18.89-44.92-.94-16.35 3.95-32.95 13.62-46.16C52.97 42.3 70.59 31.6 89.55 28.84M57.44 48.35C44.47 58.84 35.69 74.36 33.46 90.9c-2.42 16.47 1.73 33.77 11.26 47.41 8.62 12.49 21.6 21.9 36.19 26.12 15.9 4.71 33.52 3.19 48.37-4.18 13.13-6.41 23.81-17.34 30.49-30.28-4.4 2.94-9.33 5.19-14.66 5.63-7.47.57-15.55.55-22.18-3.45l-.47-.01c-12.81 9.33-31.28 9.69-44.38.74-10.6-6.91-17.41-19.24-17.55-31.9-.31-11.36 4.71-22.69 13.27-30.14 13.91-12.82 37.22-13.03 51.35-.42 9.19-7.59 22.82-7.42 33.26-2.64-4.53-7.58-10.18-14.57-17.16-20.03-11.34-9.04-25.69-14.22-40.19-14.43-15.71-.39-31.48 5.04-43.62 15.03m41.13 19.39C88.38 69.51 80.11 79.03 80.45 89.5c5.37.28 10.76.06 16.14.14 1.11-3.45 3.5-6.98 7.4-7.41 4.73-.98 8.65 5.65 5.41 9.24-2.68 2.13-6.38 2.03-9.62 2.36-.16 3.74-.33 7.48-.52 11.23 3.49.07 8.37-.37 10.16 3.43 2.09 4.73-2.58 9.91-7.45 9.28-4.77.12-7.23-4.91-7.28-9.07-5.85-.03-11.7-.04-17.56.03.06 5.81.89 11.97 4.49 16.73 3.06 4.25 8.12 6.68 13.25 7.23 9.06 1.28 19.37.32 26.33-6.23 5.92 6.64 15.57 7.19 23.83 6.45 7.73-.67 15.55-4.69 19.13-11.81 3.95-7.28 3.41-17.32-2.98-23.07 6.07-4.76 6.13-13.86 3.36-20.44-3.35-7.37-11.95-10.26-19.52-10.28-7.66-.69-15.56 2.11-20.61 8-5.88-7.9-16.83-8.87-25.84-7.57z" style="--darkreader-inline-fill:#181a1b"/><path d="M135.54 89.62c1.08-3.45 3.49-6.96 7.37-7.39 4.7-.97 8.65 5.6 5.46 9.2-2.68 2.18-6.4 2.07-9.64 2.4-.19 3.74-.37 7.49-.55 11.24 3.65-.02 8.98-.31 10.38 4.01 1.63 5.09-3.76 9.73-8.65 8.61-4.33-.54-6.13-5.16-6.31-8.98-1.98-.02-3.95-.04-5.92-.05-.63-4.03-2.4-7.84-5.43-10.63 2.76-2.03 4.12-5.19 4.96-8.39 2.78-.01 5.55-.01 8.33-.02z" style="--darkreader-inline-fill:#e8e6e3"/></g><g fill="#0303db"><path d="M57.44 48.35c12.14-9.99 27.91-15.42 43.62-15.03 14.5.21 28.85 5.39 40.19 14.43 6.98 5.46 12.63 12.45 17.16 20.03-10.44-4.78-24.07-4.95-33.26 2.64-14.13-12.61-37.44-12.4-51.35.42-8.56 7.45-13.58 18.78-13.27 30.14.14 12.66 6.95 24.99 17.55 31.9 13.1 8.95 31.57 8.59 44.38-.74l.47.01c6.63 4 14.71 4.02 22.18 3.45 5.33-.44 10.26-2.69 14.66-5.63-6.68 12.94-17.36 23.87-30.49 30.28-14.85 7.37-32.47 8.89-48.37 4.18-14.59-4.22-27.57-13.63-36.19-26.12-9.53-13.64-13.68-30.94-11.26-47.41 2.23-16.54 11.01-32.06 23.98-42.55z" style="--darkreader-inline-fill:#0202af"/><path d="M98.57 67.74c9.01-1.3 19.96-.33 25.84 7.57 5.05-5.89 12.95-8.69 20.61-8 7.57.02 16.17 2.91 19.52 10.28 2.77 6.58 2.71 15.68-3.36 20.44 6.39 5.75 6.93 15.79 2.98 23.07-3.58 7.12-11.4 11.14-19.13 11.81-8.26.74-17.91.19-23.83-6.45-6.96 6.55-17.27 7.51-26.33 6.23-5.13-.55-10.19-2.98-13.25-7.23-3.6-4.76-4.43-10.92-4.49-16.73 5.86-.07 11.71-.06 17.56-.03.05 4.16 2.51 9.19 7.28 9.07 4.87.63 9.54-4.55 7.45-9.28-1.79-3.8-6.67-3.36-10.16-3.43.19-3.75.36-7.49.52-11.23 3.24-.33 6.94-.23 9.62-2.36 3.24-3.59-.68-10.22-5.41-9.24-3.9.43-6.29 3.96-7.4 7.41-5.38-.08-10.77.14-16.14-.14-.34-10.47 7.93-19.99 18.12-21.76m36.97 21.88c-2.78.01-5.55.01-8.33.02-.84 3.2-2.2 6.36-4.96 8.39 3.03 2.79 4.8 6.6 5.43 10.63 1.97.01 3.94.03 5.92.05.18 3.82 1.98 8.44 6.31 8.98 4.89 1.12 10.28-3.52 8.65-8.61-1.4-4.32-6.73-4.03-10.38-4.01.18-3.75.36-7.5.55-11.24 3.24-.33 6.96-.22 9.64-2.4 3.19-3.6-.76-10.17-5.46-9.2-3.88.43-6.29 3.94-7.37 7.39z" style="--darkreader-inline-fill:#0202af"/></g></svg>