<?xml version="1.0" encoding="utf-8"?>
<!-- Generator: Adobe Illustrator 27.4.1, SVG Export Plug-In . SVG Version: 6.00 Build 0)  -->
<svg version="1.1" id="Capa_1" xmlns="http://www.w3.org/2000/svg" xmlns:xlink="http://www.w3.org/1999/xlink" x="0px" y="0px"
	 viewBox="0 0 183.3 183.2" style="enable-background:new 0 0 183.3 183.2;" xml:space="preserve">
<style type="text/css">
	.st0{fill:#FFFFFF;}
</style>
<circle class="st0" cx="91.7" cy="91.6" r="85.4"/>
<path d="M49,91.6c0,6.2-5,11.3-11.3,11.3s-11.3-5-11.3-11.3c0-6.2,5-11.3,11.3-11.3C44,80.4,49,85.4,49,91.6z M91.6,80.4
	c-6.2,0-11.3,5-11.3,11.3c0,6.2,5,11.3,11.3,11.3c6.2,0,11.3-5,11.3-11.3S97.9,80.4,91.6,80.4z M183.3,91.6
	c0,50.6-41,91.6-91.6,91.6S0,142.2,0,91.6S41,0,91.6,0S183.3,41,183.3,91.6z M63.1,91.6c0-14-11.3-25.3-25.3-25.3
	S12.5,77.6,12.5,91.6s11.3,25.3,25.3,25.3c7.3,0,11.3-4.8,11.3-4.8v4.4h14.1C63.2,116.5,63.1,91.6,63.1,91.6z M117,91.6
	c0-14-11.3-25.3-25.3-25.3c-6.8,0-11.3,3.7-11.3,3.7V53.9H66.3v37.7c0,14,11.3,25.3,25.3,25.3C105.6,117,117,105.6,117,91.6
	L117,91.6z M170.6,94.9h-14.3c-1.4,4.6-5.7,8-10.8,8c-6.2,0-11.3-5-11.3-11.3c0-6.2,5-11.3,11.3-11.3c5.1,0,9.4,3.4,10.8,8h14.3
	c-1.6-12.3-12.2-22-25.1-22c-14,0-25.3,11.3-25.3,25.3s11.3,25.3,25.3,25.3C158.4,117,169,107.3,170.6,94.9z"/>
</svg>
