<svg xmlns="http://www.w3.org/2000/svg" viewBox="0 0 105.12 63.69"><path d="M105 57.59a5.83 5.83 0 0 1-5.84 5.84H6.73A5.84 5.84 0 0 1 .9 57.59v-51A5.84 5.84 0 0 1 6.73.74h92.45A5.84 5.84 0 0 1 105 6.56z" transform="translate(-.4 -.24)" fill="#ffe500" style="--darkreader-inline-fill:#998900"/><path d="M99.18 63.93H6.73A6.34 6.34 0 0 1 .4 57.59v-51A6.34 6.34 0 0 1 6.73.24h92.45a6.34 6.34 0 0 1 6.34 6.32v51a6.35 6.35 0 0 1-6.34 6.37zM6.73 1.24A5.33 5.33 0 0 0 1.4 6.56v51a5.34 5.34 0 0 0 5.33 5.34h92.45a5.35 5.35 0 0 0 5.34-5.34v-51a5.34 5.34 0 0 0-5.34-5.32z" transform="translate(-.4 -.24)" fill="#ffe500" style="--darkreader-inline-fill:#998900"/><path d="M60.13 38.69c2.41 0 4.35-1.19 4.35-2.68s-1.94-2.7-4.35-2.7-4.34 1.22-4.34 2.7 1.94 2.68 4.34 2.68zM25.95 33.31c-2.38 0-4.3 1.22-4.3 2.7s1.92 2.68 4.3 2.68 4.3-1.19 4.3-2.68-1.92-2.7-4.3-2.7z" fill="none"/><path d="M99.87 27.31c-6.72-2.81-15.18-3.23-21-1.35-.41.13-.81.28-1.19.42l.66.46.1.08.43.37a11.05 11.05 0 0 1 2.54 3.76 14.4 14.4 0 0 1 1 5.57 10.13 10.13 0 0 1-.65 3.46 17.31 17.31 0 0 1-1.47 3l-.07.09a9 9 0 0 1-1.37 1.69 10.55 10.55 0 0 1-1.16 1c.38.13.76.26 1.16.36a33.89 33.89 0 0 0 21-1.63v-6.6s-13.45 4-13.45-2.11c0-5.06 13-2 13.45-2zM29.68 26.76c-6.72-2.26-14.23-3.18-20.3 1.12-5 3.5-5.43 12.21-.17 15.86 5.77 4.08 12.93 4.22 20.18 1.49l1.05 1.83h13.88V24.84H30.44zm-3.73 11.93c-2.38 0-4.3-1.19-4.3-2.68s1.92-2.7 4.3-2.7 4.3 1.22 4.3 2.7-1.92 2.68-4.3 2.68z"/><path d="M76.83 27.76a17.58 17.58 0 0 0-9-3.07 33.82 33.82 0 0 0-12.34 2.13V15.98H40.73v7.84h4.46a1.19 1.19 0 0 1 1.19 1.19V47.1l8.22-.05.95-1.93a34.55 34.55 0 0 0 6.32 1.69 38.92 38.92 0 0 0 5.25.38c3.84 0 9.11-1.22 11.4-4.93a12.86 12.86 0 0 0 1.93-6.28c-.05-3.79-1.33-6.33-3.62-8.22zm-16.7 10.93c-2.4 0-4.34-1.19-4.34-2.68s1.94-2.7 4.34-2.7 4.35 1.22 4.35 2.7-1.94 2.68-4.35 2.68z"/></svg>