<svg xmlns="http://www.w3.org/2000/svg" version="1.1" id="Capa_1" x="0" y="0" style="enable-background:new 0 0 139.9 116.8" xml:space="preserve" viewBox="0 0 139.8 116.8"><style>.st1{fill:#f1652b}</style><path d="M135.4 116.4v-6.1c0-1.2.3-2.1.8-2.5.5-.4 1.4-.6 2.5-.6h1.1v-2.7h-1c-.9 0-1.6.1-2.2.4-.6.2-1.1.6-1.5 1.1l-.6-1.5h-2.2v12l3.1-.1zm-10.4-9.8c.8 0 1.5.2 1.9.7.4.5.7 1.1.7 1.9h-5.4c.1-.8.3-1.4.7-1.9.4-.5 1.1-.7 1.9-.7h.2zm2.4 6.2c-.2.4-.5.8-.9 1-.4.3-.8.4-1.4.4h-.2c-.9 0-1.6-.3-2-.8-.5-.5-.7-1.2-.8-1.9h8.4v-1.2c0-1.9-.5-3.4-1.5-4.5s-2.3-1.7-4-1.7h-.2c-1.7 0-3.1.5-4.1 1.7-1 1.1-1.5 2.5-1.5 4.3v.8c0 .9.1 1.6.4 2.4.2.7.6 1.3 1.1 1.9.5.5 1.1.9 1.8 1.2.7.3 1.5.4 2.4.4h.2c1.1 0 2.1-.2 2.9-.7.8-.4 1.5-1.1 2-2l-2.6-1.3zm-18 3.6v-7c0-.8.2-1.5.6-2 .4-.5 1-.8 1.8-.8h.3c.7 0 1.2.2 1.6.6.4.4.6 1.1.6 2.1v7.1h3v-7.6c0-1.4-.4-2.5-1.2-3.4-.8-.9-1.8-1.3-3.1-1.3h-.3c-.6 0-1.2.1-1.8.4-.5.3-1 .6-1.4 1v-5.9h-3v16.8h2.9zm-7.7-2.7c-.2-.2-.3-.5-.3-1v-6h2.9v-2.4h-2.9v-2.6h-2.5l-.3 2.6h-2v2.4h1.9v6.1c0 1.1.3 2 .8 2.6.5.6 1.4 1 2.7 1h2.3V114h-1.7c-.4 0-.7-.1-.9-.3zm-12.3.5c-.6 0-1.1-.1-1.4-.3s-.5-.6-.5-1v-.1c0-.4.2-.8.5-1.1.3-.3 1-.4 1.9-.4h2.2v.4c0 .9-.2 1.5-.7 1.9-.5.4-1.1.6-1.9.6h-.1zm-.6 2.5c.8 0 1.4-.1 2.1-.4.6-.3 1.1-.7 1.5-1.3l.5 1.5h2.2v-7.9c0-1.5-.4-2.6-1.3-3.4-.9-.8-2.1-1.1-3.6-1.1h-.3c-1.4 0-2.5.3-3.3.8-.8.6-1.3 1.3-1.6 2.1l2.6 1.1c.1-.4.4-.7.8-1 .3-.3.8-.4 1.4-.4h.3c.7 0 1.2.2 1.5.5.3.3.5.8.5 1.4v.6H90c-1.8 0-3.1.3-4 1-.9.7-1.4 1.6-1.4 2.7v.2c0 1.1.3 2 1 2.7.7.6 1.7 1 3 1l.2-.1zm-11.1-10.1c.8 0 1.5.2 1.9.7.4.5.7 1.1.7 1.9h-5.4c.1-.8.3-1.4.7-1.9.4-.5 1.1-.7 1.9-.7h.2zm2.5 6.2c-.2.4-.5.8-.9 1-.4.3-.8.4-1.4.4h-.2c-.9 0-1.6-.3-2-.8-.5-.5-.7-1.2-.8-1.9h8.4v-1.2c0-1.9-.5-3.4-1.5-4.5s-2.3-1.7-4-1.7h-.2c-1.7 0-3.1.5-4.1 1.7-1 1.1-1.5 2.5-1.5 4.3v.8c0 .9.1 1.6.4 2.4.2.7.6 1.3 1.1 1.9.5.5 1.1.9 1.8 1.2.7.3 1.5.4 2.4.4h.2c1.1 0 2.1-.2 2.9-.7.8-.4 1.5-1.1 2-2l-2.6-1.3zm-22.4 3.6 3.5-12.2 3.4 12.2h2.7l4.8-16.6v-.2h-2.9l-3.2 11.9L63 99.6h-3.2l-3.3 12.1-3.1-12.1h-3v.2l4.6 16.6h2.8zm-18.9-12v7.6c0 1.4.4 2.5 1.2 3.4.8.9 1.8 1.3 3.1 1.3h.3c.7 0 1.4-.1 2-.4.6-.3 1.1-.7 1.5-1.3l.5 1.4h2.2v-12h-2.9v7c0 .8-.2 1.5-.7 2-.4.5-1 .8-1.8.8H44c-.6 0-1.2-.2-1.6-.6-.4-.4-.6-1.1-.6-2.1v-7.1h-2.9zm-3.2.5c-.8-.5-1.9-.8-3.2-.8h-.2c-1.7 0-3.1.5-4.1 1.5-1 1-1.5 2.3-1.5 4v1.5c0 1.7.5 3 1.5 4s2.3 1.5 4.1 1.5h.2c1.2 0 2.2-.2 3-.7.8-.5 1.4-1.1 1.9-2.1l-2.4-1.4c-.2.4-.5.8-.9 1.1-.4.3-.9.4-1.5.4h-.2c-.9 0-1.6-.3-2-.8s-.6-1.3-.6-2.2v-1.5c0-.9.2-1.6.6-2.2.4-.5 1.1-.8 2-.8h.2c.6 0 1.2.1 1.5.4.4.3.7.7.9 1.2l2.5-1.2c-.4-.7-1-1.4-1.8-1.9zm-11.9 0c-.8-.5-1.9-.8-3.2-.8h-.2c-1.7 0-3.1.5-4.1 1.5-1 1-1.5 2.3-1.5 4v1.5c0 1.7.5 3 1.5 4s2.3 1.5 4.1 1.5h.2c1.2 0 2.2-.2 3-.7.8-.5 1.4-1.1 1.9-2.1l-2.4-1.4c-.2.4-.5.8-.9 1.1-.4.3-.9.4-1.5.4h-.2c-.9 0-1.6-.3-2-.8s-.6-1.3-.6-2.2v-1.5c0-.9.2-1.6.6-2.2.4-.5 1.1-.8 2-.8h.2c.6 0 1.2.1 1.5.4.4.3.7.7.9 1.2l2.5-1.2c-.4-.7-1-1.4-1.8-1.9zM7 104l2 6.2H5l2-6.2zm-1.4-4.4L0 116.2v.2h2.9l1.2-3.5h5.8l1.1 3.5h3.1v-.2L8.5 99.6H5.6z" style="fill:#fff"/><path class="st1" d="M70.1 79.9c-18 0-32.8-14.7-32.8-32.8S52 14.5 70.1 14.5s32.6 14.7 32.6 32.6c.1 18.2-14.5 32.8-32.6 32.8zM117.3 47l-10.7-9.7 4.3-13.8-14.2-3.1-3.1-14.1-13.8 4.5L70 0l-9.7 10.7-13.8-4.3-3.1 14.1-14.2 3.1 4.5 13.8L23 47.2 33.7 57l-4.3 13.8 14.2 3.1 3 14.1 13.8-4.5 9.8 10.7 9.7-10.7 13.8 4.3 3.1-14.2 14.2-3.2-4.5-13.8 10.8-9.6z"/><path class="st1" d="M49.5 26.6c11.4-11.4 29.9-11.4 41.3 0 11.4 11.4 11.4 29.9 0 41.3-11.4 11.4-29.9 11.4-41.3 0-11.5-11.4-11.5-30 0-41.3"/></svg>