<svg xmlns="http://www.w3.org/2000/svg" version="1.0" xml:space="preserve" viewBox="0 0 40 40"><path fill="#FFF" style="--darkreader-inline-fill:#181a1b" d="M0 0h40v40H0z"/><path fill="#E44164" d="M40 40H0V0h40v40zM18.2 20c1-.1 2 .3 2.6 1 .5.7.6 1.5.3 2.2-2.3.1-4.5.4-6.8 1-2.7.7-4.1 2.8-3.9 5.8.5 3.3 2.5 5 6.1 5 .4 0 .8 0 1.2-.1 1-.1 2.4-.9 4-2.3l.8 1.5c.2.3 1.4.8 3.2.8 1.2 0 2.4-.2 3.6-.6v-4.5h-.1c-.2 0-.3 0-.5.1-.2 0-.4.1-.5.1-.3 0-.7-.1-1-1v-9.1c0-1.6-1-3.1-2.4-3.7-1.7-.9-3.6-1.3-5.5-1.2-2.6 0-5.1.6-7.4 1.9l.1 5 3.9-1.5c.9-.2 1.6-.4 2.3-.4zM21 3.6c-1.2 2.9-3 5.5-5.3 7.7l3 1.9c2.7-1.8 4.9-4.3 6.3-7.2l-4-2.4zm-2.7 27.2c-.6 0-1.2-.2-1.6-.5-.3-.3-.5-.6-.5-1.1 0-.6.3-1.2.7-1.5.6-.5 1.4-.9 2.2-.9l2.2-.2v1.8c-.1.6-.4 1.2-.9 1.7-.6.5-1.4.7-2.1.7z" style="--darkreader-inline-fill:#9f1734"/></svg>