<svg xmlns="http://www.w3.org/2000/svg" version="1.1" id="Capa_1" x="0" y="0" style="enable-background:new 0 0 850.4 850.4" xml:space="preserve" viewBox="0 0 850.4 850.4"><style>.st1{fill:#fff}</style><circle cx="425.2" cy="425.2" r="425.2" style="fill:#3d77bb"/><g id="_x23_1283f9ff"><path class="st1" d="M410.4 229.4c2.5-.4 5-.6 7.5-.2 6.2.7 12.3 2.2 18.3 4.1 4 1.2 7.9 3.2 11.2 5.9 2.9 2.4 6.1 4.4 9.8 5.4 8.1 2.3 16.6 2.6 25 2.5 9.2-.1 18.4-.9 27.6-.3 5.3.4 10.7 1.4 15.1 4.5 5.5 3.8 8.7 10.2 10 16.6 1.9 9.6.6 19.7-2.5 29-4.5 12.5-12 23.8-15.2 36.8-1.9 7.5-2.1 15.5.4 22.9 1.7 5.2 4.4 9.9 7.8 14.2 1.8 2.3 3.5 4.9 4.4 7.7 2.3 7.1 1.9 15-.9 22-2.4 5.9-6.5 11.1-11.6 14.9-6.5 4.9-14.4 7.8-22.4 8.8-5.5.6-11.1.2-16.5 1.3-6 1.1-11.7 3.7-16.3 7.7-3.7 3.1-6.6 7-8.9 11.3-1.7 3.2-2.9 6.7-4.8 9.8-3.7 5.9-8.8 11.1-14.9 14.5-5.1 2.9-10.7 4.6-16.4 5.6-4.6.6-9.2-.8-13.5-2.5-3.9-1.6-7.6-3.5-11.1-5.8-5.5-4-9.7-9.5-12.6-15.5-2.3-4.5-4.3-9.3-7.6-13.2-3.9-4.7-9.2-8.2-15-10.3-9-3.1-18.8-1.5-27.9-3.8-8.2-2-15.9-6.1-21.6-12.3-4.4-4.7-7.5-10.7-8.6-17.1-.9-5.3-.4-10.8 1.2-15.9.8-2.5 2.3-4.7 4-6.7 6.5-8.1 10.5-18.5 9.7-29-.7-10.9-5.4-21-10-30.7-2.8-5.9-5.8-11.7-7.7-18-2.1-7.3-2.8-15.1-1.9-22.7.8-7 3.5-14.2 9.3-18.6 5.7-4.6 13.3-5.7 20.5-5.6 14.6.3 29.3 1.5 43.7-.9 4.8-.8 9.6-2.3 13.3-5.7 3.9-3.5 8.8-5.5 13.6-7.2 4.8-1.7 10.2-2.7 15.5-3.5M376 256.1c-7.2 1.3-14.4 2.8-21.4 5.3-3.1 1.2-6.3 2.5-8.8 4.6-1.1.8-1.8 2-2.3 3.2 2.8.9 5.7 1.5 8.6 2.1 5.6 1.1 11.5 2.1 17.2 1.2 4.8-.7 9.1-3 13.6-4.7 5.2-2 10.7-3.2 16.2-3.8 9.8-1.1 19.7-1.2 29.4-.2 6.7.7 13.4 2 19.6 4.6 4.6 1.9 9.2 4.1 14.2 4.3 8 .4 15.8-1.6 23.4-3.5-.8-3-3.8-4.5-6.3-5.9-4.8-2.3-9.9-3.8-15-5-9.6-2.3-19.5-3.7-29.3-4.7-9-.8-18.1-1.4-27.1-1-10.6.6-21.4 1.7-32 3.5m-43 33.7c-3.1.6-6 2.5-7.9 5-3.1 4-4.5 8.9-5.3 13.8-1.4 9-1 18.2.3 27.2 2.4 16 7.5 31.7 15.4 45.8 6 10.6 13.6 20.4 23.1 28.1 6.1 4.9 13.1 9.1 20.8 10.4 5.6 1 11.6.1 16.3-3 5.5-3.5 9-9.3 11.1-15.3 2.9-8.5 3.3-17.7 2.6-26.5-.8-10.4-3.4-20.5-7.2-30.2-2.8-7.4-6.1-14.6-10.4-21.2-6.8-10.7-16.2-20-27.4-26.1-6.7-3.7-14-6-21.5-7.5-3.1-.6-6.5-1.2-9.9-.5m156.4 0c-12.2 1.7-24 6.4-33.8 13.8-5.7 4.7-10.9 10-15.2 16-4.5 6.2-8.1 13-11.2 19.9-4.1 9.2-7 19-8.6 29-1.4 9.4-1.6 19.1.5 28.4 1.5 6.5 4.2 12.9 8.9 17.6 3.3 3.3 7.7 5.3 12.3 5.8 7.3.9 14.6-1.6 20.9-5.3 7.5-4.5 14-10.7 19.6-17.5 8.3-10.1 14.8-21.8 19.3-34.1 3.7-9.9 6.3-20.2 7.6-30.7 1-8.7 1.2-17.5-.5-26.1-1.2-5.5-3.2-11.4-8-14.8-3.4-2.5-7.8-2.6-11.8-2zM212.7 500.5c4.8-.7 9.9.5 13.6 3.7 29.3 25.4 58.5 50.8 87.8 76.2 4.4 4 8.3 8.9 9.6 14.9 1.5 7.5-1.6 15.7-7.5 20.6-3.9 3.4-9 5.2-14.1 5.4-6.1 0-12-2.5-16.3-6.7-19.8-17.2-39.6-34.4-59.4-51.5-6-5.2-15.8-5.3-21.9-.1-20.2 17.5-40.4 35.1-60.6 52.6-4 3.6-9.3 5.5-14.6 5.8-6.1-.1-12.3-2.6-16.5-7.1-4.9-5.2-7.3-12.9-5.6-19.9 1.5-5.6 5.2-10.3 9.5-14.1 29.2-25.3 58.3-50.6 87.5-76 2.4-2 5.4-3.3 8.5-3.8zM303.1 501.3c63.8-.1 127.7 0 191.5-.1 6.2-.1 12.3 2.6 16.3 7.2 4.6 5.1 6.5 12.4 4.9 19-1.7 7.6-7.9 13.9-15.4 15.8-2.5.7-5.1.7-7.6.7h-62c-5.1.1-9.6 4.6-9.6 9.7V600c0 6-2.8 12-7.4 15.9-3.7 3.3-8.7 5.1-13.7 5.4-5.8-.1-11.6-2.4-15.6-6.6-3.8-3.9-6.1-9.3-6.1-14.7v-46.3c0-5.2-4.7-9.8-9.9-9.7h-64.1c-5.6 0-11.2-2.5-15-6.5-3.8-3.8-6-9.2-6.1-14.6-.1-5.5 2-10.9 5.8-14.9 3.5-3.9 8.6-6.4 14-6.7zM539.5 506.8c4.5-3.6 10.3-5.6 16.1-5.6h147.5c4-.1 8.1.5 11.8 1.9 9.1 3.5 16.2 11.9 18 21.5 1.7 8.7-.9 18-6.7 24.6 5 3.4 9.3 7.9 12.3 13.1 3.4 5.7 5 12.3 5.3 18.9-.1 7.4-2 14.9-6 21.3-5 8.1-13.1 14.3-22.2 17-3.4 1-6.9 1.4-10.5 1.8H555.4c-4.2-.4-8.4-1.2-12.1-3.3-7.5-4-12.9-11.9-13.7-20.4-.3-3.7-.1-7.4-.1-11.1v-59.7c0-7.6 3.8-15.2 10-20m31.9 26.7c-1.9.3-3.6 1.8-4.2 3.6-.6 1.9-.2 4-.3 5.9-.1 3 2.6 5.7 5.7 5.6h114.1c3.8.1 7.2-3.2 7.5-6.9.4-3.5-2-7-5.3-7.9-1.6-.5-3.2-.3-4.9-.3h-82.4c-10.1 0-20.2-.2-30.2 0m.4 38.7c-2.8.2-5.1 2.8-5 5.6.1 2.3-.5 5 .9 7.1 1.1 1.8 3.2 2.7 5.2 2.6H699c2.5 0 4.9-1.2 6.3-3.3 1.6-2.3 1.8-5.4.5-7.9-1.3-2.6-4.3-4.2-7.2-4.1-42.2 0-84.5-.1-126.8 0z"/></g></svg>