<svg version="1.1" id="svg833" xmlns="http://www.w3.org/2000/svg" x="0" y="0" viewBox="0 0 1722.2 1109.1" style="enable-background:new 0 0 1722.2 1109.1" xml:space="preserve"><style>.st0{fill:#fff}</style><g id="layer1"><path id="path845" class="st0" d="M200.3 1106.8c-43.3-6.3-89.4-25.3-117.2-48.4-43.7-36.2-72.3-94.6-80.9-165.4C.1 876.2-.4 780.4.2 541.5c1-364.7-.3-336 17.4-388.4C37.3 95 74.8 52.2 127.4 27.9 182.2 2.5 267.7-4 331.7 12.3c87 22.1 141.5 78.4 162.9 168.4 8.5 35.8 11 66.9 11 137.2v61.8H345V311c0-73.3-2-91.3-12.2-111.7-15.6-31.1-49.1-46.2-91.1-41-42.5 5.3-65.6 30.9-72 80-1.6 11.8-2.2 131.2-1.7 331.1.7 280.9 1.2 313.9 4.8 325.4 12.8 41.1 38 59 83.3 59 31.8 0 45.2-4.7 62.4-21.8 10.3-10.2 15-17.3 19.3-29.3 5.7-15.5 5.8-17.9 6.7-111.3l.9-95.5h160.8l-1.2 96.7c-1 74.4-2.2 101.5-5.2 117.4-21.5 113.6-84.9 178.5-191.4 195.8-24.9 4-83.5 4.5-108.1 1z"/><path id="path847" class="st0" d="m845.7 267.8-131.1-.4.7-120.6s128.9 8 169.2-93.3l17.6-42.4 113.1-.9c1.6 1082.4 0 0 .4 1082.3l-170.3-.1.4-824.6z"/><path id="path849" class="st0" d="M1412 1104.5c-96.9-15.1-161.7-69.1-189.7-157.8-15.5-49.1-14.8-32.3-14.8-392.3 0-304.2.3-329.1 4.4-350.6 16.7-88.8 54.8-143.9 122.3-176.7 52.6-25.6 127.3-33.8 194.7-21.4 57 10.5 105.3 37.5 137.5 76.9 16.5 20.2 37.3 63 44.8 92.1 11.3 44.1 11.5 51.9 10.7 394.3l-.8 322.6-5.4 23.7c-10.7 46.9-25.2 79.1-48.9 108.8-30.3 38-72.2 63.1-126.9 76-23.9 5.6-102.7 8.3-127.9 4.4zm93.2-158.1c16.2-7 32.7-24.9 39.3-42.8 9.7-26 10.2-45.4 9.3-366.2-.8-273.1-1.3-309.4-4.7-320.5-13.3-43.2-39.4-62.4-85-62.4-46 0-75.3 23.7-84.7 68.3-3.6 17.1-3.8 641.3-.3 660.5 3.6 19.1 15.6 41.9 27.4 52 15.4 13.2 34.6 18.5 62.7 17.5 17.3-.6 26.4-2.2 36-6.4z"/></g></svg>