<svg xmlns="http://www.w3.org/2000/svg" version="1.1" id="Capa_1" x="0" y="0" style="enable-background:new 0 0 1000 994" xml:space="preserve" viewBox="0.26 0.2 999.74 993.5"><style>.st0{fill:#ebebeb}.st1{fill:#ec3029}.st2{fill:#7d2989}.st3{fill:#1b8845}.st4{fill:#3952a2}.st5{fill:#f7932c}.st7{fill:#efe72a}.st8{fill:#fff}</style><g id="_x23_ebebebff"><path class="st0" d="M562.3 17.9c-2.2-6.5 1.5-14.1 7.8-16.6 4.7-2.3 10-.4 14.8.3 34.1 5.9 67.6 15.2 99.7 28 67.6 26.7 129.1 68.6 179 121.5-5.3 6.7-10.9 13.2-15.9 20.2-.5.5-1 1-1.4 1.5-18.1-19.8-38-37.7-59.3-54-62-47.6-135.9-79.2-213.1-91.2-5.3-.6-10.1-4.5-11.6-9.7zM295.2 38.3C331.6 21.9 369.9 10 409.1 2.7c7.6-1.7 15.7 4.5 16.1 12.3.8 7.2-5 14.1-12.2 14.8-79 14.7-154.1 49.9-215.7 101.6a469.67 469.67 0 0 0-81.1 87.3c-1.7-1.4-3.2-3.1-5-4.4-6-3.5-11.2-8-16.7-12.3 51.1-70.9 121-128.1 200.7-163.7zM123.6 670.2h1.3c31.6 67.3 81.7 125.9 143.5 167.4 3.7 2.2 6.6 5.9 7.2 10.3.9 5.7-2.3 11.8-7.6 14.2-4.3 2.1-9.6 1.8-13.5-.9-68.1-45.4-123.1-110.1-156.7-184.7 8.4-2.9 17.7-2.5 25.8-6.3zM503 834.6c68-.4 135.7-21.9 191.4-60.8 5 7.1 9.7 14.5 14.8 21.6l.8 1C648.1 839.7 572.5 863 497 862c-4.3.2-8.8-.9-11.8-4.2-5.8-5.6-4.8-16.2 1.9-20.7 4.6-3.5 10.6-2.3 15.9-2.5z"/></g><g id="_x23_ec3029ff"><path class="st1" d="M180.3 189.3c61-64.4 141.9-109.5 228.8-127.5 6.9-1.5 14.3 3.5 15.8 10.4 2 7.3-3.4 15.3-10.7 16.5-58.9 12.4-115 37.9-163.1 74.1-18.7 14.1-36.2 29.8-52.3 46.7-6.3-6.6-12.1-13.6-18.5-20.2zM189.2 297c12.9-20.2 27.6-39.2 44.2-56.5 5.4 7.7 10.3 15.7 15.7 23.4-45.3 49.2-75.5 112-85.6 178.1-2.4 15.8-3.7 31.8-4 47.8-9.1 0-18.2-.6-27.3-1.1.6-67.6 20.7-134.8 57-191.7zM694.5 773.8c15.2-10.6 29.5-22.5 42.9-35.3-.2 1.9 1.2 3.4 2.2 4.9 4.4 6.1 8.4 12.5 13 18.5-13.3 12.6-27.5 24.2-42.6 34.5-.2-.3-.6-.8-.8-1-5-7.2-9.7-14.5-14.7-21.6zM392.4 955.6c4.2-1.3 8.6.2 12.7 1 30.9 6.4 62.3 9.6 93.8 9.7 7.3-.2 13.9 6.4 13.7 13.7.2 7.3-6.4 13.8-13.7 13.7-35.6-.1-71.2-3.9-106-11.6-6.6-1.4-11.3-8.4-10.3-15.1.7-5.2 4.8-9.9 9.8-11.4z"/></g><g id="_x23_7d2989ff"><path class="st2" d="M577.5 74.1c.8-7.4 8.3-13.2 15.6-11.8 87.8 18.5 169.5 65 230.5 130.9-2.8 3.2-5.8 6.3-9.2 9-3.8 3-7 6.7-11 9.4-48.1-51.7-109.6-90.8-177-112.2-12.7-4.1-25.5-7.4-38.5-10.3-6.6-1.4-11.4-8.3-10.4-15zM403 139c54.5-14.9 112.5-16.9 168-6 4 .7 8.5 1.4 11.4 4.6 5.2 4.9 5.4 14.1.3 19.1-3.4 3.9-9 5.1-13.9 3.8-55.5-11.5-113.8-8.8-167.9 7.7-58 17.5-110.9 51.1-151.8 95.7-5.3-7.7-10.3-15.7-15.7-23.4 45.8-48.4 105.2-84 169.6-101.5zM679.9 930.8c80.3-32.8 151-88.4 202-158.6 8.5 4.2 17.6 6.5 26.1 10.7-54.9 77.7-132.5 139.1-220.8 174.4-4.9 2.1-10.9.8-14.6-3-4.6-4.4-5.4-12.2-1.7-17.4 2-3.2 5.6-4.8 9-6.1z"/></g><g id="_x23_1b8845ff"><path class="st3" d="M863.6 151.1c44.5 47.1 79.7 102.9 103 163.3 21.8 56.3 33 116.5 33.4 176.8v5.6c-.4 63.2-12.8 126.4-36.7 184.9-9.2-1.5-18.2-3.7-27.1-6.1 17.3-41.6 28.7-85.8 33.5-130.6 7.3-67 .1-135.6-21.1-199.6-21.1-63.5-55.8-122.6-101.4-171.7.2-.8.3-1.7.5-2.5 5-6.8 10.6-13.3 15.9-20.1zM819.2 374.5c9.3-.5 18.3-3.8 27.6-4.2 25 69.4 28.2 146.4 9.3 217.7-17.3 66.1-53.7 127-103.5 173.7-4.6-6-8.6-12.4-13-18.5-1-1.5-2.4-2.9-2.2-4.9 42.7-41.4 74.4-94.1 90.5-151.4 19.8-69.3 16.6-144.8-8.7-212.4z"/><path class="st3" d="M902.5 593.8c5.1.9 10.5.3 15.5 1.8 3.7 1.1 7.5.7 11.2 1.5l.7.1c-11.4 46.6-30.1 91.4-55.7 131.9-42.1 66.9-102.4 122.2-172.8 158.2-89 45.9-194 59.8-291.9 38.9-6.8-1.9-11.2-9.7-9.2-16.5 1.6-6.7 8.8-11.4 15.6-10 67.1 13.8 137.5 10.9 203.1-8.8 51.1-15.2 99.2-40.6 140.8-74.1 37.9-30.5 70.5-67.8 95.6-109.5 21.3-35.1 37.1-73.5 47.1-113.5z"/></g><g id="_x23_3952a2ff"><path class="st4" d="M687 190c4.1-4.5 11.4-5.6 16.6-2.5 65.8 43.3 116.8 108.6 143.2 182.8-9.3.5-18.3 3.7-27.6 4.2C795.5 311 752.4 255.1 697 216.1c-3.3-2.5-6.9-4.4-9.9-7.2-5.1-5-5.2-13.9-.1-18.9z"/><path class="st4" d="M823.6 193.2c46.9 50.3 81.9 111.7 100.9 177.8 21.2 72.8 23.1 151.1 5.7 224.9-8.8-2.6-18.3-1.8-26.9-5.5 15.7-66.4 15-136.6-2.6-202.5-17.3-65.6-51.1-126.7-97.4-176.4 4-2.7 7.3-6.3 11-9.4 3.4-2.6 6.4-5.7 9.3-8.9zM881.9 772.2c21.8-29.9 40-62.4 54.3-96.5 9 2.4 18 4.6 27.1 6.1-14.5 35.7-33.1 69.7-55.4 101.1-8.4-4.2-17.6-6.6-26-10.7z"/></g><g id="_x23_f7932cff"><path class="st5" d="M67.2 405.5c16.4-80.8 56.1-156.7 113.1-216.2 6.4 6.5 12.2 13.6 18.4 20.2-48.4 51.3-83.5 115-100.6 183.5-14.9 59.1-16.4 121.4-4.7 181.2l-1.2.2c-2.4-.3-4.4-1.8-6.4-3.1-2.7.2-4 3.1-6.3 4.1-4.2 1.6-8.8 2.2-13.3 2.8-11-56.9-10.7-115.9 1-172.7zM132.1 488.7c9.1.5 18.2 1 27.3 1.1-1.1 73.6 22.5 147.2 66.3 206.3 12.2 16.6 26 32.1 41 46.2 3 2.7 4.8 6.7 4.6 10.8-.1 5.9-4.5 11.3-10.2 12.7-4.2 1.2-8.9.1-12.2-2.7-47.7-44.3-83.1-101.6-101.6-164-10.6-35.8-15.9-73.2-15.2-110.4zM14.8 613.9c8.9-2.2 18-3.5 27-5.1C60.6 684 98.2 754.3 150.4 811.6c46.8 51.7 105.4 92.7 169.8 119.2 6.5 2.5 10.1 10.5 7.7 17.1-1.9 5.9-8.1 9.8-14.2 9.2-3.4-.5-6.5-2.1-9.6-3.4-68.2-29-129.8-73.4-178.8-129.1-53-60-91.3-132.9-110.5-210.7z"/></g><path d="M93.7 203.3c.2-.3.7-.9.9-1.3 5.4 4.3 10.7 8.8 16.7 12.3 1.8 1.3 3.3 3 5 4.4l-.9 1.2c-7.1-5.7-14.6-10.9-21.7-16.6z" style="opacity:.93;fill:#ddd982;enable-background:new" id="_x23_ddd982ee"/><g id="_x23_efe72aff"><path class="st7" d="M1.4 461c5.9-92.3 38.3-182.6 92.3-257.7 7.1 5.7 14.6 10.9 21.7 16.6-44 61.6-72.9 134-83.2 209.1-8.3 59.8-5 121.2 9.6 179.8-9 1.6-18.1 3-27 5.1C2.5 564-2.1 512.2 1.4 461zM92.3 574.5l1.2-.2c6.6 33.1 17.2 65.4 31.5 96h-1.3c-4.9-.8-9.6 1.1-14.3 2.1-4.1 1.3-8.4 1-12.5 2.2-13.7-30.3-23.7-62.1-30.2-94.7 8.5-1.8 17.1-3.4 25.6-5.4zM300.4 775.6c3.8-.9 7.8-.2 11 2 17.4 11.5 35.9 21.5 55.1 29.7 3.8 1.8 8.3 2.8 11.1 6.2 4.5 4.9 4.6 13.1 0 18-3.7 4.4-10.4 6-15.6 3.6-23.2-9.3-45.4-21.1-66.1-35-5.8-3.8-7.7-12.3-4-18.2 1.8-3.1 5-5.4 8.5-6.3z"/></g><g id="_x23_000000ff"><path class="st8" d="M254.8 395.1H345c16.9 0 33.2 9.6 41.8 24.1 9.9 15.9 9.4 37.3-1 52.9 14.5 7.6 25.7 21.1 30.1 36.9 4.4 15.1 2.3 31.9-5.5 45.5-10 17.9-29.7 30-50.3 30.3-35.1.1-70.2 0-105.3.1-.1-34.9 0-69.8 0-104.7-.2-7.7 6.6-14.6 14.3-14.6 25.3-.1 50.6 0 75.9 0 8.6-.1 16.6-6.2 19.2-14.4 1.9-5.9.9-12.5-2.5-17.6-3.8-5.8-10.6-9.4-17.6-9.2h-89.2c-.1-9.9-.1-19.6-.1-29.3m29 99.5c.1 20.4-.1 40.8.1 61.2 25.4-.1 50.8.1 76.2-.1 14.4-.5 27.2-12.5 28.8-26.8 1.5-10.6-3.3-21.6-11.8-28-5.4-4.2-12.2-6.5-19-6.3-24.8 0-49.5-.1-74.3 0zM393.9 395.2c51.1-.1 102.3 0 153.4 0v29c-18.9 0-37.7.1-56.6 0-.2 53.5-.1 107.1-.1 160.6-9.7 0-19.3-.1-29 .1-.2-53.5-.1-107.1-.1-160.6-15.5-.1-31 0-46.6-.1-8.5-.2-16.5-5.9-19.6-13.8-1.8-4.8-1.4-10.1-1.4-15.2zM555.4 395.2c6.9-.1 13.9 0 20.8 0C601 440.1 625.8 485 650.6 530c25.1-44.8 49.7-89.9 74.5-134.8h20.8c-.3 11.5.5 23.1-.4 34.5-24.4 44.5-49.1 88.9-73.5 133.4-1.6 3.2-2.9 6.8-5.5 9.5-4.2 4.9-10.5 6.8-15.7 10.3-6.5-3.8-14.2-6.4-18.2-13.2-8.2-16-17.2-31.5-25.8-47.3-17-30.9-34.2-61.8-51.1-92.7-.7-11.6 0-23.1-.3-34.5z"/></g><path d="M79.6 575.4c2.3-1 3.7-3.9 6.3-4.1 2 1.3 4 2.8 6.4 3.1-8.5 2.1-17.1 3.6-25.7 5.4-.1-.4-.2-1.3-.3-1.7 4.5-.4 9.1-1 13.3-2.7z" style="fill:#dfa219" id="_x23_dfa219ff"/><path d="m903.2 590.4.2.1c8.5 3.7 18 2.8 26.9 5.5l-.2 1.4-.8-.1c-3.7-.8-7.6-.4-11.2-1.5-5-1.5-10.4-.9-15.5-1.8.1-1.3.3-2.5.6-3.6z" style="opacity:.96;fill:#2b686d;enable-background:new" id="_x23_2b686df4"/><path d="M109.4 672.4c4.7-1.1 9.4-2.9 14.3-2.1-8.1 3.8-17.4 3.4-25.8 6.3l-.2.1c-.2-.5-.5-1.5-.7-2 4-1.3 8.3-1.1 12.4-2.3z" style="opacity:.95;fill:#dfdc7e;enable-background:new" id="_x23_dfdc7ef1"/></svg>