<svg xmlns="http://www.w3.org/2000/svg" viewBox="79.02 100.2 847.3 344.17"><g fill="#fff"><path d="M224.18 102.79c23.06-3.65 46.7-3.35 69.74.3 24.1 4.36 47.55 13.81 67.09 28.71 18.37 13.64 31.94 32.72 42.03 53.04.39 1.05 1.51 3.05-.24 3.41-26.37 12.46-52.66 25.1-79.06 37.51-2.08-4.76-4.41-9.42-7.14-13.84-8.85-14.25-22.83-25.56-39.12-30.01-15.8-4.29-32.99-3.37-48.26 2.54-15.63 6.23-29.01 17.85-37.36 32.46-10.39 17.43-13.66 38.1-13.35 58.13.5 15.29 2.85 30.83 9.59 44.71 6.76 14.94 18.24 27.79 32.76 35.53 15.2 8.32 33.2 10.03 50.15 7.66 16.45-2.77 31.58-12.04 41.66-25.3 4.58-5.95 8.13-12.64 11.06-19.54 18.43 8.27 36.65 16.98 55.02 25.38 8.39 4.01 16.96 7.66 25.25 11.88-3.82 10.05-9.71 19.2-15.76 28.05-11.46 16.2-26.67 29.78-44.06 39.34-17.99 9.87-37.92 16.24-58.28 18.67-15.17 1.97-30.61 1.55-45.9 1.05-46.02-3.57-91.47-24.38-121.46-59.99-19.07-22.53-32.13-50.19-37-79.33-4.54-28.61-3.14-58.42 5.78-86.09 9.45-28.84 26.68-55.2 49.9-74.83 24.59-20.87 55.21-34.23 86.96-39.44zM567.56 119.57c33.84.06 67.69-.14 101.53.1 32.91 51.42 65.97 102.75 98.95 154.14 4.44 6.64 8.35 13.67 13.24 20.01.09-58.09-.08-116.18.08-174.27 32.63.1 65.27-.12 97.91.11.18 76.87-.06 153.75.12 230.62-1.98 1.04-4.23 1.16-6.28 1.95-12.3 3.86-22.65 13.39-27.57 25.29-3.66 8.58-4.27 18.33-2.26 27.4 3.82 17.15 18.73 30.87 35.99 33.75.04.94.14 2.83.19 3.78-1.49 1.39-3.65.74-5.46.89-29.47 0-58.94-.1-88.4.05-20.27-30.46-39.97-61.3-60.01-91.91-19.89-30.75-40.14-61.28-59.79-92.17-.51 61.33.06 122.69-.29 184.03-32.64-.05-65.28-.01-97.92-.02-.13-15.28-.02-30.57-.06-45.85 0-85.74.01-171.48 0-257.22.02-6.89-.03-13.79.03-20.68z" style="--darkreader-inline-fill:#181a1b"/></g><path fill="#ed2537" d="M361.01 131.8c27.39-20.02 61.43-28.92 94.97-30.39 25.79-.79 52.14 2.98 75.63 14.06 13.24 6.19 25.46 14.57 35.92 24.78.01 85.74 0 171.48 0 257.22-25.03 24.34-58.37 38.97-92.66 44.2a247.51 247.51 0 0 1-43.86 2.59c-5.64-1.08-11.43-.31-17.04-1.43-24.2-2.5-48.07-9.03-69.79-20.08 17.39-9.56 32.6-23.14 44.06-39.34 6.05-8.85 11.94-18 15.76-28.05 10.51 3.75 21.85 5.08 32.98 5.22 19.37.62 38.99-5.42 54.4-17.23 6.32-4.83 13.51-9.24 17.28-16.53 4.83-9.4 7.22-20.08 6.84-30.64-9.2 12.54-21.75 22.8-36.51 27.99-27.66 9.58-58.42 9.29-86.18.2-21.67-7.19-41.46-20.66-55.07-39.12-11.68-15.34-19.29-33.95-20.62-53.25-1.06-6.65-.37-13.39-.52-20.08 2.73 4.42 5.06 9.08 7.14 13.84 26.4-12.41 52.69-25.05 79.06-37.51 1.75-.36.63-2.36.24-3.41-10.09-20.32-23.66-39.4-42.03-53.04m92.64 49.67c-12.15 1.69-23.53 8.58-30.58 18.63-6.06 8.4-9.03 19.34-6.77 29.57 1.58 10.36 8.04 19.62 16.68 25.42 11.05 7.47 24.68 10.5 37.91 9.46 16.46-1.04 33.83-6.54 44.88-19.4.41-11.31-.78-22.82-5.12-33.36-4.01-10.11-11.14-19.19-20.77-24.45-10.94-6.03-23.98-7.53-36.23-5.87z" style="--darkreader-inline-fill:#b20f1d"/><path fill="#fbb03f" d="M877.45 357.68c7.78-2.11 16.25-1.8 23.8 1.09 10.73 4.12 19.53 13.15 23.11 24.1 2.95 8.64 2.54 18.31-1 26.7-3.94 9.55-11.87 17.34-21.49 21.09-9.23 3.73-19.95 3.75-29.08-.28-8.98-3.74-16.39-11-20.31-19.89-4.45-9.93-4.34-21.8.21-31.68 4.65-10.22 13.93-18.15 24.76-21.13z" style="--darkreader-inline-fill:#fbb347"/></svg>