<svg xmlns="http://www.w3.org/2000/svg" version="1.1" id="Layer_1" x="0" y="0" style="enable-background:new 0 0 351.59 351.59" xml:space="preserve" viewBox="0 0 351.6 351.6"><style>.st1{fill:#013080}</style><circle cx="175.8" cy="175.8" r="175.8" style="fill:#fff;--darkreader-inline-fill:#e8e6e3"/><path class="st1" d="M89.21 43.09c80.25-56.99 213.46-13.7 235.27 83.44-3.23.67-6.41-.52-9.15-2.12-27.5-15.17-53.35-33.4-81.93-46.56C161.06 42.89 49.5 55.29 24.07 143c32.76-73 128.7-79.02 192.54-45.51 24.44 11.63 46.33 27.88 68.22 43.64 11.48 7.22 35.99 32 49.34 23.21.36 33.33 3.71 53.59-34.03 27.55-28.33-20.83-55.6-43.26-86.69-60.02-65.06-43.11-183-40.35-196.01 53.9-3.16-56.11 24.23-112.25 71.77-142.68z"/><path class="st1" d="M86.83 125.13c37.71-7.12 76.95 4.58 110.36 23.52 33.66 19.08 62.68 45.18 92.83 69.43 5.02 4.03 10.15 8.07 16.1 10.54 5.94 2.47 12.88 3.23 18.77.63-2.83 9.83-6.61 20.81-15.9 25.09-9.55 4.4-20.74-.28-29.61-5.91-18.75-11.9-34.28-28.14-51.26-42.46a308.479 308.479 0 0 0-67.54-43.3c-17.56-8.25-36.12-14.89-55.43-16.73s-39.51 1.4-55.95 11.7c-14.03 8.79-25.04 23.1-28.46 39.44-.44 2.09-1.11 4.63-.89 6.75-.11-4.29-.98-8.46-.73-12.83.25-4.37 1.02-8.71 2.22-12.92 2.43-8.49 6.64-16.46 12.18-23.33.78-.96 1.58-1.9 2.4-2.81 12.9-14.26 31.19-22.93 50.06-26.64.28-.07.56-.12.85-.17z"/><path class="st1" d="M59.29 167.85c58.97-14.14 113.26 25.49 153.4 64.42 13.47 11.22 26.23 23.31 40.08 34.09 16.06 13.2 33.37 20.13 50.32 3.9-46.26 65.62-144.07 83.4-211.18 39.97C47.9 284.57-19.11 192.34 59.29 167.85z"/></svg>