<svg xmlns="http://www.w3.org/2000/svg" preserveAspectRatio="xMidYMid" viewBox="0 0 64 64"><path fill="#FCA136" d="M43.62 37.89a1.25 1.25 0 0 1-2.16-.83V10.31A1.27 1.27 0 0 0 40.19 9h-9.26a1.26 1.26 0 0 0-1.35 1A20.15 20.15 0 0 1 10.3 25.27 1.27 1.27 0 0 0 9 26.53v7.34a1.26 1.26 0 0 0 1.26 1.26h15.38A2.38 2.38 0 0 1 28 37.54v12.23c0 4.1-.48 5.34-3.91 8.88A17.41 17.41 0 0 1 11.52 64 11.52 11.52 0 0 1 0 52.46V11.57A11.57 11.57 0 0 1 11.57 0h40.86A11.56 11.56 0 0 1 64 11.56c0 2.83-.68 5.92-2.5 7.81z" style="--darkreader-inline-fill:#ab5e03"/></svg>