<svg xmlns="http://www.w3.org/2000/svg" viewBox="65.88 196.8 480.24 398.4"><path d="M113.504 360.119v31.55c-.002 4.124.31 7.66.31 12.064 0 28.757-2.297 56.47 8.04 82.278 3.877 9.683 8.76 17.53 15.53 25.295 1.412 1.62 2.33 2.928 3.872 4.479 1.47 1.48 2.976 2.386 4.277 4.073 5.122 6.634 16.505 13.833 23.337 17.796.887.514 1.682.808 2.639 1.381 4.982 2.983 15.604 6.956 20.667 8.403 7.967 2.277 18.947 4.151 28.94 4.149 11.165-.003 21.484.309 32.779.309l134.515-.31c14.61 0 24.615-1.895 38.386-6.453 2.314-.766 4.23-1.666 6.41-2.56 4.347-1.782 10.617-5.07 14.576-7.69l8.04-5.567c1.727-1.292 3.282-2.604 4.994-3.975.878-.704 1.296-1.345 2.249-2.081 1.094-.845 1.483-1.278 2.42-2.218 4.438-4.447 8.988-9.147 12.54-14.368 2.955-4.341 6.132-8.94 8.515-13.753.573-1.157.966-1.94 1.545-3.094 2.744-5.46 5.62-13.707 7.074-19.835 2.806-11.83 3.334-37.524 3.337-50.484 0-3.319-.313-5.424-.31-8.66v-39.903c-.001-7.212.68-11.788.017-19.812-.122-1.473-.015-3.421-.009-4.94.008-2.084-.294-2.829-.312-4.947-.022-2.816-.636-6.269-.932-8.966-1.059-9.64-3.001-15.75-5.99-24.631-.865-2.572-2.016-4.7-2.934-6.963-4.163-10.247-13.194-21.925-20.994-29.728-.835-.834-1.626-1.74-2.505-2.443-7.236-5.774-11.41-9.973-20.763-14.803-1.173-.606-1.96-1.134-3.193-1.755-11.49-5.79-26.07-10.243-38.92-11.798-1.657-.2-3.047-.251-4.76-.497-7.108-1.023-71.712-.486-80.532-.486H255.75c-5.458 0-25.781-.742-29.817-.13l-9.764.44c-13.897.693-28.514 4.188-40.51 10.206-12.59 6.318-20.045 10.93-29.913 20.806-.56.561-.772.709-1.315 1.16-.51.424-.809.772-1.216 1.258-.8.953-1.512 1.623-2.424 2.525-4.022 3.976-10.258 13.136-12.932 17.686-7.006 11.922-11.066 23.532-12.866 37.859l-.88 9.327c-.172 6.627-.609 12.855-.609 19.806z" style="fill:#fff;fill-rule:evenodd;stroke:#000;stroke-width:.216;stroke-linecap:butt;stroke-linejoin:miter;stroke-dasharray:none;--darkreader-inline-fill:#e8e6e3;--darkreader-inline-stroke:#e8e6e3"/><path d="M65.882 347.128v100.219c0 36.882 13.098 66.447 32.335 91.074l3.937 4.723c3.26 3.894 9.71 10.51 13.251 13.346l9.673 7.956c19.041 14.277 41.965 24.494 65.601 28.413 3.335.552 6.9 1.204 10.337 1.413 1.5.092 3.798.25 5.387.489 1.98.296 11.414.404 20.754.44h19.935c4.224 0 7.301-.31 11.441-.31h94.934c4.178 0 7.235.31 11.441.31h28.4c6.023-.111 11.888-.365 17.395-.9 32.637-3.17 56.478-15.16 78.868-31.845a85.85 85.85 0 0 0 9.466-8.163c5.885-5.887 11.705-11.58 16.688-18.26l7.328-10.301c7.16-10.935 12.986-23.332 16.682-35.897 3.411-11.595 6.383-25.536 6.383-40.323v-104.55c0-10.824-1.772-23.57-3.958-32.232l-3.966-13.973c-2.278-6.834-4.924-12.884-8.053-19.164a82.553 82.553 0 0 0-3.178-5.791c-3.367-5.586-6.933-11.16-10.84-16.377l-14.76-17.096-4.797-4.172c-7.367-6.51-15.019-12.225-23.485-17.338-16.782-10.134-41.74-19.519-61.164-20.479-1.54-.076-2.367-.323-4.337-.302-1.969.022-2.75-.31-4.327-.31.347 4.172 3.402 8.59 3.402 14.537 0 3.902-.05 7.784-1.271 11.411-.482 1.43-2.179 4.345-2.307 5.488-.186 1.648 2.145.92 5.924 1.478 18.089 2.668 36.029 8.945 51.15 19.05 3.209 2.145 10.511 7.214 13.222 9.974 3.224 3.28 6.846 6.096 10.054 9.43.788.818 1.037 1.317 1.85 2.171.724.76.989 1.218 1.698 2.013.66.741 1.162 1.406 1.801 2.22 3.987 5.077 7.7 10.334 10.944 15.964.512.889.808 1.683 1.38 2.64 1.969 3.289 3.761 7.007 5.014 10.76 5.546 16.613 6.916 29.213 6.916 47.831v95.27c0 22.466-5.94 42.28-17.682 60.261-1.954 2.994-10.783 14.822-13.02 16.67l-9.734 8.823c-2.528 2.273-5.638 4.424-8.484 6.362-8.684 5.914-13.857 9.035-23.74 13.37-13.708 6.013-30.075 9.58-49.795 9.58h-169.15c-12.216 0-22.715-1.167-33.463-3.954-7.443-1.93-14.987-4.702-21.893-8.104-8.213-4.047-15.615-8.965-22.968-14.454-3.427-2.558-12.723-10.478-15.684-14.315-.506-.655-1.051-1.386-1.635-2.077-.676-.8-1.127-1.115-1.767-1.944-3.282-4.248-6.55-8.628-9.332-13.245-1.974-3.275-3.638-6.206-5.409-9.746-.827-1.655-1.605-3.496-2.264-5.159-.722-1.819-1.379-3.35-2.048-5.375-1.29-3.905-2.434-7.563-3.288-11.868a142.033 142.033 0 0 1-2.704-27.609v-87.536c0-31.625 3.128-53.056 19.66-75.914 5.034-6.96 10.278-13.12 16.594-18.974 10.592-9.816 23.06-18.049 36.456-23.54 7.758-3.18 15.503-5.576 24.465-7.389 3.23-.653 7.073-1.49 10.454-1.606 1.522-.053 2.72.403 2.316-1.343-1.278-5.535-3.57-2.915-3.57-15.995 0-2.515.73-5.82 1.341-7.938.71-2.462 1.86-4.81 2.061-7.219-4.83.108-12.247.925-16.717 1.528-4.99.673-10.37 1.988-14.934 3.312-7.03 2.038-16.702 5.238-23.29 8.563-5.144 2.595-10.113 4.9-15.043 7.842-7.63 4.553-14.556 9.437-21.167 15.327l-4.792 4.176c-.795.8-1.504 1.622-2.346 2.293-3.342 2.667-5.848 6.384-8.782 9.466-7.8 8.192-18.855 25.982-23.072 36.31l-5.03 13.219c-1.534 4.603-2.753 9.219-3.984 14.264-2.504 10.254-3.708 22.133-3.708 33.1z" style="fill:#abc723;fill-rule:evenodd;--darkreader-inline-fill:#c5df48"/><path d="M399.676 368.704c-17.135 1.283-31.408 7.575-42.634 19.12-11.991 12.333-17.225 27.863-15.586 45.91 2.98 32.825 33.32 56.153 70.135 53.086 33.201-2.766 61.078-28.367 57.647-64.872-3.098-32.964-32.725-56.001-69.562-53.244zm-161.8 115.325 42.228.044.092-36.986 20.992 37.004 48.183-.019c-.742-1.935-30.055-42.539-31.751-46.007 13.357-2.021 21.666-11.188 22.917-25.301 1.433-16.164-5.243-27.318-14.345-33.405-11.298-7.556-24.18-8.313-39.828-8.313h-24.12c-7.778 0-16.645-.396-24.288.04zm42.315-61.825c4.488.11 9.961.456 13.752-1.297 3.513-1.624 5.795-4.68 5.748-9.754-.1-10.97-9.368-11.199-19.389-11zm-136.995-14.201 24.012.025.003 76.045h43.028l.095-76 23.976-.06.032-36.921-91.047-.047zm259.999-1.657c-11.893 1.05-18.969 10.533-18.087 23.577.814 12.029 9.379 20.165 22.36 19.089 25.637-2.125 23.766-45.14-4.273-42.666zM236.574 334.739l18.328.01c1.212-5.377 8.196-4.51 10.884-3.544 2.688.965 4.7 5.177-4.188 6.602-8.06 1.291-20.3 1.394-24.69 6.559-2.44 2.873-3.32 7.74-1.777 12.254 1.257 3.676 4.377 6.306 8.245 7.53 5.871 1.857 14.125 1.309 19.966-1.379 2.13-.98 3.376-2.07 5.059-2.936l1.176 3.866 37.648.018c1.528-13.394-3.753-29.452 6.656-29.884 7.403-.306 6.874 4.974 6.872 11.437 0 5.166-.503 13.635.087 18.406l18.611.044c.321-2.066.119-17.516.117-20.924-.005-6.85-.33-13.056-4.035-17.016-5.61-5.996-18.827-6.816-27.16-.25-1.145.902-1.618 1.828-2.755 2.401l-.014-5.872-17.097.001-.02 40.445c-3.01-1.952-2.103-5.236-2.103-11.049 0-4.536-.004-9.073.001-13.61.008-8.237-1.298-13.291-11.428-15.807-10.322-2.563-38.121-3.831-38.383 12.698zm105.466.009h18.346c1.177-5.316 8.035-4.543 10.854-3.551 2.663.937 4.81 5.175-4.193 6.612-8.107 1.295-20.248 1.367-24.67 6.578-2.377 2.8-3.354 7.84-1.79 12.215 3.758 10.513 19.969 9.956 28.213 6.178 2.151-.987 3.365-2.046 5.06-2.938l1.198 3.902 18.761-.028c.251-2.367-1.687-1.094-1.948-4.534l-.018-20.406c.003-8.208-.316-13.75-10.956-16.615-10.132-2.729-38.586-4.116-38.857 12.587zm-74.186 10.438c-2.41.459-11.8 2.657-13.545 4.524-1.188 1.27-.829 3.377.37 4.366 2.118 1.75 7.412 1.374 9.903.037 3.033-1.627 3.544-4.605 3.272-8.927zm105.467.005c-2.775.623-6.966 1.672-9.657 2.544-1.335.433-3.153 1.222-3.892 1.99-1.257 1.304-.756 3.384.373 4.333 2.113 1.776 7.387 1.389 9.897.066 2.944-1.55 3.55-4.66 3.279-8.933zm21.3 18.285h18.527l.018-56.06h-18.533zM235.76 341.838h-18.973c-1.478.368-.031 4.648-4.608 7.488-5.867 3.64-19.134 3.498-19.458-13.012-.154-7.829 1.826-14.133 8.18-15.917 3.105-.872 7.569-.558 10.262.81 4.743 2.408 3.63 6.997 5.006 7.445h19.242c-1.37-17.41-16.855-24.36-35.638-22.618-16.852 1.563-28.138 12.27-27.813 30.271.318 17.624 12.097 27.647 29.293 28.855 18.436 1.295 33.212-6.042 34.507-23.322z" style="fill:#113d1f;fill-rule:evenodd;--darkreader-inline-fill:#cfcbc5"/><path d="M312.03 212.574c0 5.096 1.524 8.154 4.713 11.37 6.762 6.821 19.591 7.227 25.597-4.868 1.845-3.715 2.04-8.707.206-12.59-2.383-5.046-7.054-9.687-13.508-9.687-5.79 0-8.691.623-12.763 4.865-2.433 2.535-4.245 6.053-4.245 10.91z" style="fill:#ffd608;fill-rule:evenodd;--darkreader-inline-fill:#ffda1f"/><path d="M267.192 212.265c0 14.72 17.302 21.582 26.986 11.838 4.809-4.84 5.947-12.985 3.122-18.756-2.069-4.227-7.387-8.548-12.482-8.548-5.007 0-9.819.48-13.347 4.9-2.123 2.657-4.28 5.882-4.28 10.566z" style="fill:#ff2129;fill-rule:evenodd;--darkreader-inline-fill:#ff3138"/><path d="M356.868 212.574c0 6.524 3.78 11.765 8.755 14.442 5.837 3.141 13.781 1.384 17.927-2.6 1.332-1.278 2.478-3.05 3.317-4.724 3.06-6.108 2.176-12.526-2.293-17.818-2.52-2.985-6.663-4.783-10.893-5.075h-2.428c-2.093.147-4.136.682-5.94 1.643-1.894 1.01-2.607 1.964-4.039 3.383-1.43 1.418-2.216 2.303-3.045 4.378-.618 1.547-1.36 4.396-1.36 6.371z" style="fill:#0d0b08;fill-rule:evenodd;--darkreader-inline-fill:#e1dfdb"/><path d="M222.353 211.956c0 5.684 1.258 8.49 4.87 12.142 4.38 4.43 11.282 5.922 17.58 3.2.604-.26 1.863-1.028 2.334-1.377l5.116-6.018c5.19-10.361-2.163-23.104-13.201-23.104h-.136c-2.84.002-5.201.09-7.7 1.442-4.9 2.651-8.863 7.298-8.863 13.715z" style="fill:#ced608;fill-rule:evenodd;--darkreader-inline-fill:#f0f838"/></svg>