<svg xmlns="http://www.w3.org/2000/svg" version="1.1" id="Capa_1" x="0" y="0" style="enable-background:new 0 0 850.4 850.4" xml:space="preserve" viewBox="371.4 390.6 105.64 68.32"><style>.st4{fill:#1a1415}</style><g id="logo-c6-w-copy"><path id="Path_00000091016196496236155650000016943049455329055365_" style="fill:#d8ad1f" d="m428.1 446.1-42.3 12.3-.6-22.8 42.7-11.2z"/><path id="Path_00000023960206582461991270000001312316271252518311_" style="fill:#b68824" d="m420 440-34.2 18.4-.2-9.9 27-22.3z"/><g id="Group_00000096031407969571780350000014116610450906782651_"><path id="Path_00000132774472144019589070000016339927570598031771_" d="M447.9 458.7c-18.1 2.1-34.5-10.8-36.6-28.9-2.1-18.1 10.8-34.5 28.9-36.6 18.1-2.1 34.5 10.8 36.6 28.9 2.2 18.1-10.8 34.5-28.9 36.6z" style="fill:#fff"/><path id="Path_00000053507413046432357140000015378832733517197709_" style="fill:#ffd206" d="m420 440-48 14-.6-25.9 48.4-12.6z"/><path id="Shape_00000183218940672551721850000016619382858862247097_" class="st4" d="M444.6 414.3c-4.4 1.1-7.4 3.9-9 7.4l-.3.1c-.3-7.9 2.4-15.5 10.7-19.5 1.9-.9 3.7-1.6 5.3-2.1l-2.5-9.6c-1.4.5-3.5 1-6.6 2.4-5.3 2.3-11 6.8-14.2 12.2-4.6 7.4-7.1 17.4-3.8 30.3 3.8 14.6 14 22.3 26.5 19.1 13-3.4 16.1-15.4 13.5-25.8-2.8-11.3-10.6-16.9-19.6-14.5m3.9 31.9c-4.1 1.1-8.8-3.3-10.5-9.8-1.7-6.5.3-12.6 4.4-13.7 4.1-1.1 8.8 3.3 10.5 9.8 1.7 6.5-.3 12.6-4.4 13.7"/><path id="Path_00000028324978148259950530000014531483023665367185_" class="st4" d="M384.7 443.3c.2 2.6-1 4.3-3.5 5-2.1.5-3.3-.1-3.8-1.8-.1-.3-.2-.7-.2-1.2l-.8-11.5c-.2-2.6 1-4.3 3.5-4.9 2.1-.5 3.3.1 3.8 1.8.1.3.2.7.2 1.2l.2 2.5-2.6.7-.2-2.5c-.1-.8-.5-1.2-1.2-1-.7.2-1.1.7-1 1.6l.8 11.5c.1.9.5 1.2 1.2 1 .8-.2 1.1-.7 1.1-1.6l-.2-2.5 2.6-.7.1 2.4z"/><path id="Shape_00000037659579778534144500000013816135226979561660_" class="st4" d="m393.5 444.5-1.8.5-.7-1.4c-.3 1.2-1 2-1.9 2.4-1.6.4-2.6-.2-3-1.8-.1-.4-.2-.9-.2-1.4l-.1-1.2c-.2-2.6.7-4.2 2.6-4.7.8-.2 1.5-.2 2 .1l-.2-3.4c-.1-.9-.5-1.2-1.2-1-.7.2-1 .7-.9 1.5v.5l-2.6.7v-.5c-.2-2.6 1-4.3 3.4-4.9 2.1-.5 3.3.1 3.8 1.8.1.3.2.7.2 1.2l.6 11.6zm-5.1-2.4c.1.9.5 1.2 1.2 1 .8-.2 1.1-.7 1-1.6l-.1-1.2c-.1-.8-.5-1.2-1.2-1-.8.2-1.1.7-1.1 1.6l.2 1.2z"/><path id="Path_00000176730352012458562620000016344535553275897749_" class="st4" d="m394.6 444.1-1-15.3 1.8-.5.7 1.4c.3-1.2 1-2 1.9-2.4 1.6-.4 2.6.2 3 1.8.1.4.2.9.2 1.4l.8 11.6-2.6.7-.8-11.6c-.1-.9-.5-1.2-1.2-1-.8.2-1.1.7-1 1.6l.8 11.6-2.6.7z"/><path id="Shape_00000008109310984201738050000011665745702360971425_" class="st4" d="m410.5 439.7-1.8.5-.7-1.4c-.3 1.2-1 2-1.9 2.4-1.6.4-2.6-.2-3-1.8-.1-.4-.2-.9-.2-1.4l-.1-1.2c-.2-2.6.7-4.2 2.6-4.7.8-.2 1.5-.2 2 .1l-.2-3.4c-.1-.9-.5-1.2-1.2-1-.7.2-1 .7-.9 1.5v.5l-2.6.7v-.5c-.2-2.6 1-4.3 3.4-4.9 2.1-.5 3.3.1 3.8 1.8.1.3.2.7.2 1.2l.6 11.6zm-5-2.4c.1.9.5 1.2 1.2 1 .8-.2 1.1-.7 1-1.6l-.1-1.2c-.1-.8-.5-1.2-1.2-1-.8.2-1.1.7-1.1 1.6l.2 1.2z"/><path id="Path_00000016057956934572710120000005330065899753577877_" class="st4" d="m413 418.5 1.3 19.9-2.6.7-1.3-19.9z"/></g></g></svg>