<svg xmlns="http://www.w3.org/2000/svg" version="1.2" id="svg10" viewBox="0 0 400 601.48"><style id="style4"></style><g id="g1897" transform="translate(-3.955 -8.967) scale(.37891)"><path id="Path 1" d="M818.438 24.475c-81.218 4.33-136.232 73.37-198.111 117.522C476.073 262.61 344.854 399.34 233.5 551 150.83 547.65 56.684 589.23 36 676.5c-13.4 52.735-.015 110.239 35.025 151.875C13.091 974.135-6.504 1144.395 54.801 1292c59.007 136.175 176.197 244.968 318.199 289.6 154.587 53.497 334.698 33.45 473-54.4 132.102-87.261 213.707-244.445 219.4-401 5.568-106.913-22.193-218.322-89.4-304.7-83.048-109.136-206.524-187.648-339.425-218.437 95.382-112.404 208.287-208.157 316.812-307.2 73.046-87.882 25.207-241.206-88.062-266.5-15.226-4.16-31.169-5.17-46.888-4.888zM437.3 883c93.825 17.01 194.794 45.029 259.1 120.5 63.067 72.96 57.306 189.518-11.401 256.8-63.12 68.25-178.718 72.196-247.3 9.501-84.01-58.723-82.558-175.977-52.773-263.941C398.093 963.42 414.743 921.34 437.3 883z" style="fill:#713a8d"/><path id="Path 2" d="M229.4 549.4c-15.228 35.536-53.527 79.336-74.922 119.656C122.346 720.35 96.092 774.92 69.1 829c-17.632-20.697-30.91-48.82-36.5-73.2-12.804-48.376 1.961-109.557 38.673-147.155 39.651-43.947 101.993-54.906 158.127-59.245zm405.2 53.7c158.255 37.34 304.975 140.303 381.1 285.7 42.46 80.903 54.456 174.962 45.2 264.8-14.889 26.885-27.547 54.1-49.7 76.4-75.454 103.81-200.556 178.947-331.712 172.063-119.468-4.4-240.8-70.639-293.287-180.763 42.44 47.482 96.202 94.439 164.047 92.88 99.442 4.41 188.035-84.859 187.103-183.624 4.82-82.555-52.37-154.765-123.65-189.856-55.355-31.294-118.311-44.366-179-59.4 53.825-100.932 123.006-193.85 199.9-278.2z" style="fill:#e6679c"/><path id="Path 3" fill-rule="evenodd" d="M818.438 24.475c35.718-7.262 126.343 36.216 110.9 57.1C729.24 172.152 560.278 318.715 407.71 474.24 257.22 636.248 116.865 821.978 66.667 1041.42c-35.357 148.574 4.261 315.577 116.87 421.855 20.945 22.148 68.394 60.47 81.6 73-156.498-90.992-263.975-268.376-254.067-451.54-.033-145.95 56.75-284.484 132.668-406.785 149.654-247.073 355.9-457.303 587.937-627.888 25.605-16.578 56.113-26.41 86.763-25.587z" style="fill:#592072"/><path id="Path 4" d="M477.653 881.076c124.925.6 250.875 44.86 343.112 130.337 68.524 58.266 104.058 148.67 103.426 237.663 1.09 23.04-4.424 47.19-3.55 69.363-19.847 23.553-51.738 31.998-74.988 50.637-22.177 3.291-34.974 18.555-57.43 22.017-46.547 12.678-95.668 13.741-143.458 8.714-58.415-9.298-114.963-31.565-163.098-65.965-35.97-26.885-67.067-61.117-88.039-101.028-10.752-22.296 16.272 13.99 24.417 19.497 38.367 42.41 95.699 67.925 153.233 62.09 59.462-3.678 113.522-41.254 143.375-91.825 17.778-31.916 27.94-68.472 25.211-105.34-1.045-28.406-7.799-57.784-22.558-82.27-31.743-60.112-94.56-95.107-155.633-119.287-39.11-16.015-80.7-24.113-122.02-32.103 11.97-4.625 25.455-1.927 38-2.5z" style="fill:#e04286"/></g></svg>