<svg xmlns="http://www.w3.org/2000/svg" version="1.1" id="Capa_1" x="0" y="0" style="enable-background:new 0 0 58.3 50.5" xml:space="preserve" viewBox="0 0 58.3 50.5"><style>.st0{fill:#fff}</style><path class="st0" d="M41.4 12c0 3.3-1.2 6.2-3.6 8.5-2.4 2.3-5.3 3.5-8.6 3.5-3.4 0-6.3-1.2-8.7-3.5-2.4-2.3-3.6-5.2-3.6-8.5s1.2-6.1 3.6-8.5C22.9 1.2 25.8 0 29.2 0c3.4 0 6.3 1.2 8.6 3.5 2.4 2.4 3.6 5.2 3.6 8.5zm-.7 0c-1-2.1-2.4-3.8-4.5-5.1-2.1-1.4-4.5-2.1-7.1-2.1-2.6 0-5 .7-7.1 2.1-2 1.3-3.5 3-4.4 5.1 1 2.1 2.4 3.8 4.4 5.1 2.1 1.4 4.5 2.1 7.1 2.1 2.6 0 4.9-.7 7.1-2.1 2-1.3 3.5-3 4.5-5.1zm-5 0c0 1.8-.6 3.3-1.9 4.5s-2.8 1.9-4.6 1.9c-1.8 0-3.3-.6-4.6-1.9-1.3-1.2-1.9-2.7-1.9-4.5 0-1.8.6-3.3 1.9-4.5 1.3-1.2 2.8-1.9 4.6-1.9 1.8 0 3.3.6 4.6 1.9 1.3 1.2 1.9 2.7 1.9 4.5zM0 39.2C0 33 5.2 27.9 12 27.9c6.2 0 9.3 4.3 9.3 4.3l-3.2 3.1s-2.2-3.1-6.2-3.1-7.1 3.1-7.1 7 3.2 7 7.1 7c4.1 0 6.3-3.1 6.3-3.1l3.2 3.1s-3.2 4.3-9.5 4.3C5.2 50.5 0 45.4 0 39.2zm23.3-10.9h9.3c4.4 0 7.1 2.6 7.1 5.7 0 3.4-3 4.5-3 4.5s4.1 1.1 4.1 5.3c0 3.4-2.8 6.2-7.6 6.2h-10l.1-21.7zm9 8.4c1.6 0 2.5-.9 2.5-2.2 0-1.2-.9-2.2-2.5-2.2H28v4.3l4.3.1zm.6 9.3c1.9 0 3-1.1 3-2.6s-1.1-2.6-3-2.6H28V46h4.9zm8.5 1.1 3.2-3.1s1.9 2.3 5.2 2.3c2.5 0 3.6-1.1 3.6-2.5 0-3.7-11.1-2-11.1-9.6 0-3.4 3-6.4 8.1-6.4 4.9 0 7.4 2.9 7.4 2.9l-3.2 3.1s-1.6-1.9-4.1-1.9c-2.4 0-3.3.9-3.3 2.2 0 3.7 11.1 2 11.1 9.6 0 3.6-3.2 6.7-8.4 6.7-5.7.1-8.5-3.3-8.5-3.3z"/></svg>