<svg xmlns="http://www.w3.org/2000/svg" xml:space="preserve" style="fill-rule:evenodd;clip-rule:evenodd;stroke-linejoin:round;stroke-miterlimit:2" viewBox="10.08 0.8 408.85 107.92"><path style="fill:none;--darkreader-inline-fill:none" d="M-.239-.222h422V110.99h-422z"/><path d="m375.733.798-74.761.027-14.988 107.854 30.214.04 11.094-80.682h40.381c12.486 0 22.089 11.037 20.362 23.402l-7.996 57.28 30.306-.04 8.166-58.762C422.12 23.952 401.947.789 375.733.798M130.25 108.699l3.781-27.209-92.837.031 4.995-35.749c1.418-10.157 10.106-17.716 20.361-17.716h74.907L145.238.848l-85.64.028c-21.541.007-39.781 15.89-42.749 37.226L10.28 85.306c-1.72 12.362 7.882 23.393 20.363 23.393h99.607zM156.348.845l-9.473 68.168h30.072l5.721-40.956h49.63c12.487 0 22.09 11.039 20.362 23.404l-4.19 29.992-73.265.024v-.001h-30.062l-3.783 27.223h115.713c10.261 0 18.952-7.566 20.364-17.73l5.703-41.033C286.748 23.972 266.575.809 240.361.818l-84.013.027z" style="fill:#fff;fill-rule:nonzero;--darkreader-inline-fill:#e8e6e3"/></svg>