<svg version="1.1" id="svg2" xmlns="http://www.w3.org/2000/svg" x="0" y="0" viewBox="0 0 607.8 203.3" style="enable-background:new 0 0 607.8 203.3" xml:space="preserve"><style>.st0{fill-rule:evenodd;clip-rule:evenodd;fill:#e98531}</style><g id="layer1" transform="translate(-45.393 -383.076)"><g id="g3172" transform="translate(1 .999)"><path id="path2396" class="st0" d="M203.8 447.8h-49.5s-2-27.3-26.5-27.3c-27.6 0-31.7 28.2-31.8 44.7-.1 16.8.3 46.2 31.8 46.2 23.8 0 26.5-26.3 26.5-26.3h49.5s-4.6 65.2-76 65.2c-67.9 0-83.6-49.6-83.4-85.1.2-35.1 17.5-83.1 83.4-83.1 74 0 76 65.7 76 65.7z"/><path id="path3168" class="st0" d="M211.1 382.1V415h46.4v-32.9h-46.4z"/><path id="path3170" class="st0" d="M211.9 429.9v116.4h45.4v-90.5h13.9l.5 61.3c0 18.9 13.2 29.2 30.9 29.2h36.8v-32.5h-8.9c-7.8 0-12.8-5.6-12.8-10.4v-47.7H334s31.5 83.2 31.5 88.8c0 7.4-10 8.9-10 8.9h-14.3v31.8h27.1s31.3 3.2 43.6-25.7l35.4-103.8h15.9V517c0 22.8 12.5 29.2 31.6 29.2h35.7v-32.5h-10.4c-7.8 0-10.7-5.2-10.7-10.4v-47.7h20.7l31.8 90.5h51.8l38.6-116.4h-44.6l-19.6 72-20-72H509v-36.2h-45.4v36.2h-51.1l-20 72-21.4-72h-53.4v-36.2h-45.5v36.2h-60.3z"/></g></g></svg>