<svg xmlns="http://www.w3.org/2000/svg" viewBox="0 0 512 512"><path fill="#0f4ef0" d="M35 0h188.63c-26.28 5.9-51.31 17.47-72.52 34.11-31.97 24.77-55.34 60.5-64.88 99.82-6.39 27.57-6.38 56.6.07 84.15 6.64 26.81 19.71 51.98 37.66 72.97 22.33 26.36 52.66 45.82 85.89 55.25a180.64 180.64 0 0 0 41.2 6.29c-30.87 53.13-61.77 106.25-92.6 159.41H34.8c-9.54-.98-18.72-5.5-25.04-12.76-5.69-6.14-8.7-14.3-9.76-22.51V35.93c.9-8.91 4.37-17.73 10.78-24.12C17.04 5.01 25.93 1.14 35 0z" style="--darkreader-inline-fill:#0c3ec0"/><path fill="#fff" d="M223.63 0h75.16c68.02 14.43 124.61 71.8 138.25 139.94 6.61 35.2 3.79 72.57-10.44 105.61-4.88 11.66-11.59 22.4-17.79 33.38C363.95 356.59 319.35 434.4 274.38 512H158.45c30.83-53.16 61.73-106.28 92.6-159.41a180.64 180.64 0 0 1-41.2-6.29c-33.23-9.43-63.56-28.89-85.89-55.25-17.95-20.99-31.02-46.16-37.66-72.97-6.45-27.55-6.46-56.58-.07-84.15 9.54-39.32 32.91-75.05 64.88-99.82C172.32 17.47 197.35 5.9 223.63 0m25.6 97.26c-36.68 4.93-66.78 38.83-67.53 75.78-.64 15.32 3.36 30.79 11.41 43.83 11.57 19.29 31.59 33.55 53.88 37.2 15.35 2.48 31.5 1.04 45.84-5.13 16.91-7.62 31.13-21.18 39.22-37.9 8.55-16.86 10.53-36.79 6.11-55.12-5.22-21.72-20.63-40.53-40.46-50.65-14.75-7.91-31.98-10.28-48.47-8.01z" style="--darkreader-inline-fill:#181a1b"/><path fill="#0b0" d="M298.79 0h177.39c9.42.72 18.63 4.75 25.18 11.62 5.88 5.92 9.45 13.86 10.64 22.06v443.98c-1.44 17.78-16.78 32.9-34.52 34.34h-203.1c44.97-77.6 89.57-155.41 134.43-233.07 6.2-10.98 12.91-21.72 17.79-33.38 14.23-33.04 17.05-70.41 10.44-105.61C423.4 71.8 366.81 14.43 298.79 0z" style="--darkreader-inline-fill:#009600"/><path fill="#ff1043" d="M249.23 97.26c16.49-2.27 33.72.1 48.47 8.01 19.83 10.12 35.24 28.93 40.46 50.65 4.42 18.33 2.44 38.26-6.11 55.12-8.09 16.72-22.31 30.28-39.22 37.9-14.34 6.17-30.49 7.61-45.84 5.13-22.29-3.65-42.31-17.91-53.88-37.2-8.05-13.04-12.05-28.51-11.41-43.83.75-36.95 30.85-70.85 67.53-75.78z" style="--darkreader-inline-fill:#ff2553"/></svg>