<svg xmlns="http://www.w3.org/2000/svg" version="1.1" id="Capa_1" x="0" y="0" style="enable-background:new 0 0 512 512" xml:space="preserve" viewBox="46 144.44 420 219.56"><style>.st0{fill:#fff}.st1{fill:#0cb2dd}</style><g id="_x23_ffffffff"><path class="st0" d="M246.5 145.7c14.8-4 32.3 1.7 40.5 15 6.8 10.6 6.9 24.9.4 35.6-3.3 5.6-8.3 10.1-14.1 13.1-15.1 7.8-35.8 4.3-46.3-9.5-8.1-10.2-9.4-25.1-3.3-36.5 4.5-8.8 13.2-15.3 22.8-17.7m6 19c-7.3 1.9-11.3 10.2-9.8 17.2 1 7.1 7.9 12.9 15.2 11.7 8.7-.9 13.8-11 11.2-18.9-1.6-7.1-9.5-12.1-16.6-10zM46 146c9.7 0 19.4-.1 29.1 0 9.9.5 20.4 3.1 27.5 10.4 5.7 5.6 8.2 13.7 8.2 21.6.2 8.4-2.4 17.2-8.4 23.2-7.1 7.2-17.4 10.2-27.3 10.7-9.7.1-19.3 0-29 0C46 190 46 168 46 146m22.2 46.8c4.6-.1 9.4 0 13.6-2.2 8.6-4.1 8.7-18.5.3-23-4.2-2.4-9.2-2.2-13.9-2.1 0 9.1.1 18.2 0 27.3zM135.2 146H170c7.9.2 16.4 2 22 8 5.6 5.9 6.6 14.9 4.5 22.5-1.7 6-6.5 10.5-11.9 13.3 5.2 7.4 10.2 14.9 15.3 22.3h-25.6c-4-6.3-8.3-12.5-12.3-18.8h-4.3V212h-22.5v-66m22.6 18.8v12.5c4.8-.4 9.8.9 14.4-1s4.2-9.4-.5-10.8c-4.6-1.4-9.3-.5-13.9-.7zM316.8 146h21c7.6 9.6 15.4 19 23 28.6v-28.7H383v66h-20c-8-9.9-16-19.9-24-29.8-.1 9.9 0 19.9 0 29.8h-22.2V146zM409 146h56.5v18.2H431v6.5h32.2v16.2H431v6.8h35v18.2h-57V146zM227.5 281.3h54.7v15.2h-18.7v47c-5.7 0-11.4-.1-17.1.1-.2-15.7 0-31.4-.1-47.1H223c1.4-5.1 3-10.2 4.5-15.2zM295.6 281.3c6.6 0 13.1-.1 19.7.1 4.4 13 9.2 25.9 13.8 38.8 4.7-13 9.3-26 14-39h19.2c-8.4 20.9-16.8 41.8-25.3 62.8h-16.2l-25.2-62.7z"/></g><g id="_x23_0cb2ddff"><path class="st1" d="M50.3 269.4c4.7-6.3 13.2-9.4 20.9-7.7 6.8 1.3 12.7 6.3 15.1 12.7 2.2 5.5 1.1 11.5 1.4 17.3h19c0-4.3-.2-8.6.4-12.9 1.1-8.2 7.7-15.3 15.8-17.1 7.2-1.7 15.2.6 20.2 6.2 5.7 6 7.1 15.5 3.7 22.9-3 6.9-10.2 11.9-17.8 12.1-3.6.1-7.2 0-10.8 0v19.2c5.8.3 11.9-.9 17.4 1.4 7.1 2.7 12.3 9.7 12.9 17.3.6 6.1-1.4 12.4-5.8 16.8-4.9 5.2-12.7 7.4-19.6 5.8-7.9-1.6-14.5-8.4-15.8-16.4-.7-4.5-.5-9-.5-13.6h-19c-.2 5.6.8 11.5-1.2 16.9-2.5 7-9.1 12.3-16.4 13.3-6.2 1-12.9-1.1-17.5-5.4-5.2-4.9-7.6-12.5-6.2-19.5 1.6-8.8 9.5-16 18.4-16.6 3.9-.2 7.8 0 11.7-.1v-19.2c-3.9-.1-7.8.1-11.6-.1-8.4-.5-16-6.9-18.1-15-1.9-6.1-.6-13.1 3.4-18.3m10.5 5.5c-4.5 3.5-4.6 10.9-.2 14.5 4.4 3.8 10.6 2 15.9 2.4-.4-5 1.2-10.7-1.9-15.2-3-4.4-9.8-5.2-13.8-1.7m60.5.4c-4.7 4.2-2.6 11-3 16.5 4-.1 8 .4 11.9-.3 6-1.3 9.2-9.1 5.7-14.2-3-5.1-10.5-6.2-14.6-2M87.8 303v19.2h19V303h-19m30.5 30.5c.2 4.2-.6 8.6.5 12.7 1.8 5.8 9.4 8.2 14.3 4.8 5-3.2 5.7-11.3 1-15-4.4-3.9-10.6-2.1-15.8-2.5m-59.9 13.9c2.6 5.7 11.1 6.9 15.3 2.3 4.3-4.3 2.4-10.8 2.8-16.2-3.8.1-7.7-.3-11.5.2-6 1.1-9.7 8.4-6.6 13.7zM212.9 261.2h183.2c-11.3 34.3-22.4 68.6-33.9 102.8-61-.1-122 0-183-.1 11.1-34.2 22.5-68.4 33.7-102.7m14.6 20.1c-1.5 5.1-3.1 10.2-4.5 15.2h23.3c.1 15.7-.1 31.4.1 47.1 5.7-.2 11.4 0 17.1-.1v-47h18.7v-15.2c-18.2 0-36.4-.1-54.7 0m68.1 0c8.4 20.9 16.8 41.8 25.3 62.7h16.2c8.4-20.9 16.8-41.8 25.3-62.8h-19.2c-4.7 13-9.3 26-14 39-4.6-13-9.4-25.8-13.8-38.8-6.7-.3-13.2-.1-19.8-.1z"/></g></svg>