<svg viewBox="258.48 151.17 763.27 465.69" xmlns="http://www.w3.org/2000/svg"><path d="M656.38 151.4c12.94-1.19 26.09 2.23 37.06 9.1 100.16 58.22 200.34 116.4 300.5 174.62 11.67 6.53 20.8 17.46 24.95 30.19 6.4 18.86 1.88 41.14-12.05 55.52-7.77 8.45-18.54 12.97-28.12 18.93-96.98 56.35-193.96 112.67-290.92 169.04-9.27 5.51-20.09 8.42-30.88 8.02-17.09-.47-33.73-9.13-43.99-22.8-7.39-9.69-11.28-21.88-11.29-34.03-.01-116.33.01-232.66-.01-348.99-.1-15.1 5.75-30.21 16.3-41.05 9.99-10.59 23.95-17.33 38.45-18.55m-3.96 141.77c-.5 3.25-.23 6.56-.28 9.83 0 42.34.02 84.69 0 127.03-.24 15.2 7.75 30 19.95 38.89 8.02 5.94 17.92 9.28 27.9 9.28 11.35-.02 22.7.05 34.06-.02 8.92-.09 16.66-8.31 16.37-17.2-.08-8.33-7.11-15.96-15.47-16.47-12.32-.26-24.66.1-36.97-.16-6.37-.14-10.97-6.29-10.87-12.36-.11-26.62.04-53.25-.08-79.87 17.31.04 34.61.06 51.92-.01 1.52-.36 2.04 1.29 2.64 2.31 20.28 38.72 40.67 77.39 60.96 116.11 3.5 7.21 12.83 10.4 20.12 7.27 4.22-1.53 7.1-5.24 8.95-9.18 22.41-42.9 45.06-85.67 67.48-128.56 4.03-7.16.61-17-6.74-20.46-7.31-4.07-17.36-.73-20.98 6.75-18.17 34.75-36.56 69.38-54.64 104.17-2.12-3.1-3.66-6.54-5.42-9.84-16.55-31.45-33.05-62.94-49.6-94.39-2.6-5.02-7.98-8.46-13.67-8.43-20.34-.02-40.68 0-61.02 0 .05-5.95.04-11.9.05-17.85-.03-3.52-.1-7.18-1.65-10.41-2.79-6.3-9.5-10.74-16.45-10.36-7.87.06-15.03 6.28-16.56 13.93zM416.75 320.75c5.72-3.48 13.57-2.54 18.4 2.06 2.59 2.29 3.95 5.53 5.5 8.54 17.44 34.14 35.14 68.16 52.48 102.36 6.32-11.1 11.72-22.7 17.71-33.98 12.43-24.22 24.86-48.44 37.32-72.64 3.52-7.11 12.81-10.49 20.04-7.18 8.05 3.24 11.89 13.61 8 21.35-22.93 44.7-45.89 89.39-68.86 134.07-3.3 6.66-11.59 9.87-18.61 7.75-4.22-1.21-7.78-4.29-9.71-8.21-22.82-44.45-45.68-88.88-68.48-133.33-3.81-7.18-.91-16.89 6.21-20.79zM268.97 340.99c9.92-12.7 25.88-20.56 42.04-20.32 13.32.04 26.64 0 39.97.01 19.69.32 38.6 12.98 46.23 31.16 3.99 8.82 4.08 18.66 3.9 28.16.2 7.22-.13 14.84-3.9 21.23-4.73 8.65-14.37 14.24-24.22 14.17-14.67.02-29.34.03-44-.01-7.88.16-15.18-6.46-15.55-14.38-.92-8.32 6.12-16.52 14.51-16.7 13.57-.21 27.16.23 40.72-.2-.25-5.02.11-10.05-.18-15.06-.65-9.3-9.09-17.29-18.45-17.25-13.36 0-26.72-.01-40.08 0-7.98.11-15.32 5.94-17.67 13.49-1.05 3.13-.85 6.47-.86 9.72.04 18.35 0 36.71.01 55.07-.2 8.93 7.58 17.1 16.54 17.23 22.02.13 44.04-.02 66.07.06 8.04.08 15.14 7.59 14.7 15.65.24 7.95-6.78 15.27-14.73 15.35-22 .04-44.01-.02-66.02.02-19.27-.01-37.95-12.17-45.69-29.85-2.39-5.53-3.83-11.52-3.82-17.56-.01-19.99.02-39.98-.01-59.97-.13-10.83 3.79-21.55 10.49-30.02z" style="--darkreader-inline-fill:#170e0b;fill:#fff"/></svg>