<svg version="1.1" id="Capa_1" xmlns="http://www.w3.org/2000/svg" x="0" y="0" viewBox="0 0 1200 596" style="enable-background:new 0 0 1200 596" xml:space="preserve"><style>.st0{fill:#ff000d}.st1{fill:#fff}.st2{fill:#032561}</style><g id="_x23_ff000dff"><path class="st0" d="M970.5 0c55.3-.3 113.4.8 168.4 3.6 18.1.1 38.6 2.6 50.2 18.2 18.4 19.2 8.5 91.3 10.7 115.1-380.2-47.8-773.2-29.5-1150.1 43.6-41.5 8.9-40.4 49.3-47.9 82.7-1.4-36.7 1.9-77.9 37.8-97.6C334.3 48.9 655 6.1 970.5 0zM1189.3 364.2c4.6-22.3 4.6-45.2 9.1-67.4-2.7 36 4.7 74.8-10 108.6-8 17.7-24.5 34.9-45.5 32.4C770.6 415 402.9 487.5 48.4 596c-23.7 2.7-47-16.7-47-41C.9 522.6.3 490.1.3 457.7c15.8 8.8 34 4.1 50.7 1.4 362.4-63.1 732.1-69.4 1098-46 23.5-4.2 36.2-27.2 40.3-48.9z"/></g><g id="_x23_ffffffff"><path class="st1" d="M569.1 116.6c209.5-6 423.8-11.2 630.8 20.4-1.4 75.9 3.2 152.3-10.6 227.2-4.2 21.6-16.8 44.6-40.3 48.9-365.9-23.4-735.6-17.1-1098 46-16.8 2.7-35 7.4-50.7-1.4-.7-22.7 0-85.4-.3-109.1 1.1-46.6-1.6-94.3 13.6-139 6.5-14.7 20.4-25.9 36.1-29.1 171.3-33.9 344.9-56.7 519.4-63.9m189.4 36.1c-74.6 7.3-125.3 93.2-107.7 163.4 8.5 33.1 43.4 51.6 76.2 47.9 52.4-3.5 93.8-47.7 106.4-96.8 18.1-56.2-7.7-121.2-74.9-114.5m130 19.8c-29.7 22.8-50.8 82.9-7 102.1 9.7 5.8 28.6 4.2 35 12.9 3 13.5-14.5 19-25.1 16.4-13.7-2.2-23.9-11.9-33.1-21.4-11.2 19.3-22.8 38.3-34 57.6 63.9 41.3 164.2 5.7 155.9-78.4-4.7-24.4-31.2-30.4-51.2-37.5-5.2-2.3-4-9.5-.8-13 4.8-5.5 13.1-5.5 19.7-3.9 10 2.3 18.3 8.8 25.4 16.1 9.6-16 18.5-32.3 27.9-48.4-29.3-31-81.4-29-112.7-2.5m-360.4-4c-4.6 21.9-8.8 43.8-13 65.8 12.2 0 24.4-.7 36.7-.7-7.8 44.7-16.2 89.3-24.1 134 20-1.1 40-2.8 60-4.1 9.3-44.7 18.4-89.4 27.7-134.1 11.8-.3 23.6-.7 35.4-.8 4.8-22.9 9.6-45.8 14.2-68.8-45.7 2.8-91.3 5.9-136.9 8.7m541-3.3c-35.6 62.6-70.8 125.4-105.9 188.2 22.9.1 45.8.2 68.6-.1 3.2-7.3 6.8-14.5 10.2-21.7 16 0 31.9.4 47.9.7.3 7.6.1 15.3.2 22.9 22.1.1 44.2 0 66.3 0-4.4-62.4-9.2-124.8-13.8-187.1-24.4-1.2-48.9-1.9-73.5-2.9m-625.7 9.9c-12 67.4-24.3 134.7-36.4 202.1 21.5-1.2 43-3.3 64.5-5.3 11.9-67.5 24.2-134.9 36-202.4-21.3 1.9-42.8 3.3-64.1 5.6m-86.9 9.5c-9.6 15.8-18.1 33-27.4 48.6-.8-15.2-6.4-29.5-10.2-44.1-24.1 2.3-48 5.4-72.1 8 12.1 30.2 25.3 60 37.9 90.1-26.7 38.5-53.9 76.6-80.4 115.2 24-2.5 48-5.2 72-8 11.6-19.5 24.9-38 34.7-58.5.4.1 1.1.3 1.5.4 1.5 18.1 9.3 35.1 13.8 52.6 24.1-3 48.5-4.5 72.4-8.4-14.4-33.7-28.5-67.5-42.6-101.3 24.1-34.2 48.6-68.1 72.5-102.5-24.1 2.3-48.1 5.2-72.1 7.9m-179.4 24c-33.8 6.6-71.5 4.3-101.6 22.8-25.6 16.7-37 46.1-42.8 75-4.9 21.6-10.9 43.3-10.5 65.6-1.1 21.6 10.2 46.1 34.4 47.2 48.1-.1 95.7-12.1 143.6-16.9 3.4-16.9 7.1-33.7 10.3-50.6-38.5 5-76.6 14.6-115.5 16-18.9 2-18.6-13.1-16-27.2 45.1-5.1 90.2-10.1 135.3-15.2 3-16.3 6.1-32.7 8.8-49.1-45.5 5.4-90.9 11.5-136.4 16.7 5.1-16.7 10.2-26.3 28.8-28.3 37.1-5.8 74.7-8.7 111.9-13.8 2.5-16.8 5.3-33.5 7.8-50.2-19.3 2.6-38.7 5.4-58.1 8z"/><path class="st1" d="M744.3 220.3c53.5-8.3 30.3 82.8-11.4 78.6-41.9-4.6-19.8-72.5 11.4-78.6zM1089.4 231.4c.6 0 1.8-.1 2.3-.1-1.9 19.1-1.8 38.3-2.1 57.4-8.6-.1-17.3-.2-25.9-.5 8.3-19 17.1-37.9 25.7-56.8z"/></g><g id="_x23_032561ff"><path class="st2" d="M758.5 152.7c67.2-6.7 93 58.3 74.9 114.6-12.6 49.1-54 93.2-106.4 96.8-32.7 3.7-67.7-14.8-76.2-47.9-17.7-70.4 33.1-156.2 107.7-163.5m-14.2 67.6c-31.2 6.1-53.3 74-11.4 78.6 41.7 4.1 64.9-87 11.4-78.6zM888.5 172.5c31.3-26.5 83.5-28.5 112.6 2.4-9.4 16.1-18.3 32.4-27.9 48.4-7-7.2-15.3-13.8-25.4-16.1-6.6-1.6-14.9-1.6-19.7 3.9-3.2 3.6-4.4 10.7.8 13 20 7.1 46.6 13.1 51.2 37.5 8.3 84.1-92.1 119.7-155.9 78.4 11.2-19.3 22.8-38.3 34-57.6 9.2 9.5 19.4 19.3 33.1 21.4 10.6 2.6 28.1-2.9 25.1-16.4-6.3-8.7-25.3-7.1-35-12.9-43.8-19.1-22.6-79.2 7.1-102zM528.1 168.5c45.6-2.8 91.2-5.9 136.8-8.8-4.6 22.9-9.5 45.9-14.2 68.8-11.8.2-23.6.5-35.4.8-9.2 44.7-18.4 89.4-27.7 134.1-20 1.3-40 3.1-60 4.1 8-44.7 16.3-89.3 24.1-134-12.2 0-24.4.8-36.7.7 4.3-21.8 8.5-43.8 13.1-65.7zM1069.1 165.2c24.5 1.1 49.1 1.8 73.6 2.9 4.7 62.4 9.4 124.8 13.8 187.1-22.1 0-44.2.1-66.3 0-.1-7.6.1-15.3-.2-22.9-16-.3-31.9-.7-47.9-.7-3.4 7.2-7 14.4-10.2 21.7-22.9.3-45.8.2-68.6.1 35-62.9 70.2-125.7 105.8-188.2m20.3 66.2c-8.6 18.9-17.3 37.8-25.7 56.9 8.6.3 17.3.4 25.9.5.2-19.2.2-38.4 2.1-57.4-.6-.1-1.7-.1-2.3 0zM443.4 175.1c21.3-2.3 42.8-3.7 64.1-5.6-11.9 67.5-24.2 134.9-36 202.4-21.5 2-43 4.1-64.5 5.3 12.1-67.4 24.4-134.7 36.4-202.1zM356.5 184.6c24-2.7 48-5.6 72.1-8-23.9 34.4-48.4 68.3-72.5 102.5 14.1 33.8 28.2 67.6 42.6 101.3-23.9 3.9-48.3 5.4-72.4 8.4-4.5-17.5-12.3-34.5-13.8-52.6-.4-.1-1.1-.3-1.5-.4-9.9 20.4-23.1 39-34.7 58.5-24 2.8-48 5.5-72 8 26.5-38.6 53.7-76.8 80.4-115.2-12.5-30.1-25.7-59.8-37.9-90.1 24-2.5 48-5.7 72.1-8 3.7 14.6 9.4 28.9 10.2 44.1 9.3-15.5 17.8-32.7 27.4-48.5zM177.1 208.6c19.4-2.6 38.8-5.4 58.2-8-2.5 16.8-5.3 33.5-7.8 50.2-37.2 5.1-74.8 8-111.9 13.8-18.6 1.9-23.8 11.7-28.8 28.3 45.5-5.2 90.9-11.3 136.4-16.7-2.8 16.4-5.8 32.7-8.8 49.1-45.1 5.1-90.2 10.2-135.3 15.2-2.6 14.1-3 29.2 16 27.2 38.9-1.4 77-11 115.5-16-3.2 16.9-6.9 33.7-10.3 50.6-47.8 4.9-95.5 16.8-143.6 16.9-24.2-1.2-35.5-25.6-34.4-47.3-.5-22.3 5.6-44 10.4-65.5 5.8-28.9 17.2-58.2 42.8-74.9 30-18.6 67.8-16.3 101.6-22.9z"/></g></svg>