<svg version="1.1" id="Capa_1" xmlns="http://www.w3.org/2000/svg" x="0" y="0" viewBox="0 0 900 900" style="enable-background:new 0 0 900 900" xml:space="preserve"><style>.st0{fill:#be202e}.st1{fill:#fbfcfc}</style><g id="_x23_be202eff"><path class="st0" d="M0 0h900v900H0V0m333.4 258.3c-8.9 2.2-4.5 10.1 0 14.5 22.3-4.7 43.7-13.8 65.7-19.7 12.4-2.2 4.1-16.1-2-21-21.3 8.7-42.4 17.7-63.7 26.2m187.4-3.5c-12.5 25-29.1 48.3-45.3 71.3-15.6-22.5-30.8-45.4-44.8-68.9-4.2-6.4-14.1-4.1-20.5-3.4-9.6 7.3 2.8 16.5 6.4 23.5 13.6 21.1 28.6 41.2 42 62.5-19.8 27.1-35.5 57.8-58.1 82.6-38 24.8-73.2-10.6-73.2-50.1 32.8-3.5 65.7-7.6 98.5-11.1 2-.3 4.9-1.1 4.8-3.6 4.4-41.5-22.3-85.7-68.5-77.8-75.9 13.7-76.1 150.4-.7 165 15.3 2.4 31.3 0 45-7.2 8.9-2.7 11.6.9 16.7-9.8 13.2-25.4 30.6-48.4 46.7-72.1 14.1 20.7 27.4 42 41.2 62.9 7.7 14.3 8.4 20 26.5 17.7 5.2-1.2 7.4-8.3 4.4-12.6-17.8-27.8-37.1-54.7-54.6-82.7 16.3-23.4 30.8-48 47.9-70.8 12.8-14.4-.5-21-14.4-15.4m69.7 27.6c-33 34.9-11.4 115.9 45 98.6 22.9 103.6 139 62.8 122.5-32.9-18.7-94.5-129.3-69.1-123.9 21.8-26.1 12.4-46.4-17.3-45-41-.2 2-.5 4.1-.7 6.1.1-20.3 3.4-47.4 25.6-55 11.9-3.9 20.7 5 30 10.5 20.6-11.6-27.5-38.2-53.5-8.1m-409.2-.1c-12.3 7.7-10.8 44.5-15.1 59.4-5 31.4-9.4 63-14.7 94.4 0 7.4 11.4 6.8 12.7.4 5.4-42.9 12.1-85.8 18.8-128.5 53.7 140.2 32.4 146 85.9 1.1 5.4 38.6 9.9 77.3 14.7 116 1.4 5.5 1.1 15.7 8.3 16.4 5.5 1 12.3-1.4 10.1-8.2-7.9-45.5-12-91.8-18.5-137.6-1-7.2-6.2-15.7-14.5-15.1-2.7-.4-4.3 2.1-5.1 4.4-12 32.6-22.5 65.8-35 98.2-13.3-33.6-24.2-68.1-37.4-101.7-3.4-.6-7.1-1.1-10.2.8m374.1 1.2c-14.2 5.3-3.6 27 9.2 18.2 9.4-6.5 1.8-22-9.2-18.2m1 40c-2.8.3-4.7 2.9-4.8 5.6 1.6 34.9.1 69.9.8 104.8-.2 4.7 5 5.3 8.6 4.7 3.6.4 5-3.7 4.9-6.6.1-34 0-68.1 0-102.1.8-6.7-4.1-7.5-9.5-6.4M400.6 465.6c-11.2 34.7-26.1 68.2-38.7 102.4-1.2 2.3-.8 4.8.9 6.6 8.6.7 8.5-1.2 10.1-8.9 4.3-10.1 6.8-21.4 12.2-30.9 14.1.2 28.7-1.1 42.5.4 5.2 12.8 10.1 26 14.4 39.1 7.3.5 14.8 1.6 10-8.3-12.1-31.2-24.2-62.5-36.3-93.7-2.2-6.5-9-7.8-15.1-6.7m73.4-.2c-.5 1.8-1.1 3.7-.3 5.5 12.5 34.2 22.5 69.6 36.1 103.2 3.2 2.7 9.6 2 10.9-2.5 9.8-35.4 24.9-70.4 31.8-106.2-2.3-.2-4.7-.4-7 0-12 29.5-18.8 61.7-29.5 91.9-10.3-30.7-21.7-61-31.3-91.9-3.6 0-7.1-.1-10.7 0m117 1.6c-2 33.8-.1 68.1-.7 102.1-.2 2.7 1.8 5.9 4.8 5.7 20.6 0 41.2.1 61.8-.1 4.5-13.5-6.8-8.3-14.8-8.4-13.5-.2-27 .2-40.4-.2v-43.7c14.9-.8 30.1 1.4 44.7-1 3.5-2 2-8.4-2.3-7.9-14.1 0-28.3.1-42.4 0 0-13.2-.2-26.4.1-39.7 13.1-.2 26.2 0 39.4-.1 7.2.4 17.5 3.5 13.3-8.1-18.5-.6-36.9-.1-55.4-.3-2.8.2-6.1-.6-8.1 1.7m108.5-1.4c-1.5.3-2 2.1-2.1 3.5.3 24 .1 48 .1 71.9-1.8 34.3 29.9 43.3 54.4 23.8 2.6-1.6 1.5-5.2 1.7-7.7.5-2.9-3.4-5.4-5.4-3-17.5 19.8-41.2 14.7-39.4-14.1-.7-24.4.9-49.3-.4-73.3-2.3-2.2-6.1-1.3-8.9-1.1m-548.1 9.1c10.7-1 21.4-1.3 32.2-.9 0 32.1.1 64.2 0 96.2 0 1.8 1.4 3.1 2.2 4.6 3.2-.2 7.7 1 9.4-2.8.2-32.7-.1-65.4.1-98 10.7-.5 21.5-.1 32.2.5 1.6-6.1-3.8-10-9.5-9.1-20 .1-40-.1-60 .1-4.9-.2-7.8 5-6.6 9.4m106.9-3.7c.2 34.1-.5 68.3.3 102.4 8 3.5 12.4.3 11.1-8.4-.2-13.1-.2-26.2 0-39.3 15-1.7 21.8 2.9 28.9 15.8 9.9 11 19.5 44.1 38.6 31.9-2.9-1.8-6-3.5-7.9-6.5-9.3-14.1-19.7-27.5-28.4-41.9 30.1-.1 39.1-42.1 12.8-55.4-11.3-5.7-24.3-3.9-36.5-4.2-6.1 1.1-19.2-3.9-18.9 5.6m-97.4 130.9c-11.1 10.5-10.1 32.8 2.8 41.5 10.7 5.9 23.7-1.3 25.2-13.3-1.7-.3-3.5-.7-5.2-1-10.6 26.2-30.6 2-21.9-18.4 5.8-12.5 18.2-8.7 22 3.1l5.1-.9c-1.6-13.7-17.6-19.4-28-11m405.6-3.4c-.5 11.9.3 23.8-.4 35.7-4.7-7.2-8.9-14.7-13.4-22-4.1-6.1-6-15.9-15.2-13.5-.1 15.2-.1 30.5 0 45.8h4.7c.2-12.7-.2-25.4.3-38 8.2 12.4 15 25.8 23.2 38.2 1.8-.1 3.7-.2 5.5-.3.1-14.5.2-28.9 0-43.4.4-2.8-2.9-2.1-4.7-2.5m-316.8.7c.1 15.1 0 30.2 0 45.2 2 0 4 .1 6 .1.2-7.3-.1-14.6.2-21.8 6.9 0 13.8-.2 20.7.1.2 7.2-.2 14.5.3 21.7 1.9 0 3.7 0 5.6-.1.2-15.2.1-30.4.1-45.6-1.9-.1-3.9-.2-5.8-.3-.2 6.3 0 12.5-.2 18.8-6.9.1-13.7 0-20.6 0-.5-6.3 0-12.6-.3-18.9-2.1.3-4.1.5-6 .8m106.4 3c-4.4 14-9.5 27.9-13.3 42.2 1.5.1 3 .1 4.5.2 1.5-4.4 2.8-8.8 4.2-13.2 5.5-.1 11.1 0 16.6 0 1.6 4.4 3.1 8.9 4.8 13.3 1.8-.1 3.6-.1 5.4-.2-4.3-15.3-8.7-31.3-15.2-45.7-3.4-.5-6.5-.4-7 3.4m82.7-3.5c-.2 15.3 0 30.5-.1 45.8h4.8c0-12.9.3-25.8-.1-38.6 8.2 12.7 15.2 26.1 23.5 38.8 1.8 0 3.5-.1 5.3-.1-.1-15.3.6-30.6-.3-45.8-1.5 0-2.9.1-4.3.2-.2 11.7 0 23.3 0 35-7.9-10.5-13.5-22.6-20.7-33.5-1.9-3-5.5-1.5-8.1-1.8m197.7 0c-.2 15.3-.1 30.5 0 45.8 9.7.1 19.3-.1 29 .1.6-1.7.8-3.4.7-5.2-7.9-.4-15.9.4-23.8-.5v-15.5c6.1-.2 12.2.4 18.2-.5 0-1.5 0-3 .1-4.5-6.1-.2-12.1.1-18.2-.2-.1-4.6-.1-9.2 0-13.8 7.7-.2 15.4 0 23-.1v-5.6c-9.7-.1-19.3 0-29 0m91.8 0c-.2 15.3-.1 30.5 0 45.8h26.5v-5.2c-6.8-.2-13.6.1-20.4-.2-.3-13.5.4-26.9-.4-40.4h-5.7z"/><path class="st0" d="M351.9 299.8c30.7-19.2 64.1 15.8 58.7 47.3-27.8 3.1-55.4 7.8-83.3 10.6.4-21 6.4-45.2 24.6-57.9zM687.7 303.8c59.6-10.2 69.1 89.9 28.6 117.3-17.9 13.8-42.4 3.4-52.4-14.9-19.2-31.8-15-87.7 23.8-102.4zM269.6 474.2c12.2-.7 25.8-2.2 37.2 3 11.8 6.4 13.8 23.6 4.7 33.2-10.8 10.4-28.2 5.1-41.8 6.1-.2-14.1-.1-28.2-.1-42.3zM399.9 493.7c1.9-4.6 3.4-9.5 5.8-13.9 6.3 15.3 12.3 30.8 18.1 46.3-12 .2-24.1.2-36.1 0 3.6-10.9 8.1-21.5 12.2-32.4zM353.1 626.5c2.1-6.8 4.2-13.6 6.9-20.2 2.5 6.6 4.4 13.5 6.7 20.3-4.5.1-9 .1-13.6-.1z"/></g><g id="_x23_fbfcfcff"><path class="st1" d="M333.4 258.3c21.3-8.6 42.4-17.6 63.7-26.2 6.1 4.9 14.4 18.8 2 21-22.1 5.9-43.4 15-65.7 19.7-4.5-4.3-8.9-12.3 0-14.5zM520.8 254.8c13.8-5.7 27.2.9 14.6 15.6-17.1 22.7-31.7 47.4-47.9 70.8 17.5 28 36.8 54.8 54.6 82.7 3 4.2.8 11.4-4.4 12.6-18.2 2.3-18.8-3.3-26.5-17.7-13.8-20.9-27.1-42.2-41.2-62.9-16.1 23.7-33.5 46.7-46.7 72.1-5 10.6-7.8 7.1-16.7 9.8-13.7 7.2-29.8 9.6-45 7.2-75.4-14.5-75.2-151.3.6-165 46.2-7.8 72.9 36.3 68.5 77.8.1 2.5-2.9 3.2-4.8 3.5-32.9 3.5-65.7 7.6-98.5 11.1 0 39.5 35.2 74.9 73.2 50 22.7-24.8 38.3-55.5 58.1-82.6-13.3-21.2-28.3-41.4-42-62.5-3.6-7-16-16.2-6.4-23.5 6.4-.7 16.4-3 20.5 3.4 14.1 23.5 29.3 46.3 44.8 68.9 16.1-23 32.8-46.3 45.2-71.3m-168.9 45c-18.2 12.6-24.2 36.9-24.6 57.9 27.8-2.8 55.5-7.5 83.3-10.6 5.4-31.5-28.1-66.4-58.7-47.3zM590.5 282.4c26.1-30.2 74.1-3.5 53.5 8.2-9.2-5.5-18.1-14.4-30-10.5-22.2 7.6-25.5 34.7-25.6 55 .3-2 .5-4.1.7-6.1-1.4 23.7 18.9 53.4 45 41-5.4-91 105.2-116.3 123.9-21.8 16.5 95.7-99.7 136.5-122.5 32.9-56.5 17.3-78.1-63.8-45-98.7m97.2 21.4c-38.8 14.6-43 70.6-23.8 102.4 10 18.3 34.5 28.8 52.4 14.9 40.4-27.4 31-127.5-28.6-117.3z"/><path class="st1" d="M181.3 282.3c3.1-1.9 6.8-1.4 10.1-.9 13.2 33.6 24.1 68.1 37.4 101.7 12.5-32.4 23-65.6 35-98.2.7-2.2 2.4-4.7 5.1-4.4 8.3-.6 13.5 7.9 14.5 15.1 6.6 45.8 10.6 92.1 18.5 137.6 2.3 6.5-4.7 9.3-10.1 8.2-7.2-.7-6.9-11-8.3-16.4-4.8-38.7-9.4-77.4-14.7-116-53.6 145.6-32.3 138.2-85.9-1.1-6.7 42.8-13.4 85.6-18.8 128.5-1.3 6.5-12.7 7.1-12.7-.4 5.3-31.4 9.7-62.9 14.7-94.4 4.5-14.9 3-51.6 15.2-59.3zM555.4 283.5c11-3.8 18.6 11.7 9.2 18.2-12.8 8.8-23.4-12.9-9.2-18.2zM556.4 323.5c5.3-1.1 10.5-.2 9.4 6.4V432c1.3 9.2-13.8 8.8-13.5 1.9-.7-34.9.8-69.9-.8-104.8.1-2.6 2-5.3 4.9-5.6zM400.6 465.6c6-1 12.9.2 15 6.8 12.1 31.2 24.2 62.5 36.3 93.7 4.8 9.8-2.6 8.9-10 8.3-4.3-13-9.2-26.2-14.4-39.1-13.8-1.5-28.4-.2-42.5-.5-5.4 9.5-7.8 20.8-12.2 30.9-1.6 7.6-1.6 9.5-10.1 8.9-1.7-1.9-2.1-4.4-.9-6.6 12.7-34.2 27.6-67.7 38.8-102.4m-.7 28.1c-4 10.8-8.5 21.5-12.2 32.4 12 .2 24.1.2 36.1 0-5.8-15.5-11.8-31-18.1-46.3-2.5 4.5-3.9 9.3-5.8 13.9zM474 465.4c3.5-.1 7.1 0 10.6.1 9.6 30.9 21 61.2 31.3 91.9 10.7-30.2 17.6-62.4 29.5-91.9 2.3-.4 4.7-.2 7 0-7 35.8-22 70.7-31.8 106.2-1.3 4.5-7.6 5.1-10.9 2.5-13.6-33.6-23.6-69.1-36.1-103.2-.7-1.9-.1-3.8.4-5.6zM591 467c2-2.3 5.3-1.5 8-1.7 18.5.2 36.9-.3 55.4.3 4.2 11.6-6.1 8.5-13.3 8.1-13.1.1-26.2-.1-39.4.1-.2 13.2-.1 26.5-.1 39.7H644c4.3-.5 5.8 5.9 2.3 7.9-14.7 2.3-29.9.2-44.7 1v43.7c13.5.5 26.9 0 40.4.2 8 .1 19.3-5.1 14.8 8.4-20.6.2-41.2.1-61.8.1-3 .3-5-3-4.8-5.7.7-34-1.3-68.3.8-102.1zM699.5 465.6c2.9-.2 6.6-1.1 8.9 1.1 1.3 24-.3 49 .4 73.3-1.8 28.8 21.9 33.9 39.4 14.1 2-2.4 5.9.1 5.4 3-.2 2.6.9 6.1-1.7 7.7-24.5 19.5-56.2 10.5-54.4-23.8 0-24 .1-48-.1-71.9 0-1.4.6-3.2 2.1-3.5zM151.4 474.7c-1.2-4.3 1.7-9.6 6.5-9.3 20-.1 40 0 60-.1 5.6-1 11.1 3 9.5 9.1-10.7-.7-21.4-1-32.2-.5-.3 32.7 0 65.4-.1 98-1.6 3.8-6.1 2.5-9.4 2.8-.9-1.5-2.3-2.8-2.2-4.6.1-32.1.1-64.2 0-96.2-10.6-.6-21.4-.2-32.1.8zM258.3 471c-.3-9.5 12.8-4.5 18.7-5.7 12.2.3 25.2-1.5 36.5 4.2 26.3 13.3 17.3 55.3-12.8 55.4 8.8 14.4 19.1 27.8 28.4 41.9 1.9 3 5 4.7 7.9 6.5-19 12.2-28.6-21-38.6-31.9-7-12.9-14-17.5-28.9-15.8-.2 13.1-.1 26.2 0 39.3 1.3 8.7-3 11.9-11.1 8.4-.6-34 .1-68.2-.1-102.3m11.3 3.2c0 14.1-.1 28.2 0 42.3 13.6-1 31.1 4.3 41.8-6.1 9.1-9.6 7.1-26.8-4.7-33.2-11.3-5.2-24.9-3.7-37.1-3zM160.9 601.9c10.4-8.4 26.5-2.7 28 11l-5.1.9c-3.8-11.8-16.2-15.6-22-3.1-8.7 20.3 11.3 44.7 21.9 18.4 1.7.3 3.5.6 5.2 1-1.5 11.9-14.5 19.1-25.2 13.3-12.9-8.7-14-31-2.8-41.5zM566.5 598.5c1.7.3 5.1-.4 4.8 2.4.2 14.5.1 28.9 0 43.4-1.8.1-3.7.2-5.5.3-8.2-12.5-15-25.8-23.2-38.2-.5 12.7 0 25.4-.3 38h-4.7c-.1-15.2-.1-30.5 0-45.8 9.2-2.3 11.2 7.4 15.2 13.5 4.5 7.3 8.6 14.8 13.4 22 .6-11.7-.2-23.7.3-35.6zM249.7 599.2c2-.4 4-.5 6-.6.3 6.3-.2 12.6.3 18.9h20.6c.1-6.3-.1-12.5.2-18.8 1.9.1 3.9.2 5.8.3 0 15.2.1 30.4-.1 45.6-1.9 0-3.8 0-5.6.1-.5-7.2-.1-14.5-.3-21.7-6.9-.3-13.8-.1-20.7-.1-.2 7.3 0 14.6-.2 21.8-2 0-4-.1-6-.1-.1-15.2 0-30.3 0-45.4zM356.1 602.2c.6-3.8 3.7-4 6.9-3.5 6.5 14.4 10.9 30.4 15.2 45.7-1.8.1-3.6.1-5.4.2-1.7-4.4-3.2-8.9-4.8-13.3-5.5 0-11-.1-16.6 0-1.4 4.4-2.6 8.9-4.2 13.2-1.5-.1-3-.1-4.5-.2 3.8-14.1 8.9-28 13.4-42.1m-3 24.3c4.5.2 9.1.2 13.6.1-2.3-6.7-4.2-13.6-6.7-20.3-2.6 6.6-4.8 13.4-6.9 20.2zM438.8 598.7c2.6.3 6.3-1.2 7.9 1.6 7.2 11 12.8 23 20.7 33.5.1-11.7-.1-23.3 0-35 1.4-.1 2.9-.1 4.3-.2.9 15.2.2 30.5.3 45.8-1.8 0-3.5.1-5.3.1-8.3-12.6-15.2-26.1-23.5-38.8.4 12.9.1 25.8.1 38.6h-4.8c.2-15.1 0-30.3.3-45.6zM636.5 598.7c9.6 0 19.3-.1 28.9 0v5.6c-7.7.1-15.4-.1-23 .1-.1 4.6 0 9.2 0 13.8 6 .3 12.1 0 18.2.2 0 1.5-.1 3-.1 4.5-6 .9-12.1.3-18.2.5v15.5c7.9 1 15.9.1 23.8.5.2 1.8-.1 3.5-.7 5.2-9.7-.2-19.4 0-29-.1 0-15.3-.1-30.5.1-45.8zM728.3 598.7h5.7c.8 13.4 0 26.9.4 40.4 6.8.3 13.6 0 20.4.2v5.2c-8.8 0-17.6-.1-26.5 0-.1-15.3-.2-30.5 0-45.8z"/></g></svg>