<svg xmlns="http://www.w3.org/2000/svg" style="enable-background:new 0 0 774.1 188.1" xml:space="preserve" viewBox="0.1 -0.2 774 188.4"><path d="M427.6 11.9c33.8-18.3 81.7-16.5 110.8 9.9-7.9 14.2-15.6 28.4-23.5 42.6-13.4-13.4-40.6-26.7-56.6-11.1-8.8 16.6 18.7 17.7 28.3 23.3 28.9 11.1 45.6 37.3 33.5 67.6-21 55.8-112.3 55.1-148.8 15.8 9-16 17.9-32.1 27-48.1 7.9 13.7 21.2 24.5 36.8 27.8 10.1 2.5 28.1 2.3 28.5-11.6-.7-5-5.7-7.6-9.8-9.6-25.8-9.2-58-19.3-57-52.6-22.5 39.5-45.2 79-67.8 118.5h-65.4c-6.7-44.5-12.4-89.2-19.5-133.6-8 44.5-15.7 89-23.6 133.5h-57.1c6.1-34.8 14.7-69.6 19.4-104.4-19 34.1-35.6 69.8-53.8 104.4H87.6c-6.2-34.4-9-70.9-17-104.2-5.4 34.7-10.4 69.5-15.6 104.2H.1c10.5-59.8 21-119.6 31.6-179.4 24.9 0 49.8.1 74.7-.1 5.5 32.8 10.5 65.8 15.9 98.6 17.7-31.2 31.4-66.1 47.8-98.5h130.8c3.3 37.5 4.3 75.7 8.7 112.9 18.2-37.6 36.1-75.3 54.3-112.9h67.7c-1.4 2.4-2.7 4.7-4 7z" style="fill:#fff"/><path d="M565.1 23h46.4c-1.3 8.2-2.7 16.4-4.1 24.6h68.4c2.3 25.2 1.9 51.3 5.6 76 10.8-25.3 21.6-50.7 32.4-76h60.3c-24.9 45.6-49.8 91.2-74.8 136.8H640c-5.3-33.7-10.6-67.5-15.9-101.2h-21.9c-2.4 14-4.7 28-7 42-4.1 18.5 3.3 22.4 20.4 18.1-2.3 13.5-4.2 27-6.8 40.5-16.7 5.7-36.4 6.3-52.7-.8-17.4-7.8-19-28.7-15.5-45.1 3-18.2 6.1-36.4 9.1-54.6h-19c11.5-20.1 22.9-40.2 34.4-60.3z" style="fill:#78d1c4"/></svg>