<svg xmlns="http://www.w3.org/2000/svg" version="1.1" id="svg3100" x="0" y="0" style="enable-background:new 0 0 567.2 559" xml:space="preserve" viewBox="-0.04 0.2 567.15 558.8"><style>.st0{fill:#fff}</style><g id="g4"><path id="path3113" class="st0" d="M283.6 43.3C274.8 21.2 253.2-2.6 212.9.7c-51.4 5.6-67.4 54.8-59.6 84.2C132.8 71 98 64.9 67.6 91c-39.2 39.3-18.2 92.5 3.3 105.2C47.1 194 9.6 210 1.2 252c-8.8 52.2 30.9 82.6 69.6 82.6h429.3c44.8 0 69.6-38.7 66.8-75.2-4.4-47.7-48-66-71.8-62 19.9-11.1 46.4-63.2 6.1-104.1-32-30.5-72.9-19.4-87.3-6.1 7.7-25.5-5-78.1-56.9-86.4-3.6-.4-7-.6-10.3-.6C307 0 289.2 29 283.6 43.3"/><path id="path3115" d="M74.7 99.2c-22.7 20.5-30.9 67 9.9 94.2l163 111.8-79-181.1c-16.5-42.7-61.9-52-93.9-24.9" style="fill:#f37021"/><path id="path3117" d="M215 11.2c-26.5.5-66.3 32.1-48.6 80.3l81.7 192.8 28.7-202.8c6.7-50.4-31.4-73.7-61.8-70.3" style="fill:#cc004c"/><path id="path3119" d="M289.7 73.7h15.5s8.3 0 9.4 3.9c-6.1 5-22.6 5.6-20.4 32.1l26 174.4 81.2-193.3c16.4-43-18.4-79.1-49.4-80.2-1.4-.1-2.9-.2-4.4-.2-27.7 0-59.5 20.2-57.9 63.3" style="fill:#6460aa"/><path id="path3121" d="m397.9 125.8-76.8 178.9L484 192.3c37.6-26.6 31.5-69.2 10.5-90.3-8.8-9.9-25-17.6-42.1-17.6-20.2 0-41.9 10.8-54.5 41.4" style="fill:#0089d0"/><path id="path3123" d="m465.9 217.7-153 106.9h188.4c38.7 0 63.5-39.9 52.5-76.4-7.4-23-29.3-41-54.7-41.1-10.8 0-22.1 3.2-33.2 10.6" style="fill:#0db14b"/><path id="path3125" d="M70.3 324.6H256L102.9 217.7C67.5 195 27.8 208.3 13.4 246c-12.2 43.2 18.2 78.6 56.9 78.6" style="fill:#fcb711"/><path id="path3127" class="st0" d="M275.9 470.9h34.4c7.9.5 21.9 7.4 21.9 23.8 0 17.1-14.6 24-22.5 24.8h-33.9v-48.6m-.4-76.3h28.3c9.7.5 21.1 7.7 21.1 21 0 13-8.7 21.7-19.9 23.3h-29.6l.1-44.3m-38.8-31.7v188.2h91.3c21.7 0 47.4-21.7 47.4-50.1 0-29.7-19.4-44.2-31.6-50.1 0 0 22.4-13 21.5-41.2-1-37.9-36-46.8-48-46.8h-80.6"/><path id="polygon3129" class="st0" d="M96.5 551.1V442.7l118.4 115.6V362.9h-39.8v105.6L56.7 355.3v195.8z"/><path id="path3131" class="st0" d="M381.8 455c1 59.5 43.8 104 98.7 104 13 0 26.8-2.5 40.8-7.9v-38.3c-11.1 6.8-23.5 10.1-35.6 10.1-33.3 0-64.7-24.6-63.4-69.4 2.2-36.3 32-61.4 64-61.4 11.7 0 23.8 3.4 35 10.8v-37.3c-13-5.3-25.9-7.6-38.4-7.6-54.8-.1-100.1 46.1-101.1 97"/></g></svg>