<svg xmlns="http://www.w3.org/2000/svg" viewBox="45.68 226.04 520.64 339.92"><path d="M65.004 226.04h113.464c-40.256 21.105-67.887 63.34-67.887 111.72 0 48.381 27.631 90.616 67.888 111.722-67.451-19.074-120.036-67.16-121.087-215.82-.029-4.193 3.43-7.623 7.622-7.623zm229.77 0h25.365c70.132 45.32 105.305 118.215 99.486 223.442H294.774c40.256-21.106 67.887-63.34 67.887-111.721s-27.63-90.616-67.887-111.722zm37.554 0h14.688c70.26 50.475 134.532 112.965 160.863 223.442h-64.52c-2.301-121.21-48.819-182.739-111.031-223.443zm27.926 0h9.628c94.15 45.347 158.71 118.054 196.164 215.82 1.5 3.915-3.43 7.622-7.622 7.622H529.14c-30.285-102.152-88.323-174.779-168.886-223.443z" style="fill:#1368a9;fill-rule:evenodd;--darkreader-inline-fill:#6cb7ee"/><path d="M236.621 226.04c61.447 0 111.722 50.274 111.722 111.72 0 61.447-50.275 111.722-111.722 111.722-61.447 0-111.721-50.275-111.721-111.721 0-61.447 50.274-111.722 111.721-111.722zm0 46.132c36.074 0 65.589 29.515 65.589 65.588 0 36.075-29.515 65.59-65.589 65.59s-65.588-29.515-65.588-65.59c0-36.073 29.514-65.588 65.588-65.588z" style="fill:#f59421;fill-rule:evenodd;--darkreader-inline-fill:#f69d33"/><path d="M56.123 558.29c-3.748-3.17-6.422-7.421-8.045-12.797-1.6-5.353-2.4-10.931-2.4-16.734 0-4.746.663-9.492 2.012-14.238 1.325-4.745 3.428-8.681 6.285-11.853 4.64-5.263 10.628-8.39 17.941-9.356 7.337-.968 13.942-.405 19.839 1.709 6.765 2.631 11.77 7.22 14.993 13.72 3.04 5.78 4.548 12.55 4.548 20.288 0 5.623-.617 10.458-1.874 14.485-1.257 4.048-2.857 7.49-4.823 10.3-4.273 5.781-9.736 9.38-16.341 10.797-5.897 1.574-11.816 1.71-17.804.405-5.988-1.327-10.765-3.576-14.33-6.725zm12.822-46.4c-3.748 4.048-5.44 10.076-5.074 18.061.343 7.985 1.874 13.563 4.549 16.734 1.074 1.417 2.948 2.587 5.622 3.554 2.674.967 5.394 1.057 8.16.27 2.765-.788 5.233-2.767 7.382-5.938 2.125-3.15 3.29-8.255 3.474-15.272 0-6.343-1.029-11.089-3.086-14.238-2.057-3.171-4.411-5.195-7.085-6.072-2.674-.878-5.371-.923-8.045-.135-2.674.81-4.64 1.821-5.897 3.036zM114.79 564.611v-34.03c0-6.86 1.028-12.618 3.085-17.274 2.057-4.678 4.869-8.412 8.457-11.224 3.405-2.631 7.382-4.565 11.93-5.802 4.548-1.238 9.234-1.845 14.056-1.845h2.697v18.758h-6.17c-5.189 0-9.028 1.238-11.52 3.69-2.491 2.473-3.748 6.32-3.748 11.605v36.122zM166.053 558.29c-3.749-3.17-6.423-7.421-8.045-12.797-1.6-5.353-2.4-10.931-2.4-16.734 0-4.746.662-9.492 2.011-14.238 1.326-4.745 3.428-8.681 6.285-11.853 4.64-5.263 10.628-8.39 17.942-9.356 7.336-.968 13.941-.405 19.838 1.709 6.765 2.631 11.77 7.22 14.993 13.72 3.04 5.78 4.548 12.55 4.548 20.288 0 5.623-.617 10.458-1.874 14.485-1.257 4.048-2.857 7.49-4.823 10.3-4.273 5.781-9.736 9.38-16.341 10.797-5.897 1.574-11.816 1.71-17.804.405-5.988-1.327-10.765-3.576-14.33-6.725zm12.821-46.4c-3.748 4.048-5.44 10.076-5.073 18.061.342 7.985 1.874 13.563 4.548 16.734 1.074 1.417 2.948 2.587 5.622 3.554 2.674.967 5.394 1.057 8.16.27 2.765-.788 5.233-2.767 7.382-5.938 2.125-3.15 3.29-8.255 3.474-15.272 0-6.343-1.029-11.089-3.086-14.238-2.057-3.171-4.41-5.195-7.085-6.072-2.674-.878-5.371-.923-8.045-.135-2.674.81-4.64 1.821-5.897 3.036zM287.636 564.611h-18.513v-44.826c0-4.206-1.28-7.288-3.862-9.222-2.583-1.934-5.486-2.902-8.686-2.902s-6.033.968-8.525 2.902c-2.49 1.934-3.748 5.016-3.748 9.222v44.826h-18.787v-41.093c0-11.943 3.177-19.95 9.508-23.976 6.354-4.049 13.37-6.23 21.05-6.59 4.114 0 8.136.45 12.067 1.327 3.931.877 7.497 2.631 10.72 5.263 2.673-2.294 5.85-3.914 9.507-4.88 3.657-.968 7.45-1.53 11.382-1.71 7.862 0 15.107 2.024 21.713 6.05 6.605 4.049 9.919 12.213 9.919 24.516v41.093h-9.394c-2.674 0-4.868-.832-6.56-2.497-1.713-1.686-2.56-3.823-2.56-6.477v-35.852c0-4.206-1.302-7.288-3.884-9.222-2.606-1.934-5.509-2.902-8.731-2.902-3.223 0-6.125.968-8.73 2.902-2.584 1.934-3.886 5.016-3.886 9.222v3.688zM379.505 529.389c-2.514 1.237-5.988 2.361-10.468 3.418-4.114.878-6.17 1.327-6.17 1.327-3.223.878-5.555 2.025-6.994 3.42-1.257 1.934-1.874 3.868-1.874 5.802 0 2.632.8 4.746 2.422 6.32 1.6 1.417 3.931 2.115 6.971 2.115 5.005 0 8.96-1.417 11.816-4.229 2.857-2.811 4.297-6.657 4.297-11.583zm4.274 32.343a33.582 33.582 0 0 1-11.93 3.576c-4.206.428-7.909.653-11.131.653-6.445 0-12.068-1.71-16.89-5.151-4.823-3.419-7.245-9.087-7.245-17.004 0-7.4 2.194-12.663 6.582-15.834 4.365-3.172 9.965-5.286 16.753-6.343.891 0 1.966-.113 3.223-.382a43.164 43.164 0 0 1 4.296-.675c7.863-1.035 11.794-3.329 11.794-6.838 0-2.654-1.394-4.363-4.16-5.15-2.765-.788-5.303-1.192-7.634-1.192-2.49 0-4.73.36-6.696 1.08-1.966.719-3.383 2.068-4.274 4.048h-17.942c.709-5.466 3.2-9.964 7.497-13.495 4.822-4.049 11.702-6.073 20.615-6.073 10.011 0 17.508 1.664 22.513 5.015 5.188 3.51 7.77 8.435 7.77 14.755V536.7c0 7.04-1.302 12.528-3.885 16.486-2.605 3.936-5.69 6.793-9.256 8.547zM400.254 564.611v-34.03c0-6.86 1.029-12.618 3.085-17.274 2.058-4.678 4.869-8.412 8.457-11.224 3.405-2.631 7.382-4.565 11.93-5.802 4.549-1.238 9.234-1.845 14.056-1.845h2.697v18.758h-6.17c-5.189 0-9.028 1.238-11.52 3.69-2.49 2.473-3.748 6.32-3.748 11.605v36.122z" style="fill:#1368a9;fill-rule:evenodd;--darkreader-inline-fill:#6cb7ee"/><path d="M495.363 564.611c-5.897.36-12.273.27-19.153-.27-6.879-.517-10.33-4.836-10.33-12.91v-77.507h9.668c2.308 0 4.365.877 6.17 2.631 1.783 1.754 2.675 3.846 2.675 6.32v11.831h10.97v3.711c0 2.632-.891 4.791-2.674 6.455-1.783 1.687-3.931 2.52-6.422 2.52h-1.874v38.978c0 2.992 1.782 4.476 5.348 4.476h5.622zM540.822 564.611h-19.015l-24.913-70.175h19.816l14.193 49.325 12.593-42.982c1.44-4.229 4.297-6.343 8.571-6.343h13.919z" style="fill:#f59421;fill-rule:evenodd;--darkreader-inline-fill:#f69d33"/></svg>