<svg xmlns="http://www.w3.org/2000/svg" style="shape-rendering:geometricPrecision;text-rendering:geometricPrecision;image-rendering:optimizeQuality;fill-rule:evenodd;clip-rule:evenodd" viewBox="573.08 24.5 1796.02 1968.38"><defs><style></style></defs><g id="Capa_x0020_1"><g id="_134649824"><path id="_134650064" d="m675.811 265.457 527.815-33.883c-146.291 523.251-52.72 1097.56 285.416 1713.06l-650.954 48.245c-333.133-742.9-309.252-1281.99-162.277-1727.42z" style="fill:#da251d"/><path id="_134650280" d="M1345.97 24.5c413.513 69.734 750.163 213.587 1023.13 418.853-20.274 236.656-50.627 477.72-151.529 749.651-91.104 36.461-192.245 46.024-302.954 30.57 24.566-200.318 34.931-379.603 37.498-547.042-218.358-137.655-450.524-247.694-688.965-345.182-7.06-147.618 24.628-244.57 82.824-306.851z" style="fill:#f8c300"/><path id="_134650568" d="M2186.45 1253.77c-296.114 6.557-594.229 4.442-897.876-21.645 17.37 61.53 50.072 125.764 110.105 194.823 256.982-14.747 507.102-45.964 751.536-90.825l36.234-82.353z" style="fill:#007cc3"/></g></g></svg>