<svg xmlns="http://www.w3.org/2000/svg" viewBox="26.5 9.29 569.9 313.44"><g fill="#3ca93a"><path d="M479.51 9.74c8.57-1.63 17.48 1.27 24.31 6.47 6.64 4.66 10.33 12.67 10.88 20.63.59 7.74.22 15.51.2 23.26-.18 3.31 2.8 5.98 6.04 5.69 16.74-.04 33.52-.91 50.23.52 8.83 1 17.37 5.92 21.84 13.74 10.07 17.31-3.65 43.36-24 43.68-15.31-.07-30.64.27-45.94-.25-2.12.07-4.53.01-6.22 1.48-1.65 1.48-1.8 3.87-1.86 5.93.54 15.69.08 31.47 2.14 47.07 1.32 10.44 7.44 19.87 15.86 26.04 7.94 6 17.27 9.94 26.96 12.06 7.35 1.95 15.37 1.89 22.08 5.83 5.86 3.1 10.26 8.74 11.9 15.16 2.07 7.96.95 16.7-2.91 23.95-3.77 7.14-10.88 12.54-18.89 13.84-18.73 2.83-37.79-2.11-54.4-10.71-19.27-9.41-36.85-23.38-47.69-42.13-11.14-18.6-14.82-40.61-14.78-62.03.2-38.67-.57-77.34-.16-116.01-.03-7.55.84-15.45 5.04-21.93 4.23-6.73 11.66-10.94 19.37-12.29zM108.86 62.39c23.33-5.2 48.27-1.53 69.51 9.28 19.24 9.23 35.87 24.4 45.42 43.63 9.88 19.68 13.06 42.42 10.47 64.19-3.07 25.2-15.75 49.19-35.32 65.45-20.11 16.98-46.75 25.39-72.92 24.82-10.91-.07-21.8-2.16-32.06-5.85-3.29-1.11-6.38-3.09-9.98-2.98-1.6 3.49-.83 7.39-.98 11.09.17 7.67-.29 15.33-.26 22.99-.17 7-2.78 13.96-7.52 19.15-10.73 11.53-31.53 11.48-41.9-.5-4.96-5.64-6.92-13.27-6.82-20.65 0-42.35-.01-84.7.01-127.04.11-20.79 5.97-41.64 17.57-58.96 14.74-22.49 38.44-39 64.78-44.62m12.69 55.32c-11.13 2.21-21.41 8.52-28.37 17.5-7.75 9.7-11.57 22.53-10.07 34.89 1.31 12.97 8.09 25.39 18.56 33.22 10.41 8.03 24.19 11.53 37.17 9.57 12.58-1.88 24.11-9.33 31.29-19.78 13.36-18.66 11.02-46.69-5.42-62.74-11.16-10.99-27.87-15.55-43.16-12.66zM339.32 60.35c22.53-1.42 45.45 4.61 64.26 17.11 23.95 15.61 41.13 41.41 45.7 69.69 2.71 16.82 1.25 33.87 1.47 50.81-.02 14.67.04 29.35-.03 44.02-.11 8.17-3.37 16.6-10.1 21.55-8.29 6.1-20.32 8.81-29.59 3.33-4.51-2.29-6.96-7.68-12.19-8.68-5.47-1.01-10.04 2.8-14.83 4.73-21.48 8.4-45.73 9.64-67.88 3.15-23.03-6.57-43.44-21.53-56.83-41.36-12.89-18.47-19.68-41.18-18.6-63.7 1.04-26.45 12.52-52.34 31.48-70.82 17.73-17.73 42.16-28.33 67.14-29.83m-.8 57.53c-9.81 1.72-19.25 6.23-26.23 13.41-11.07 10.97-15.42 27.52-13.33 42.73 3.79 22.18 25.48 39.89 48.02 38.76 13.71.15 27.23-6.37 35.79-17.05 9.07-11.04 13.19-26.12 10.47-40.2-3.12-13.88-12.94-25.72-25.18-32.67-8.86-5.09-19.49-7.08-29.54-4.98z" style="--darkreader-inline-fill:#30872e"/><path d="M125.23 143.15c7.86-1.81 16.92.16 22.62 6.08 5.27 5.48 6.87 13.72 5.48 21.03-2.19 10.14-11.99 17.87-22.34 17.76-11.79-.05-22.75-10.15-23.26-22.01-.45-10.49 7.42-20.36 17.5-22.86z" style="--darkreader-inline-fill:#65c963"/></g></svg>