<svg xmlns="http://www.w3.org/2000/svg" xml:space="preserve" viewBox="0 0 85.09 33.5"><path fill="#40B4E5" d="M84.744 4.562c0 2.2-2.723 4.272-6.083 4.272-4.49 0-6.083-2.072-6.083-4.272C72.578 1.593 75.04 0 78.661 0c3.36 0 6.083 1.882 6.083 4.562" style="--darkreader-inline-fill:#16779f"/><path fill="#FFF" d="M.077 19.494c0-1.52-.005-3.039.002-4.56.005-.931.596-1.41 1.705-1.402 1.08.006 1.537.394 1.542 1.37.011 2.583.002 5.166.006 7.748.008 4.586 2.547 7.492 7.107 8.057 2.123.263 4.232.177 6.286-.551 2.25-.797 3.735-2.379 4.578-4.535.736-1.883 1.255-3.848 1.946-5.749 1.087-2.988 3.194-4.998 6.145-6.132 3.316-1.275 6.785-1.355 10.27-1.256 2.78.08 5.466.583 7.93 1.942 1.86 1.026 3.149 2.574 4.009 4.511.73 1.646.992 3.357.968 5.144-.028 2.003.013 4.007.009 6.01-.004 1.42-.41 1.947-1.826 2.102-.948.104-1.935.112-2.875-.026-1.215-.179-1.724-.884-1.738-2.117-.03-2.534.018-5.07-.077-7.601-.118-3.179-1.471-5.715-4.522-6.889-3.798-1.461-9.51-.515-11.472 4.753-.664 1.783-1.214 3.608-1.828 5.409-.914 2.679-2.724 4.541-5.234 5.796-2.18 1.092-4.528 1.476-6.907 1.722-2.746.283-5.482.226-8.213-.281C3.95 32.227.925 29.256.375 25.268c-.263-1.9-.257-3.84-.374-5.763a.926.926 0 0 1 .076-.011m68.965-7.038c2.98-.058 6.064.259 9.03 1.314 2.546.905 4.731 2.305 5.972 4.824 2.223 4.515.895 9.691-3.738 12.266-2.518 1.399-5.25 2.051-8.064 2.354-3.361.362-6.738.52-10.059-.378-4.592-1.241-7.853-4.613-7.862-9.701-.009-4.504 2.265-7.828 6.479-9.465 2.143-.832 4.524-1.292 8.242-1.214m-1.67 18.443c2.44-.006 4.816-.338 6.993-1.519 2.085-1.131 3.646-2.758 4.098-5.146.701-3.722-1.5-7.157-5.101-8.36-2.594-.868-5.235-1.049-7.924-.844-1.858.142-3.621.627-5.104 1.812-2.423 1.934-3.047 4.557-2.63 7.472.32 2.243 1.524 3.968 3.479 5.159 1.908 1.165 4.016 1.428 6.189 1.426" style="--darkreader-inline-fill:#181a1b"/></svg>