<svg xmlns="http://www.w3.org/2000/svg" xml:space="preserve" viewBox="0 0.01 227.13 238.89"><path style="fill:#f8a420;fill-opacity:1;fill-rule:nonzero;stroke:none;--darkreader-inline-fill:#f9ab31;--darkreader-inline-stroke:none" d="M1672.62 791.301c103.14-313.43-60.49-653.621-365.48-759.602-304.81-105.96-635.671 62.32-738.66 375.789C465.406 721.02 629.02 1061.05 933.941 1167c304.889 105.96 635.689-62.21 738.679-375.699" transform="matrix(.13333 0 0 -.13333 0 238.893)"/><path style="fill:#9cd638;fill-opacity:1;fill-rule:nonzero;stroke:none;--darkreader-inline-fill:#a5da49;--darkreader-inline-stroke:none" d="M1135.02 1020.08c103.04-313.478-60.51-653.56-365.446-759.478-304.902-106.032-635.625 62.16-738.726 375.75-103.063 313.593 60.527 653.518 365.465 759.478 304.835 105.99 635.657-62.26 738.707-375.75" transform="matrix(.13333 0 0 -.13333 0 238.893)"/><path style="fill:#dd1d36;fill-opacity:1;fill-rule:nonzero;stroke:none;--darkreader-inline-fill:#e5374e;--darkreader-inline-stroke:none" d="M1597.68 1384.2c103.04-313.53-60.67-653.552-365.49-759.559-304.983-105.95-635.659 62.308-738.76 375.779-103.063 313.48 60.476 653.6 365.453 759.48 304.947 106.04 635.657-62.22 738.797-375.7" transform="matrix(.13333 0 0 -.13333 0 238.893)"/></svg>