<svg xmlns="http://www.w3.org/2000/svg" viewBox="42.36 164.41 588.22 352.97"><path fill="#f4bd18" d="M42.36 164.46c39.9-.04 79.8-.11 119.69.03 12.33.02 24.11 4.84 33.98 12-1.08-4.08-2.86-7.92-4.02-11.98 36.41-.02 72.82.03 109.23-.02 11.01 44.26 22.43 88.43 33.5 132.68 11.22-43.16 21.87-86.48 32.77-129.73.44-1.1.8-3.12 2.43-2.82 35.77-.05 71.54-.09 107.3.03-2.09 7.16-5.4 13.87-8.19 20.76-3.26 7.84-6.47 15.7-9.84 23.5 30.91-27.77 72.13-44.11 113.79-43.68 19.58-.39 39.04 3.42 57.57 9.58-.09 31.39.15 62.8-.12 94.2-8.97-6.71-18.56-12.78-29.29-16.22-21.86-7.22-46.68-5.63-67.17 4.99-25.95 12.87-44.52 39.52-47.47 68.35-.31 6.19-.35 12.41-.06 18.61 2.01 20.49 11.84 39.94 26.54 54.25 11.83 11.17 26.7 19.21 42.7 22.39 20.39 4.42 42.28.89 60.47-9.23 5.08-2.69 9.46-6.46 14.35-9.46.09 31.31-.04 62.61.06 93.92-37.65 13.37-79.99 13.15-117.35-1.11-30.62-11.58-57.83-32.08-77.2-58.49-17.02-23.02-28.22-50.39-31.81-78.82-.97-4.44-.41-9.06-1.5-13.48-16.21 40.01-33.04 79.79-49.49 119.71-7.61 17.57-14.42 35.49-22.25 52.96-7.58-17.7-14.25-35.79-21.46-53.65-25.31-64.45-50.77-128.83-76.08-193.27-.95-2.23-1.83-4.49-2.44-6.84-5.92.1-11.84.03-17.75.05.06.85.2 2.56.27 3.41.04 78.65-.07 157.31.05 235.96-.09 1.3.48 3.82-1.7 3.47-32.13.08-64.26-.01-96.39.04.12-80.98.02-161.96.05-242.94-19.51.08-39.02.03-58.53.04-7.4.26-14.78-6.03-14.59-13.64-.02-28.52.09-57.04-.05-85.55z" style="--darkreader-inline-fill:#8c6b07"/></svg>