<svg xmlns="http://www.w3.org/2000/svg" viewBox="0 0 8192 5012.7" style="enable-background:new 0 0 8192 5012.7" xml:space="preserve"><path d="M3358 3437.2c316.6 791 1024.7 1383 1884.8 1536.5l-1.5-.3c43.5 2.4 87 3.7 131 3.7 1013.9 0 1878.5-638.2 2214.5-1534.7-6.1 9.7-12.3 19.4-18.6 29.1-6.3 12.5-12.9 24.9-19.6 37.2-2.6 4.9-5.3 9.9-8.1 14.7-4.7 8.7-9.7 17.5-14.6 26.2-2.6 4.5-5.2 9.2-7.8 13.7-7.1 12-14.1 24.1-21.3 35.9-2.6 4.4-5.3 8.7-8.1 13.1-5.2 8.6-10.5 17.1-15.8 25.5-3.1 4.9-6.1 9.5-9.2 14.4-7.1 11-14.2 22-21.7 32.8-2.6 3.9-5.2 7.8-7.8 11.5-6.3 9.2-12.6 18.4-19.1 27.5-3.2 4.5-6.5 9.2-9.9 13.9-6.1 8.4-12.3 16.8-18.4 25.2-2.7 3.7-5.3 7.4-8.1 11-8.4 11.2-16.8 22.2-25.4 33.1-3.4 4.4-6.8 8.6-10.2 12.8-6.1 7.9-12.5 15.7-18.9 23.4-3.2 4-6.5 8.1-9.7 12.1-9.1 10.7-17.9 21.3-27.2 31.9-3.1 3.7-6.3 7.3-9.4 10.8-6.8 7.8-13.6 15.5-20.5 23.1-3.7 4.2-7.4 8.2-11 12.3-8.6 9.2-17.1 18.4-25.9 27.7-2.9 3.1-6 6.3-8.9 9.4-8.4 8.7-16.8 17.3-25.2 25.9-3.9 3.7-7.8 7.6-11.5 11.3-7.8 7.6-15.4 15.2-23.1 22.6-3.1 2.9-6.1 6-9.2 8.9-10.3 9.7-20.7 19.4-31 28.9-3.7 3.2-7.4 6.6-11 9.9-7.9 7.1-15.7 14.1-23.6 21-3.7 3.2-7.4 6.5-11.2 9.7-10.8 9.2-21.7 18.4-32.5 27.5-3.2 2.6-6.3 5.2-9.5 7.6-8.6 7.1-17.1 14.1-25.9 21-4 3.1-8.1 6.3-12 9.4-10 7.9-20.2 15.7-30.4 23.3-2.3 1.8-4.7 3.6-7 5.2-11 8.2-22.2 16.3-33.3 24.4-4 2.9-8.1 5.7-12.1 8.6-9.2 6.5-18.4 12.9-27.8 19.2-3.2 2.3-6.5 4.5-9.9 6.8-12 8.1-24.1 16-36.2 23.8-3.7 2.4-7.4 4.7-11.2 7.1-9.4 6-18.9 11.8-28.3 17.6-4 2.4-7.9 5-12 7.4-12.5 7.4-25.1 14.9-37.7 22.2-2.7 1.6-5.3 3.1-8.1 4.5-10.5 6.1-21.2 12-31.9 17.9-4.2 2.3-8.4 4.5-12.5 6.8-11.5 6.1-22.8 12.1-34.3 17.9-2.1 1.1-4 2.3-6.1 3.2-13.1 6.8-26.5 13.4-39.8 19.9-4 1.9-8.1 3.9-12.1 5.8-10.7 5-21.3 10-32 14.9-3.6 1.6-7 3.2-10.5 4.9-13.4 6-27 12-40.7 17.8-3.6 1.5-7.3 3.1-10.8 4.5-11 4.5-21.8 9.1-32.8 13.4-4 1.6-8.1 3.2-12.3 4.9-13.9 5.5-28 10.8-42.2 16-1.9.8-4 1.5-6 2.3-12.6 4.5-25.2 8.9-37.8 13.3-4.2 1.5-8.4 2.9-12.6 4.2-12.6 4.2-25.2 8.4-37.8 12.3-2.1.6-4.4 1.5-6.6 2.1-14.6 4.5-29.1 8.9-43.8 13.1-4 1.1-8.1 2.3-12.1 3.4-11.8 3.2-23.6 6.5-35.4 9.5-3.7 1-7.4 1.9-11.2 2.9-14.7 3.9-29.6 7.4-44.6 11-3.2.6-6.5 1.5-9.9 2.1-12.3 2.9-24.6 5.5-36.9 8.1-4.2 1-8.6 1.8-12.8 2.6-15.2 3.1-30.6 6.1-45.9 8.9-1 .2-1.9.3-3.1.5-14.4 2.6-29.1 5-43.7 7.3-4.4.6-8.7 1.3-12.9 1.9-13.3 1.9-26.5 3.9-39.8 5.5-2.7.3-5.3.8-7.9 1.1-15.7 1.9-31.2 3.7-46.9 5.3-4 .5-8.1.8-12.3 1.1-12.6 1.3-25.2 2.4-37.8 3.4-3.9.3-7.9.6-11.8 1-15.8 1.1-31.7 2.3-47.5 3.1-3.1.2-6.1.2-9.1.3-13.4.6-26.8 1.1-40.1 1.6-4.5 0-9.1.2-13.4.3-16.2.3-32.3.6-48.7.6-17.8 0-35.7-.3-53.4-.6l-2.3-.2c-17.5-.5-34.9-1.1-52.2-1.9l-2.3-.2c-17-.8-34.1-1.9-51.1-3.2l-2.6-.2c-16.8-1.3-33.5-2.7-50.1-4.5l-4.7-.5c-16.3-1.6-32.5-3.4-48.5-5.5-1.8-.2-3.6-.5-5.3-.6-15.2-1.9-30.6-4-45.6-6.5-2.4-.3-4.9-.6-7.3-1-15-2.4-30.1-4.9-45.1-7.6l-8.7-1.5c-13.7-2.6-27.5-5.2-41.1-7.9-4-.8-8.1-1.6-12.3-2.4-12.9-2.7-25.9-5.7-38.8-8.6-4.2-1-8.2-1.9-12.5-2.9-12.3-2.7-24.4-5.8-36.4-8.9-5.7-1.3-11.3-2.7-16.8-4.2-11-2.9-22-5.8-33-8.9-6.5-1.9-12.9-3.7-19.2-5.5-9.7-2.9-19.1-5.7-28.6-8.6-7.4-2.3-14.9-4.5-22.3-7-8.9-2.7-17.6-5.7-26.4-8.6-7.9-2.6-15.8-5.3-23.6-7.9-7.9-2.7-15.7-5.5-23.4-8.2-9.4-3.4-18.6-6.8-28-10.3-6.5-2.4-12.9-4.9-19.6-7.4-10.2-3.9-20.5-7.9-30.7-12.1-5-1.9-10.2-4-15.2-6.1-10.5-4.4-21-8.7-31.4-13.3-5.2-2.3-10.2-4.5-15.4-6.8-11.2-4.9-22.2-9.9-33.1-15-5-2.3-10-4.5-15-7h-.2c-504.2-180.1-929.1-526.7-1209-973.3-21.2 1.3-42.5 1.9-64.2 1.9-49.9.4-100.7-3.5-152.1-11z" style="fill-rule:evenodd;clip-rule:evenodd;fill:#f82b41"/><path d="M8192 2506.3C8192 1273.2 7301.5 248.2 6128.6 39l1.5.3c-43.3-2.4-87-3.7-131-3.7-991.7 0-1840.6 610.7-2191.5 1476.6 3.1 1 6.1 1.9 9.2 3.1 1.9-3.7 3.9-7.4 6-11.3 2.7-4.9 5.3-9.9 8.1-14.7 4.9-8.7 9.7-17.5 14.6-26.2 2.6-4.5 5.2-9.1 7.9-13.7 7-12 14.1-24.1 21.2-35.9 2.7-4.4 5.3-8.7 8.1-13.1 5.2-8.6 10.5-17.1 16-25.5 2.9-4.9 6-9.5 9.1-14.4 7.1-11 14.4-22 21.7-32.8 2.6-3.9 5.2-7.8 7.9-11.5 6.1-9.2 12.5-18.4 18.9-27.5 3.2-4.5 6.6-9.2 9.9-13.9 6.1-8.4 12.3-16.8 18.4-25.2 2.7-3.7 5.5-7.4 8.2-11 8.2-11.2 16.8-22.2 25.4-33.1 3.2-4.4 6.6-8.6 10-12.8 6.3-7.9 12.6-15.7 18.9-23.4 3.2-4 6.5-8.1 9.9-12.1 8.9-10.7 17.9-21.3 27-31.9 3.1-3.7 6.3-7.3 9.4-10.8 6.8-7.8 13.7-15.5 20.7-23.1 3.6-4.2 7.3-8.2 11-12.3 8.4-9.2 17.1-18.4 25.7-27.7 3.1-3.1 6-6.3 9.1-9.4 8.2-8.7 16.7-17.3 25.2-25.9 3.7-3.7 7.6-7.6 11.5-11.3 7.6-7.6 15.2-15.2 23-22.6 3.1-2.9 6.1-6 9.2-8.9 10.3-9.7 20.7-19.4 31-28.9 3.7-3.2 7.4-6.6 11.2-9.9 7.8-7.1 15.7-14.1 23.6-21 3.6-3.2 7.3-6.5 11-9.7 10.8-9.2 21.7-18.4 32.7-27.5 3.1-2.6 6.3-5.2 9.4-7.6 8.6-7.1 17.3-14.1 25.9-21 4-3.1 8.1-6.3 12.1-9.4 10-7.9 20.1-15.7 30.2-23.3 2.4-1.8 4.7-3.6 7-5.2 11.2-8.2 22.2-16.3 33.5-24.4 4-2.9 8.1-5.7 12.1-8.6 9.1-6.5 18.4-12.9 27.7-19.2 3.2-2.3 6.6-4.5 9.9-6.8 12-8.1 24.1-16 36.2-23.8 3.7-2.4 7.4-4.7 11.2-7.1 9.4-6 18.9-11.8 28.5-17.6 3.9-2.4 7.9-5 11.8-7.4 12.5-7.4 25.1-14.9 37.7-22.2 2.7-1.6 5.5-3.1 8.1-4.5 10.7-6.1 21.2-12 31.9-17.9 4.2-2.3 8.4-4.5 12.6-6.8 11.3-6.1 22.6-12.1 34.1-17.9 2.1-1.1 4.2-2.3 6.1-3.2 13.3-6.8 26.5-13.4 39.8-19.9 4-1.9 8.2-3.9 12.3-5.8 10.5-5 21.2-10 31.9-14.9 3.6-1.6 7-3.2 10.5-4.9 13.6-6 27.2-12 40.7-17.8 3.7-1.5 7.3-3.1 10.8-4.5 11-4.5 22-9.1 33-13.4 4-1.6 8.1-3.2 12.1-4.9 14.1-5.5 28.1-10.8 42.2-16 2.1-.8 4-1.5 6.1-2.3 12.5-4.5 25.1-8.9 37.7-13.3 4.2-1.5 8.4-2.9 12.8-4.2 12.5-4.2 25.1-8.4 37.7-12.3 2.3-.6 4.4-1.5 6.6-2.1 14.6-4.5 29.1-8.9 43.8-13.1 4-1.1 8.1-2.3 12.3-3.4 11.6-3.2 23.4-6.5 35.3-9.5 3.7-1 7.4-1.9 11.2-2.9 14.9-3.9 29.8-7.4 44.6-11 3.2-.6 6.6-1.5 9.9-2.1 12.3-2.9 24.6-5.5 36.9-8.1 4.4-1 8.6-1.8 12.8-2.6 15.4-3.1 30.6-6.1 45.9-8.9 1.1-.2 2.1-.3 3.1-.5 14.6-2.6 29.1-5 43.7-7.3 4.4-.6 8.7-1.3 13.1-1.9 13.1-1.9 26.4-3.9 39.6-5.5 2.7-.3 5.3-.8 8.1-1.1 15.5-1.9 31-3.7 46.7-5.3 4-.5 8.2-.8 12.3-1.1 12.6-1.3 25.2-2.4 37.8-3.4 4-.3 7.9-.6 12-1 15.7-1.1 31.5-2.3 47.5-3.1 2.9-.2 6-.2 9.1-.3 13.3-.6 26.7-1.1 40.1-1.6 4.4 0 8.9-.2 13.3-.3 16.2-.3 32.5-.6 48.7-.6 17.9 0 35.7.3 53.5.6l2.1.2c17.5.5 34.9 1.1 52.4 1.9l2.1.2c17.1.8 34.1 1.9 51.1 3.2l2.6.2c16.8 1.3 33.5 2.7 50.1 4.5l4.9.5c16.2 1.6 32.3 3.4 48.3 5.5 1.8.2 3.6.5 5.3.6 15.4 1.9 30.6 4 45.8 6.5 2.3.3 4.7.6 7.1 1 15 2.4 30.2 4.9 45.1 7.6 3.1.5 6 1 8.9 1.5 13.6 2.6 27.3 5.2 40.9 7.9 4 .8 8.2 1.6 12.3 2.4 12.9 2.7 25.9 5.7 38.8 8.6 4.2 1 8.4 1.9 12.5 2.9 12.3 2.7 24.4 5.8 36.5 8.9 5.5 1.3 11.2 2.7 16.7 4.2 11 2.9 22 5.8 33 8.9 6.5 1.9 12.9 3.7 19.4 5.5 9.5 2.9 19.1 5.7 28.5 8.6 7.6 2.3 15 4.5 22.3 7 8.9 2.7 17.6 5.7 26.5 8.6 7.8 2.6 15.7 5.3 23.4 7.9 7.9 2.7 15.7 5.5 23.4 8.2 9.4 3.4 18.8 6.8 28 10.3 6.5 2.4 13.1 4.9 19.6 7.4 10.3 3.9 20.5 7.9 30.7 12.1 5.2 1.9 10.2 4 15.4 6.1 10.3 4.4 20.9 8.7 31.2 13.3 5.2 2.3 10.3 4.5 15.4 6.8 11.2 4.9 22.2 9.9 33.3 15 4.9 2.3 9.9 4.5 14.9 7h.3C7502.8 919.9 8157.1 1793.6 8157.1 2820c0 44-1.3 87.6-3.7 131 25.2-144.6 38.6-293 38.6-444.7z" style="fill-rule:evenodd;clip-rule:evenodd;fill:#33aa43"/><path d="M5685.7 5012.7c1233.1 0 2258.3-890.5 2467.4-2063.4l-.3 1.5c2.4-43.3 3.7-87 3.7-131 0-1013.9-638.2-1878.5-1534.7-2214.5 9.7 6.1 19.4 12.3 29.1 18.6 12.5 6.3 24.9 12.9 37.2 19.6 4.9 2.6 9.9 5.3 14.7 8.1 8.7 4.9 17.5 9.7 26.2 14.6 4.5 2.6 9.2 5.2 13.7 7.9 12 7 24.1 13.9 35.9 21.2 4.4 2.6 8.7 5.3 13.1 8.1 8.6 5.2 17.1 10.5 25.5 16 4.9 2.9 9.5 6 14.4 9.1 11 7.1 22 14.2 32.8 21.7 3.9 2.6 7.8 5.2 11.6 7.8 9.1 6.3 18.3 12.6 27.3 19.1 4.7 3.2 9.2 6.6 13.9 9.9 8.6 6.1 17 12.3 25.4 18.4 3.6 2.7 7.3 5.5 10.8 8.1 11.2 8.4 22.3 16.8 33.1 25.4 4.4 3.4 8.6 6.8 12.8 10.2 7.9 6.3 15.7 12.6 23.4 18.9 4 3.2 8.1 6.5 12.1 9.9 10.7 8.9 21.3 17.8 32 27 3.6 3.1 7.1 6.3 10.7 9.4 7.8 6.8 15.5 13.7 23.1 20.5 4.2 3.7 8.2 7.4 12.3 11.2 9.2 8.4 18.4 17 27.7 25.7 3.1 3.1 6.3 6 9.4 8.9 8.7 8.4 17.3 16.8 25.9 25.2 3.7 3.9 7.6 7.8 11.5 11.6 7.4 7.6 15 15.2 22.5 23 2.9 3.1 6 6.1 8.9 9.2 9.7 10.3 19.4 20.7 28.9 31 3.2 3.7 6.6 7.4 9.9 11.2 7.1 7.8 14.1 15.5 21 23.4 3.2 3.7 6.5 7.4 9.7 11.2 9.2 10.8 18.4 21.7 27.5 32.5 2.6 3.2 5.2 6.3 7.8 9.5 7 8.6 13.9 17.1 20.9 25.9 3.1 4 6.3 8.1 9.4 12.1 7.9 10 15.7 20.1 23.3 30.2 1.8 2.4 3.6 4.7 5.3 7 8.1 11.2 16.3 22.2 24.3 33.5 2.9 3.9 5.7 7.9 8.6 12 6.5 9.2 12.9 18.4 19.2 27.8 2.3 3.2 4.5 6.6 6.8 9.9 8.1 12 16 24.1 23.8 36.2 2.4 3.7 4.9 7.4 7.1 11.2 6 9.4 11.8 18.9 17.8 28.3 2.4 4 4.9 7.9 7.3 12 7.4 12.5 14.9 25.1 22.2 37.7 1.6 2.7 3.1 5.3 4.7 8.1 6 10.5 12 21.2 17.8 31.9 2.3 4.2 4.5 8.4 6.8 12.6 6.1 11.3 12.1 22.6 18.1 34.1 1 2.1 2.1 4 3.1 6.1 6.8 13.3 13.4 26.5 19.9 39.8 1.9 4 3.9 8.1 5.8 12.3 5 10.5 10 21.2 14.9 31.9 1.6 3.6 3.2 7 4.9 10.5 6 13.4 12 27 17.8 40.7 1.5 3.6 3.1 7.3 4.5 10.8 4.5 11 9.1 21.8 13.4 32.8 1.6 4.2 3.2 8.2 4.9 12.3 5.5 13.9 10.8 28.1 16 42.2.8 2.1 1.5 4 2.3 6.1 4.5 12.5 8.9 25.1 13.3 37.7 1.5 4.2 2.9 8.4 4.4 12.8 4 12.5 8.2 25.1 12.1 37.7.8 2.3 1.5 4.4 2.1 6.6 4.5 14.6 8.9 29.1 13.1 43.8 1.1 4 2.3 8.1 3.4 12.3 3.4 11.6 6.5 23.4 9.5 35.3 1 3.7 1.9 7.4 2.9 11.2 3.9 14.7 7.4 29.8 11 44.6.6 3.2 1.5 6.6 2.1 9.9 2.9 12.3 5.5 24.6 8.1 36.9 1 4.2 1.8 8.6 2.6 12.8 3.2 15.2 6.1 30.6 8.9 45.9.2 1 .3 2.1.5 3.1 2.6 14.4 5 29.1 7.3 43.7.6 4.4 1.3 8.7 1.9 13.1 1.9 13.1 3.9 26.4 5.5 39.6.5 2.7.8 5.3 1.1 8.1 1.9 15.5 3.7 31 5.3 46.7.5 4 .8 8.2 1.3 12.3 1.1 12.6 2.3 25.2 3.2 37.8.3 4 .6 7.9 1 12 1.3 15.7 2.3 31.5 3.1 47.5.2 2.9.3 6 .3 9.1.6 13.3 1.1 26.7 1.6 40.1.2 4.4.2 8.9.3 13.3.3 16.2.6 32.3.6 48.7 0 17.9-.3 35.7-.6 53.5l-.2 2.1c-.3 17.5-1.1 34.9-1.9 52.2l-.2 2.3c-.8 17.1-1.9 34.1-3.2 51.1l-.2 2.6c-1.3 16.8-2.7 33.5-4.4 50.1l-.5 4.7c-1.8 16.3-3.6 32.5-5.7 48.5-.2 1.8-.3 3.6-.6 5.3-1.9 15.2-4 30.6-6.3 45.8-.5 2.3-.8 4.7-1.1 7.1-2.4 15-4.9 30.1-7.4 45.1-.6 2.9-1.1 5.8-1.6 8.9-2.6 13.6-5.2 27.3-7.9 40.9-.8 4-1.6 8.1-2.4 12.3-2.7 12.9-5.5 25.9-8.6 38.8-.8 4.2-1.8 8.4-2.7 12.5-2.9 12.3-5.8 24.4-8.9 36.5-1.5 5.5-2.9 11.2-4.4 16.7-2.9 11-5.8 22-8.9 33-1.8 6.5-3.7 12.9-5.5 19.4-2.7 9.5-5.7 19.1-8.6 28.5-2.3 7.4-4.5 14.9-7 22.3-2.7 8.9-5.7 17.6-8.6 26.4-2.6 7.9-5.2 15.8-7.9 23.6-2.7 7.9-5.5 15.7-8.2 23.4-3.4 9.4-6.8 18.6-10.2 28-2.6 6.5-5 13.1-7.4 19.6-4 10.2-8.1 20.5-12.3 30.7-1.9 5.2-4 10.2-6.1 15.2-4.4 10.5-8.7 21-13.3 31.4-2.3 5.2-4.5 10.2-6.8 15.4-4.9 11.2-9.9 22.2-14.9 33.1-2.4 5-4.7 10-7.1 15v.2c-326.8 914.2-1200.5 1568.6-2226.9 1568.6-44 0-87.5-1.3-131-3.7 144.1 25.2 292.5 38.6 444.2 38.6z" style="fill-rule:evenodd;clip-rule:evenodd;fill:#069ee3"/><path d="M5685.7 0C4670.5 0 3796.4 603.6 3402.5 1471.5c35.4-3.7 71.3-5.5 107.9-5.5 73.7 0 146.7 8.1 218.6 24.4 26.7 6.1 52.9 13.4 78.4 21.8C4158.4 646.3 5007.3 35.6 5999 35.6c44 0 87.6 1.3 131 3.7C5985.8 13.4 5837.3 0 5685.7 0zM3574.5 3446.6c273.6 436.6 685.9 777.4 1175.2 960.8-9.9-6.1-19.6-12.3-29.3-18.6-12.5-6.3-24.7-12.9-37-19.6-5-2.6-10-5.3-14.9-8.1-8.7-4.9-17.5-9.7-26.2-14.6-4.5-2.6-9.1-5.2-13.7-7.9-12-7-23.9-13.9-35.9-21.2-4.4-2.6-8.7-5.3-13.1-8.1-8.6-5.2-17.1-10.5-25.5-16-4.9-2.9-9.5-6-14.2-9.1-11.2-7.1-22.2-14.2-33-21.7-3.9-2.6-7.6-5.2-11.5-7.8-9.2-6.3-18.3-12.6-27.5-19.1-4.5-3.2-9.2-6.6-13.9-9.9-8.4-6.1-16.8-12.3-25.2-18.4-3.7-2.7-7.4-5.5-11-8.1-11.2-8.4-22.2-16.8-33.1-25.4-4.2-3.4-8.6-6.8-12.8-10.2-7.9-6.1-15.7-12.6-23.4-18.9-4-3.2-8.1-6.5-12-9.9-10.8-8.9-21.5-17.8-32-27-3.7-3.1-7.1-6.3-10.8-9.4-7.8-6.8-15.5-13.7-23.1-20.5-4-3.7-8.1-7.4-12.1-11.2-9.4-8.4-18.6-17-27.8-25.7-3.1-2.9-6.1-6-9.4-8.9-8.6-8.4-17.3-16.8-25.7-25.2l-11.5-11.5c-7.6-7.8-15-15.4-22.6-23.1-2.9-3.1-6-6.1-8.9-9.2-9.7-10.3-19.4-20.7-28.8-31-3.4-3.7-6.8-7.4-10-11.2-7.1-7.8-14.1-15.5-21-23.4-3.2-3.7-6.5-7.4-9.7-11.2-9.2-10.8-18.4-21.7-27.5-32.5-2.6-3.2-5-6.3-7.6-9.5-7.1-8.6-14.1-17.1-20.9-25.9-3.2-4-6.5-8.1-9.5-12.1-7.8-10-15.5-20.1-23.3-30.2-1.8-2.4-3.6-4.7-5.2-7-8.2-11-16.3-22.2-24.4-33.5-2.9-3.9-5.7-7.9-8.6-12-6.5-9.2-12.8-18.4-19.2-27.8-2.3-3.2-4.5-6.6-6.8-9.9-7.9-12-16-24.1-23.8-36.2-2.4-3.7-4.7-7.4-7.1-11.2-6-9.4-11.8-18.9-17.6-28.3-2.4-4-4.9-7.9-7.3-12-7.6-12.5-15-25.1-22.3-37.7-1.6-2.7-3.1-5.3-4.5-8.1-6.1-10.5-12-21.2-17.9-31.9-2.3-4.2-4.5-8.4-6.8-12.6-6-11.3-12.1-22.6-17.9-34.1-1.1-2.1-2.3-4-3.2-6.1-6.8-13.3-13.3-26.5-19.7-39.8-2.1-4-3.9-8.1-5.8-12.3l-.6-1.1c-65.4 17.6-132.4 28.1-201.1 32.1z" style="fill-rule:evenodd;clip-rule:evenodd;fill:#ffd206"/><path d="M483 1839h220.2v227.2H483v612.2c0 57.4 8.4 95.7 25.4 114.8 17 19.2 50.8 28.8 101.7 28.8 33.8 0 64.8-3.2 93.1-9.5v265.3c-25.4 4.9-53.7 8.1-84.7 9.7-31 1.5-61.4 2.3-91 2.3-46.7 0-90.7-3.6-132.4-10.7-41.7-7.3-78.4-21.5-110.1-43-31.9-21.7-56.9-51.4-75.2-89.7-18.4-38.3-27.7-88.4-27.7-150.7v-729.4H0V1839h182.1v-370.8H483V1839zm3282.2 485.4c-15.7-86-43.3-151.5-83-196.1-39.8-44.6-100.1-66.9-181.1-66.9-53 0-97 9.2-132.1 27.5-35.1 18.4-63.1 41.1-84.1 68.2-21 27.2-35.9 55.8-44.5 86-8.6 30.4-13.6 57.4-15.2 81.3h540zm-539.9 215.2c4.7 108.5 32 187.7 81.8 238 50 50.3 121.6 75.4 215.1 75.4 66.9 0 124.5-17.1 172.9-51.4 48.3-34.3 77.9-70.5 88.8-108.8h292.2c-46.7 146.7-118.5 252.7-215.1 318.1s-213.4 98.2-350.6 98.2c-94.9 0-180.6-16-256.9-47.9-76.3-31.9-141-76.5-194-133.9-52.9-57.4-93.8-126-122.6-205.7-28.8-79.9-43.3-167.5-43.3-263.1 0-92.5 14.9-178.7 44.5-258.4 29.6-79.7 71.6-148.6 126.1-206.8 54.7-58.2 119.7-104.1 195.2-137.6 75.5-33.5 159.3-50.1 251.1-50.1 102.8 0 192.4 20.2 268.7 61 76.3 40.6 139.1 95.2 188.2 163.8 49 68.6 84.4 146.7 106.2 234.3 21.8 87.8 29.6 179.5 23.4 275.1h-871.7zm-896.5-1171.8h313.5v1707.7h-313.5V1367.8zm-583.3 956.6c-15.7-86-43.3-151.5-83-196.1-39.8-44.6-100.1-66.9-181.1-66.9-53 0-97 9.2-132.1 27.5-35.1 18.4-63.1 41.1-84.1 68.2s-35.9 55.8-44.5 86c-8.6 30.4-13.6 57.4-15 81.3h539.8zm-539.7 215.2c4.5 108.5 31.9 187.7 81.7 238 50 50.3 121.6 75.4 215.1 75.4 66.9 0 124.5-17.1 172.9-51.4 48.3-34.3 77.9-70.5 88.8-108.8h292.2c-46.7 146.7-118.5 252.7-215.1 318.1-96.5 65.3-213.4 98.2-350.4 98.2-95.1 0-180.8-16-257.1-47.9-76.3-31.9-141-76.5-193.9-133.9-53-57.4-93.9-126-122.7-205.7-28.8-79.9-43.2-167.5-43.2-263.1 0-92.5 14.7-178.7 44.3-258.4 29.6-79.7 71.6-148.6 126.1-206.8 54.7-58.2 119.7-104.1 195.2-137.6s159.3-50.1 251.3-50.1c102.7 0 192.3 20.2 268.6 61 76.3 40.6 139.1 95.2 188.2 163.8 49 68.6 84.4 146.7 106.2 234.3 21.8 87.8 29.6 179.5 23.4 275.1h-871.6z" style="fill:#fff"/><path d="M4859.5 3420.4h490.8V1500.2h-379.8l-362 261V2114h251.1v1306.4zm1205.5 0h490.8V1500.2H6176l-362 261V2114h251v1306.4z" style="fill-rule:evenodd;clip-rule:evenodd;fill:#fff"/></svg>