<svg xmlns="http://www.w3.org/2000/svg" style="enable-background:new 0 0 175.4 108.5" xml:space="preserve" viewBox="1.7 0 172 107"><path d="M173.7 102.9V82.4h-2.6c-3.9.1-5.8 1.7-6 5v10l-3.7-10.7c-.9-2.5-2-3.7-3.3-3.6H154c-3.4.1-5.4 1.4-6 4.1V106h8.6V92.3l5.2 11.8c.9 1.7 2 2.7 3.3 2.9h2.6c3.4-.1 5.4-1.4 6-4.1zm-29.3-11h-11.5v-2.7h11.5v-6H129c-2.7.5-4.1 2.4-4.1 5.8v11c.1 3.4 1.4 5.4 4.1 6h15.4v-6h-11.5v-2.5h11.5v-5.6zm-41.5-8.4h-6.6l9.2 22.5h8.9l9.2-22.5H117c-1.6.4-2.9 1.9-3.9 4.4l-3.2 8.3-3.2-8.3c-.9-2.5-2.2-4-3.8-4.4zM94 89.2v-6H78.6c-2.7.5-4.1 2.4-4.1 5.8v11c.1 3.4 1.4 5.4 4.1 6H94v-6H82.5v-2.5H94V92H82.5v-2.8H94zm-46.4 0v-6H32.2c-2.7.5-4.1 2.4-4.1 5.8v11c.1 3.4 1.4 5.4 4.1 6h15.4v-6H36.1v-2.5h11.5V92H36.1v-2.8h11.5zm7.3-6.3h-2.2v17.5c.1 3.4 1.4 5.4 4.1 6h11.4c2.7-.5 4.1-2.4 4.1-5.8l-11.5-.2V87.1c-.5-2.7-2.4-4.1-5.9-4.2zm-32.4.3H5.8c-2.7.5-4.1 2.4-4.1 5.8v.2h8.5v17.2h8.1V89.2h8.3c-.1-3.4-1.4-5.4-4.1-6z" style="fill:#fff"/><path d="M49.4 35.4c0 13.1 7.1 24.5 17.7 30.7V4.8c-10.6 6.1-17.7 17.5-17.7 30.6zM84.8 0C79.9 0 75.2 1 71 2.8V68c4.2 1.8 8.9 2.8 13.8 2.8 19.6 0 35.4-15.9 35.4-35.4S104.3 0 84.8 0z" style="fill:#d21518"/></svg>