<svg xmlns="http://www.w3.org/2000/svg" viewBox="29.18 26.47 453.7 459.1"><path fill="#0c3982" d="M131.71 81.69c.31 1.76.68 3.51.82 5.3.1 53.77-.16 107.56.12 161.33h-1.08c.09-55.54-.19-111.09.14-166.63z" style="--darkreader-inline-fill:#0a2e68"/><g fill="#fff"><path d="M242.57 26.82c45.04-2.53 90.87 8.62 129.49 32.02 48.25 28.88 84.98 76.28 101.01 130.18 13.94 46.22 13.01 96.86-2.73 142.51-11.87 34.53-32.15 66.11-58.57 91.31-28.33 27.04-63.72 46.73-101.81 55.98-13.99 3.64-28.41 5.25-42.78 6.53-47.45 2.07-95.61-10.82-135.19-37.22-25.59-16.85-47.68-38.96-64.57-64.52-20.03-30.02-32.65-64.87-36.81-100.7-2.9-27.73-1.54-56.04 5.34-83.12 9.36-37.83 28.61-73.13 55.29-101.54 25.42-27.19 57.62-48.05 92.92-59.89 18.84-6.49 38.59-9.9 58.41-11.54M131.69 81.47c-26.83 19.94-49.31 45.81-64.53 75.61-14.83 28.8-23.16 61-23.84 93.4 69.06-.08 138.12-.02 207.19-.03-.04-23.77.01-47.54-.03-71.3 2.67-.04 5.35.09 7.99.52 0 23.59.02 47.18-.01 70.77 16.88-.01 33.76.02 50.64-.01.32 2.26.65 4.53.93 6.8-17.2.04-34.39-.02-51.59.03.08 64.96 0 129.91.04 194.86-2.65.77-5.3 1.53-8.01 2.05.05-66.15 0-132.3.02-198.45-69.08 0-138.16.02-207.24-.01-.65 55.95 21.67 111.82 60.91 151.74 2.62 3.44 6.04 6.18 9.17 9.15 34 31.36 78.56 51.11 124.68 54.9 20.37 1.83 41.02.63 61.06-3.5 37.6-7.57 72.9-25.83 101.05-51.83 11.41-10.74 22.21-22.35 30.74-35.53 25.47-35.71 38.77-79.59 39.03-123.35-8.91-.1-17.82-.02-26.73-.04-.82-2.3-1.68-4.59-2.63-6.83 9.71.05 19.42 0 29.13.03-.78-37.03-11.51-73.76-30.58-105.49-16.64-27.88-39.73-51.86-66.88-69.65C341.3 55 304.91 43.02 267.97 41.26c-48.27-3.03-97.31 11.61-136.28 40.21z" style="--darkreader-inline-fill:#181a1b"/><path d="M250.49 140.69c2.66.12 5.32.21 7.98.24 0 8.09.01 16.18 0 24.27-2.67.19-5.34.4-8 .71.04-8.4.01-16.81.02-25.22z" style="--darkreader-inline-fill:#e8e6e3"/></g><path fill="#2e3192" d="M131.69 81.47c38.97-28.6 88.01-43.24 136.28-40.21C304.91 43.02 341.3 55 372.2 75.31c.24.21.73.62.98.83-13.33 21.75-32.16 40.6-55.24 51.82-18.38 9.11-39.03 13.05-59.47 12.97-2.66-.03-5.32-.12-7.98-.24-35.28-1.68-68.3-15.5-100.66-28.45.76 24.23.29 48.48.75 72.72-.14 11.33.29 22.66.16 34 25.25-29.06 61.25-49.08 99.73-53.05 2.66-.31 5.33-.52 8-.71 20.43-1.05 41.01-.23 61.29 2.57 20.08 3.05 39.82 9.01 57.81 18.54 12.36 6.45 23.71 14.69 34.13 23.93 12.43 11.05 22.33 24.88 28.83 40.18.95 2.24 1.81 4.53 2.63 6.83 7.49 21.68 8.61 45.18 5.84 67.82-2.53 19.45-8.78 38.33-18.14 55.57-8.53 13.18-19.33 24.79-30.74 35.53-28.15 26-63.45 44.26-101.05 51.83-20.04 4.13-40.69 5.33-61.06 3.5-46.12-3.79-90.68-23.54-124.68-54.9-3.13-2.97-6.55-5.71-9.17-9.15-7.12-11.25-12.54-23.99-12.81-37.48-.69-19.15 8.28-37.63 21.56-51.05 12.91-13.6 31.15-22.49 50.05-22.65 15.18-.22 30.88 3.41 43.27 12.5 12.12 8.82 20.38 22.49 23.15 37.17 2.25 11.56 2.37 24.26-3.59 34.8-6.22 11.98-18.66 19.79-31.72 22.2-11.78 2.1-23.77.9-35.65 1.32-1.63 10.17.89 21.52 8.6 28.74 9.88 9.24 23.11 13.4 35.76 17.31 15.39 4.46 31.78 7 47.69 3.86 2.71-.52 5.36-1.28 8.01-2.05 15.28-4.68 28.47-15.14 37.3-28.37 8.03-12.23 14.1-26.05 15.47-40.74 2.56-24.23 2.16-48.65 2.27-72.99-.16-17.64-1.4-35.27-3.49-52.79-.28-2.27-.61-4.54-.93-6.8-1.72-12.2-3.86-24.61-9.69-35.61-6.2-12.13-14.69-23.79-26.96-30.32-4.37-2.34-9.12-3.91-13.98-4.83-2.64-.43-5.32-.56-7.99-.52-16.81.89-33.64 5.37-48.06 14.21-21.72 13.48-39.97 32.49-52.18 54.99-5.86-.06-11.73-.03-17.59-.03-.28-53.77-.02-107.56-.12-161.33-.14-1.79-.51-3.54-.82-5.3l-.02-.22z" style="--darkreader-inline-fill:#252775"/><g fill="#fffe00"><path d="M372.2 75.31c27.15 17.79 50.24 41.77 66.88 69.65 19.07 31.73 29.8 68.46 30.58 105.49-9.71-.03-19.42.02-29.13-.03-6.5-15.3-16.4-29.13-28.83-40.18-10.42-9.24-21.77-17.48-34.13-23.93-17.99-9.53-37.73-15.49-57.81-18.54-20.28-2.8-40.86-3.62-61.29-2.57.01-8.09 0-16.18 0-24.27 20.44.08 41.09-3.86 59.47-12.97 23.08-11.22 41.91-30.07 55.24-51.82-.25-.21-.74-.62-.98-.83z" style="--darkreader-inline-fill:#999800"/><path d="M258.47 179.67c4.86.92 9.61 2.49 13.98 4.83 12.27 6.53 20.76 18.19 26.96 30.32 5.83 11 7.97 23.41 9.69 35.61-16.88.03-33.76 0-50.64.01.03-23.59.01-47.18.01-70.77z" style="--darkreader-inline-fill:#fffe1a"/></g><g fill="#ee1c24"><path d="M67.16 157.08c15.22-29.8 37.7-55.67 64.53-75.61l.02.22c-.33 55.54-.05 111.09-.14 166.63h1.08c5.86 0 11.73-.03 17.59.03 12.21-22.5 30.46-41.51 52.18-54.99 14.42-8.84 31.25-13.32 48.06-14.21.04 23.76-.01 47.53.03 71.3-69.07.01-138.13-.05-207.19.03.68-32.4 9.01-64.6 23.84-93.4z" style="--darkreader-inline-fill:#b80e14"/><path d="M149.83 112.24c32.36 12.95 65.38 26.77 100.66 28.45-.01 8.41.02 16.82-.02 25.22-38.48 3.97-74.48 23.99-99.73 53.05.13-11.34-.3-22.67-.16-34-.46-24.24.01-48.49-.75-72.72z" style="--darkreader-inline-fill:#f03138"/></g><path fill="#0fb04c" d="M43.25 255.71c69.08.03 138.16.01 207.24.01-.02 66.15.03 132.3-.02 198.45-15.91 3.14-32.3.6-47.69-3.86-12.65-3.91-25.88-8.07-35.76-17.31-7.71-7.22-10.23-18.57-8.6-28.74 11.88-.42 23.87.78 35.65-1.32 13.06-2.41 25.5-10.22 31.72-22.2 5.96-10.54 5.84-23.24 3.59-34.8-2.77-14.68-11.03-28.35-23.15-37.17-12.39-9.09-28.09-12.72-43.27-12.5-18.9.16-37.14 9.05-50.05 22.65-13.28 13.42-22.25 31.9-21.56 51.05.27 13.49 5.69 26.23 12.81 37.48-39.24-39.92-61.56-95.79-60.91-151.74z" style="--darkreader-inline-fill:#0c8d3d"/><g fill="#00b3f4"><path d="M258.44 257.26c17.2-.05 34.39.01 51.59-.03 2.09 17.52 3.33 35.15 3.49 52.79-.11 24.34.29 48.76-2.27 72.99-1.37 14.69-7.44 28.51-15.47 40.74-8.83 13.23-22.02 23.69-37.3 28.37-.04-64.95.04-129.9-.04-194.86z" style="--darkreader-inline-fill:#008fc3"/><path d="M443.16 257.25c8.91.02 17.82-.06 26.73.04-.26 43.76-13.56 87.64-39.03 123.35 9.36-17.24 15.61-36.12 18.14-55.57 2.77-22.64 1.65-46.14-5.84-67.82z" style="--darkreader-inline-fill:#21c4ff"/></g></svg>