<svg xmlns="http://www.w3.org/2000/svg" viewBox="0 0 248.9 268.2" style="enable-background:new 0 0 248.9 268.2" xml:space="preserve"><path d="M364.9 414.7c0 2.3-1.8 4.1-4.1 4.1h-33.1c-2.3 0-4.1-1.9-4.1-4.1v-33.1c0-2.3 1.8-4.1 4.1-4.1h33.1c2.3 0 4.1 1.8 4.1 4.1v33.1z" style="fill-rule:evenodd;clip-rule:evenodd;fill:#c15151" transform="matrix(1.29155 0 0 1.29155 -372.268 -487.51)"/><path d="M410 489.1c0 2.2-1.8 4-4 4h-32.2c-2.2 0-4-1.8-4-4v-32.2c0-2.2 1.8-4 4-4H406c2.2 0 4 1.8 4 4v32.2z" style="fill-rule:evenodd;clip-rule:evenodd;fill:#66689e" transform="matrix(1.29155 0 0 1.29155 -372.268 -487.51)"/><path d="M383.2 523.1c0 1.5-1.2 2.7-2.7 2.7h-21.6c-1.5 0-2.7-1.2-2.7-2.7v-21.6c0-1.5 1.2-2.7 2.7-2.7h21.6c1.5 0 2.7 1.2 2.7 2.7v21.6z" style="fill-rule:evenodd;clip-rule:evenodd;fill:#469bd0" transform="matrix(1.29155 0 0 1.29155 -372.268 -487.51)"/><path d="M393.9 442.6c0 3.1-2.5 5.6-5.6 5.6h-45.1c-3.1 0-5.6-2.5-5.6-5.6v-45.1c0-3.1 2.5-5.6 5.6-5.6h45.1c3.1 0 5.6 2.5 5.6 5.6v45.1z" style="fill-rule:evenodd;clip-rule:evenodd;fill:#edb156" transform="matrix(1.29155 0 0 1.29155 -372.268 -487.51)"/><path d="M453.6 474c0 3.1-2.5 5.6-5.6 5.6h-44.7c-3.1 0-5.6-2.5-5.6-5.6v-44.7c0-3.1 2.5-5.6 5.6-5.6H448c3.1 0 5.6 2.5 5.6 5.6V474z" style="fill-rule:evenodd;clip-rule:evenodd;fill:#00a25d" transform="matrix(1.29155 0 0 1.29155 -372.268 -487.51)"/><path d="M298.9 540.3v11.5h8.4v4.5h-8.4v17.3c0 4 1.1 6.3 4.4 6.3 1.6 0 2.5-.1 3.4-.4l.3 4.5c-1.1.4-2.9.8-5.2.8-2.7 0-4.9-.9-6.3-2.5-1.6-1.8-2.3-4.7-2.3-8.5v-17.5h-5v-4.5h5v-9.6l5.7-1.9zm165.4 31.6 6.9 12.2h9.7l-7.5-13.2c3.4-1.4 5.1-4.3 5.1-9.1 0-7-3.5-10.4-10.4-10.4h-13.6v32.8h8.1v-12.3h1.7zm-51.6-17.5c0 1.7.1 3.4.3 5.2-3.6-1.8-6.9-2.8-10.2-2.8-3 0-4.6 1.1-4.6 3.2 0 2.3 2 2.7 6.2 3.6 6.5 1.4 9.8 4 9.8 10.9 0 6.8-3.8 10.7-11 10.7-4.1 0-7.9-.6-11.3-1.7-.1-3.2-.2-6-.5-8.3 3.8 2.2 7.6 3.2 10.7 3.2 3.3 0 4.9-.9 4.9-3.2 0-2.6-1.9-2.9-5.2-3.8-3.1-.8-5.6-1.3-7.5-2.9-1.9-1.6-3.1-4.4-3.1-7.5 0-6.4 4.1-10.5 11.8-10.5 2.7 0 6 .5 9.7 1.6v2.3zm15.5-3v19c0 4.7 1.6 6.9 5.4 6.9s5.4-2.3 5.4-6.9v-16.1l7.8-2.9v19.1c0 10.2-3.7 14.7-13.6 14.7-9.3 0-13.3-4.2-13.3-14.2v-16.7l8.3-2.9zm-112.7 17.5c.1 7.9 5.1 11.1 11 11.1 4.2 0 6.8-.7 8.9-1.7l1.1 4.2c-2.1.9-5.7 2.1-10.8 2.1-9.9 0-15.9-6.6-15.9-16.3s5.8-17.4 15.2-17.4c10.5 0 13.3 9.3 13.3 15.2 0 1.2-.1 2.1-.2 2.7l-22.6.1zm28.7-30.9h5.9v46h-5.9v-46zm17.7 30.9c.1 7.9 5.1 11.1 11 11.1 4.2 0 6.8-.7 8.9-1.7l1.1 4.2c-2.1.9-5.7 2.1-10.8 2.1-9.9 0-15.9-6.6-15.9-16.3s5.8-17.4 15.2-17.4c10.5 0 13.3 9.3 13.3 15.2 0 1.2-.1 2.1-.2 2.7l-22.6.1zm100.7-2.6h2.9c3.5 0 5.2-.9 5.2-4.9 0-3.6-1.6-4.4-5-4.4h-3v9.3h-.1zm-83.6-1.6c.1-3.7-1.5-9.5-8.1-9.5-6 0-8.5 5.5-9 9.5H379zm-46.4 0c.1-3.7-1.5-9.5-8.1-9.5-6 0-8.5 5.5-9 9.5h17.1z" style="fill-rule:evenodd;clip-rule:evenodd;fill:#fff" transform="matrix(1.29155 0 0 1.29155 -372.268 -487.51)"/></svg>