<svg xmlns="http://www.w3.org/2000/svg" viewBox="0 0 312.9 351.9" style="enable-background:new 0 0 312.9 351.9" xml:space="preserve"><path d="M111.1 3.8c-.2-2.1 1.7-4 3.8-3.8H309c2.7-.2 4.1 2.5 3.8 4.8v71c-.1 1.5.1 3.4-1.3 4.5-10.3 7.9-17.6 19.1-23.4 30.5-11.4 23-16.8 48.5-19.6 73.9-2.7 26.3-2.4 52.8-.5 79.1.5 2.2-.5 4.9-3.1 4.9-35.3-.1-70.7 0-106.1 0-3.2.2-3.8-3.5-3.2-5.9 3.4-31.7 11.2-62.8 22.8-92.5 12.6-31.9 30.2-62.1 53.9-87 .6-.7 1.2-1.4 1.7-2.2-39.7.1-79.5 0-119.2 0-1.8 0-4-.4-4-2.3.5-24.9.3-49.9.3-75z" style="fill:#ea2227"/><path d="M58.2 42.8c-.2-2.1 1.8-3.9 3.8-3.7 14.8-.1 29.6.2 44.4-.1.4 13.2-.1 26.5.2 39.7.3 4.2 4.3 7.6 8.5 7.3 36.3-.1 72.5.1 108.8-.1-22 25.2-38.8 54.7-50.8 85.9-11.2 29.6-18.9 60.6-22 92-1.1 4.8 3 9.9 7.9 9.6 18.1.1 36.1-.1 54.2.1l.5.4c.3 10 .7 20 1.5 30 .5 2.4-1.8 4.4-4.1 4.1-35 0-70.1.1-105.1 0-2.7.1-3.9-2.8-3.3-5.1 3.4-33 11.7-65.5 24.1-96.3 12.8-31.6 30.7-61.5 54.6-86l-3.3-.3c-38.7.1-77.4 0-116 0-2.1.3-4-1.4-3.9-3.5v-74z" style="fill:#124c9b"/><path d="M2.2 83c17.1 0 34.2.2 51.3 0 .3 11.6 0 23.2.2 34.8.1 4.3 4.3 7.7 8.5 7.3 36.3-.1 72.5.1 108.7-.1-14.1 16.4-26.4 34.3-36.2 53.5-19.8 38.6-32 81.2-36.5 124.3-1.1 4.9 2.9 10 8 9.9 16.4.1 32.8 0 49.2 0 .3 11.8.6 23.6 1.7 35.4.2 2.1-1.8 4.1-3.9 3.8h-105c-2.6.3-4.3-2.5-3.6-4.8 3.1-30.3 10.4-60.2 21.1-88.7 13-34.6 31.9-67.2 57.7-93.9-40-.4-80 0-120-.2-1.8.1-3.4-1.5-3.1-3.3 0-25.3-.1-50.7 0-76 .5-.7 1.2-1.3 1.9-2z" style="fill:#97c93e"/></svg>