<svg xmlns="http://www.w3.org/2000/svg" viewBox="12.52 14.21 713.33 294.64"><g fill="#fff"><path d="M12.52 14.27c73.33-.07 146.66-.1 219.99.02-.06 17.82-.01 35.63-.03 53.45-11.06.17-22.13-.11-33.2.14.11 16.09.08 32.18.02 48.27 11.06.19 22.13-.01 33.19.11.02 41.57-.04 83.15.03 124.72.39 18.33 2.32 37.52 11.88 53.6 3.31 5.13 7.07 10.09 11.89 13.9-1.77.2-3.53.37-5.3.37-79.48-.07-158.96.07-238.44-.06-.05-98.18.01-196.35-.03-294.52zM307.19 14.23c132.93 0 265.86-.04 398.79.02 2.33-.01 4.67.09 7.01.32-.97.41-1.9.96-2.95 1.08-20.61.44-42.32 2.97-60.09 14.28-14.03 8.74-23.24 23.94-25.95 40.11-2.77 16.11-2.41 33.25 3.61 48.61 4.14 10.87 13.02 19.33 23.44 24.19-12.42 5.43-23.77 15.71-26.93 29.34-4.27 18.28-4.68 37.19-4.31 55.88 1.09 14.68 1.84 30 8.74 43.33 8.35 15.43 24.14 25.59 40.62 30.52 11.23 3.57 23.07 4.28 34.73 5.23 2.5.09 5.02.13 7.53.2.57.35 1.71 1.04 2.27 1.39-43.36.18-86.72.12-130.08.06.01-51.94.04-103.89-.02-155.83-.64-21.48-4.14-43.96-16.48-62.09-7.89-11.85-20.31-20.34-33.99-24.08-14.38-3.93-29.7-3.9-44.21-.68-15.45 3.53-29.77 11.67-40.74 23.09-2.43 2.78-4.65 5.76-7.41 8.22-1.67-9.81-2.42-19.75-3.64-29.62-21.45 0-42.91-.04-64.36.01-.35 6.07.79 12.08.7 18.14.18 14.7 1.39 29.35 1.31 44.06.1 59.61-.02 119.21.06 178.82-6.48 0-12.96.01-19.44-.01-.14-13.81-.04-27.61-.32-41.42-9.62.82-19.52 2.6-29.05.15-6.52-1.63-11.84-6.65-14.71-12.62-3.38-6.77-4.21-14.48-4.14-21.95 0-38.92-.01-77.85 0-116.77 18.15.05 36.29-.02 54.43.04.21-16.13 0-32.26.11-48.38-18.18-.19-36.35-.02-54.53-.09-.03-17.85-.02-35.7 0-53.55z" style="--darkreader-inline-fill:#181a1b"/><path d="M709.67 58.84c4.9-.41 11 1.16 12.83 6.31 2.75 8.34 1.89 17.27 2.05 25.91-.17 9.02.64 18.21-1.52 27.07-2.09 10.27-18.62 10.75-22.68 1.7-1.96-4.67-2.14-9.84-2.15-14.84 0-8.35-.02-16.7.01-25.06.03-5.36.23-10.94 2.45-15.92 1.63-3.37 5.48-4.85 9.01-5.17z" style="--darkreader-inline-fill:#e8e6e3"/><path d="M459.31 132.48c6.03-9 17.82-13.72 28.36-11.12 7.05 1.25 12.97 6.38 16.08 12.71 4 8 5.27 17.08 5.1 25.94.03 49.61.05 99.22-.01 148.82-19.8-.07-39.6.15-59.39-.1.28-45.91.05-91.82.12-137.73-.28-13.34 1.9-27.4 9.74-38.52z" style="--darkreader-inline-fill:#181a1b"/><path d="M707.34 172.56c4.97-.84 10.85-.14 14.25 3.99 3.38 4.16 3.76 9.82 4.15 14.95.21 12.82.04 25.65.09 38.47-.08 8.93.46 18.01-1.73 26.76-1.32 3.78-4.9 6.94-9.02 7.03-3.99.18-8.45.51-11.82-2.05-3.51-2.24-4.98-6.4-5.61-10.32-2.03-12.01-.87-24.24-1.18-36.35.35-11.57-1.12-23.43 2.08-34.72 1.05-4.11 4.72-6.99 8.79-7.76z" style="--darkreader-inline-fill:#e8e6e3"/></g></svg>