<svg width="352" height="163pt" viewBox="0 0 264 163" xmlns="http://www.w3.org/2000/svg"><g fill="#3a003d"><path d="M0 0h264v163H0V0m7.56 46.54c-.03 2.98.06 5.96.04 8.93-2.13-.02-4.26-.01-6.39.04.03 5.75.06 11.5-.02 17.25 2.15.15 4.29.31 6.44.46-.01 7.27-.2 14.56.14 21.82.33 5.62 3.07 11.42 8.35 13.93 8.34 4.01 18.14 2.74 26.61-.19.24-5.87.1-11.76.15-17.64-2.91.62-5.85 1.65-8.86 1.22-2.05-.41-3.6-2.33-3.51-4.43-.23-4.92.01-9.85-.1-14.77 4.18-.23 8.36-.3 12.55-.31.09-5.8.19-11.6.02-17.41-4.17-.01-8.35-.03-12.52.03-.03-4.12-.03-8.24 0-12.36-7.68.79-15.29 2.15-22.9 3.43m70.5 10.54c-3.17 2.15-5.28 5.45-6.92 8.84.03-3.49-.16-6.98-.35-10.47-7.53-.05-15.06.03-22.59-.05.01 18.31.06 36.62-.04 54.93 7.56-.02 15.12-.01 22.68 0 1.12-8.31-1.4-17.3 2.39-25.11 2.76-5.55 9.42-6.59 14.99-6.58-.16-8.11.33-16.24-.33-24.33-3.38.39-6.93.83-9.83 2.77m23.22 2.23c-13.93 9.88-15.6 32.81-3.06 44.48 7.78 7.43 19.49 8.97 29.7 6.98 6.89-1.32 12.65-5.73 17.18-10.9-3.88-3.48-8.07-6.58-12.14-9.84-3.61 3.08-7.95 6.16-12.97 5.42-4.2-.3-7.11-3.63-9.02-7.08 11.87-.32 23.75-.02 35.63-.19.33-7.59-.52-15.58-4.67-22.13-3.34-5.72-9.3-9.61-15.69-11.04-8.43-1.9-17.87-.94-24.96 4.3m53.17 8.11c-7.6 11.4-5.44 28.17 5.05 37.08 13.14 12.02 37.66 8.76 45.59-7.78-5.35-3.17-10.83-6.13-16.17-9.31-1.78 1.66-3.35 3.63-5.51 4.8-3.45 1.19-7.87.38-9.78-2.98-3.76-5.37-1.57-15.3 5.75-16.01 4.08-.79 6.99 2.49 9.42 5.21 5.25-3.21 10.75-6 15.98-9.24-2.28-3.9-4.95-7.7-8.75-10.26-13.05-8.84-33.17-5.04-41.58 8.49m72.97-12.71c-7.48 1.37-14 6.25-17.94 12.67-5.16 8.79-5.5 20.11-1.1 29.28 3.76 7.69 11.63 12.8 19.94 14.28 6.88 1.17 14.22.82 20.7-1.96 4.57-2.03 8.25-5.52 11.66-9.08-3.83-3.28-7.75-6.48-11.76-9.54-3.97 1.59-7.17 5.69-11.93 5.12-4.76.39-8.44-3.18-10.44-7.12 11.87-.34 23.76-.01 35.64-.17.37-9.28-1.17-19.53-8.05-26.34-6.7-7.2-17.43-8.77-26.72-7.14z"/><path d="M110.78 77.85c1.03-3.82 3.48-8.67 8.23-7.89 4.21.22 6.1 4.37 6.98 7.91-5.05.5-10.16.51-15.21-.02zM230.73 70.56c2.73-.81 6.19-.76 8.23 1.51 1.47 1.7 1.92 4 2.65 6.07-5.12.07-10.25.1-15.36-.04 1.01-2.71 1.73-6.01 4.48-7.54z"/></g><g fill="#28fff8"><path d="M7.56 46.54c7.61-1.28 15.22-2.64 22.9-3.43-.03 4.12-.03 8.24 0 12.36 4.17-.06 8.35-.04 12.52-.03.17 5.81.07 11.61-.02 17.41-4.19.01-8.37.08-12.55.31.11 4.92-.13 9.85.1 14.77-.09 2.1 1.46 4.02 3.51 4.43 3.01.43 5.95-.6 8.86-1.22-.05 5.88.09 11.77-.15 17.64-8.47 2.93-18.27 4.2-26.61.19-5.28-2.51-8.02-8.31-8.35-13.93-.34-7.26-.15-14.55-.14-21.82-2.15-.15-4.29-.31-6.44-.46.08-5.75.05-11.5.02-17.25 2.13-.05 4.26-.06 6.39-.04.02-2.97-.07-5.95-.04-8.93zM78.06 57.08c2.9-1.94 6.45-2.38 9.83-2.77.66 8.09.17 16.22.33 24.33-5.57-.01-12.23 1.03-14.99 6.58-3.79 7.81-1.27 16.8-2.39 25.11-7.56-.01-15.12-.02-22.68 0 .1-18.31.05-36.62.04-54.93 7.53.08 15.06 0 22.59.05.19 3.49.38 6.98.35 10.47 1.64-3.39 3.75-6.69 6.92-8.84z"/><path d="M101.28 59.31c7.09-5.24 16.53-6.2 24.96-4.3 6.39 1.43 12.35 5.32 15.69 11.04 4.15 6.55 5 14.54 4.67 22.13-11.88.17-23.76-.13-35.63.19 1.91 3.45 4.82 6.78 9.02 7.08 5.02.74 9.36-2.34 12.97-5.42 4.07 3.26 8.26 6.36 12.14 9.84-4.53 5.17-10.29 9.58-17.18 10.9-10.21 1.99-21.92.45-29.7-6.98-12.54-11.67-10.87-34.6 3.06-44.48m9.5 18.54c5.05.53 10.16.52 15.21.02-.88-3.54-2.77-7.69-6.98-7.91-4.75-.78-7.2 4.07-8.23 7.89zM154.45 67.42c8.41-13.53 28.53-17.33 41.58-8.49 3.8 2.56 6.47 6.36 8.75 10.26-5.23 3.24-10.73 6.03-15.98 9.24-2.43-2.72-5.34-6-9.42-5.21-7.32.71-9.51 10.64-5.75 16.01 1.91 3.36 6.33 4.17 9.78 2.98 2.16-1.17 3.73-3.14 5.51-4.8 5.34 3.18 10.82 6.14 16.17 9.31-7.93 16.54-32.45 19.8-45.59 7.78-10.49-8.91-12.65-25.68-5.05-37.08z"/><path d="M227.42 54.71c9.29-1.63 20.02-.06 26.72 7.14 6.88 6.81 8.42 17.06 8.05 26.34-11.88.16-23.77-.17-35.64.17 2 3.94 5.68 7.51 10.44 7.12 4.76.57 7.96-3.53 11.93-5.12 4.01 3.06 7.93 6.26 11.76 9.54-3.41 3.56-7.09 7.05-11.66 9.08-6.48 2.78-13.82 3.13-20.7 1.96-8.31-1.48-16.18-6.59-19.94-14.28-4.4-9.17-4.06-20.49 1.1-29.28 3.94-6.42 10.46-11.3 17.94-12.67m3.31 15.85c-2.75 1.53-3.47 4.83-4.48 7.54 5.11.14 10.24.11 15.36.04-.73-2.07-1.18-4.37-2.65-6.07-2.04-2.27-5.5-2.32-8.23-1.51z"/></g></svg>