<svg xmlns="http://www.w3.org/2000/svg" viewBox="346.34 154 510.12 509.26"><g fill="#fff"><path d="M680.05 197.14c11.02-1.42 22.49 1.71 31.42 8.29 8.92 6.5 15.24 16.49 17.21 27.35 2.52 12.76-.94 26.57-9.3 36.55-8.89 10.94-23.28 17.08-37.34 15.97-12.73-.82-24.94-7.52-32.45-17.83-7.51-10.05-10.3-23.35-7.68-35.6 3.58-18.16 19.68-32.93 38.14-34.73m.45 14.45c-10.23 1.54-19.32 8.81-23.06 18.46-5 12.3-.77 27.65 10.21 35.28 11.75 8.84 29.84 7.03 39.61-3.96 7.72-8.19 9.9-20.92 5.71-31.31-4.77-12.76-19.07-20.87-32.47-18.47z" style="--darkreader-inline-fill:#e8e6e3"/><path d="M681.4 227.52c8.16-2.63 17.62 3.88 17.86 12.49.9 7.33-5.03 14.48-12.32 15.18-6.99 1.02-14.22-4.08-15.53-11.02-1.72-7.03 2.91-14.93 9.99-16.65z" style="--darkreader-inline-fill:#e8e6e3"/></g><g fill="#f48920"><path d="M549.75 158.94c17.68-3.79 35.85-5.15 53.9-4.91 8.99 39.34 12.08 79.73 13.7 119.94.92 8.31.37 16.69 1.12 25.01.53 6.02.62 12.07.49 18.11-4.47-3.38-9.75-5.44-14.22-8.79-11.59-5.63-23.35-10.98-35.61-14.98-3.8-45.14-11.91-89.75-19.38-134.38z" style="--darkreader-inline-fill:#b65f09"/><path d="M734.5 431.49c7.08-7.68 13.97-15.59 19.83-24.25 23.39 47.53 39.49 98.12 56.29 148.22-53.61-20.7-106.78-42.63-158.81-67.04 16.56-7.19 32.65-15.62 47.28-26.24 7.08-3.57 12.44-9.63 18.66-14.44 5.39-5.61 11.56-10.44 16.75-16.25z" style="--darkreader-inline-fill:#f59332"/></g><g fill="#ea232a"><path d="M603.65 154.03c42.49.32 84.85 11.63 121.96 32.32 1.15.74 2.77 1.2 3.15 2.71 5.54 14.28 12.02 28.47 21.79 40.39 6.58 8.21 15.43 14.77 25.63 17.64 4.53 45.66-5.99 92.82-29.97 131.99-6.32-7.08-14.61-11.96-22.85-16.47-6.75-3.45-13.47-7-20.57-9.69 15.04 10.12 25.22 25.78 33.02 41.81-7.33 10.04-15.14 19.91-24.6 28.04-16.16-35.57-40.56-67.62-71.69-91.37-6.42-5.37-13.41-9.98-20.56-14.31.13-6.04.04-12.09-.49-18.11-.75-8.32-.2-16.7-1.12-25.01-1.62-40.21-4.71-80.6-13.7-119.94m76.4 43.11c-18.46 1.8-34.56 16.57-38.14 34.73-2.62 12.25.17 25.55 7.68 35.6 7.51 10.31 19.72 17.01 32.45 17.83 14.06 1.11 28.45-5.03 37.34-15.97 8.36-9.98 11.82-23.79 9.3-36.55-1.97-10.86-8.29-20.85-17.21-27.35-8.93-6.58-20.4-9.71-31.42-8.29z" style="--darkreader-inline-fill:#b31117"/><path d="M680.5 211.59c13.4-2.4 27.7 5.71 32.47 18.47 4.19 10.39 2.01 23.12-5.71 31.31-9.77 10.99-27.86 12.8-39.61 3.96-10.98-7.63-15.21-22.98-10.21-35.28 3.74-9.65 12.83-16.92 23.06-18.46m.9 15.93c-7.08 1.72-11.71 9.62-9.99 16.65 1.31 6.94 8.54 12.04 15.53 11.02 7.29-.7 13.22-7.85 12.32-15.18-.24-8.61-9.7-15.12-17.86-12.49z" style="--darkreader-inline-fill:#ec363d"/></g><g fill="#ebe214"><path d="M494.63 176.34c17.56-8.04 36.16-13.8 55.12-17.4 7.47 44.63 15.58 89.24 19.38 134.38-6.54-2.33-13.26-4.06-19.94-5.87-12.67-39.45-31.89-76.52-54.56-111.11z" style="--darkreader-inline-fill:#ede52c"/><path d="M648.1 489.74c1.23-.45 2.46-.89 3.71-1.32 52.03 24.41 105.2 46.34 158.81 67.04-26.29 38.05-63.11 68.76-105.32 87.68-9.11 4.01-18.34 7.93-27.98 10.41-9.62-54.62-19.41-109.22-29.22-163.81z" style="--darkreader-inline-fill:#8d880c"/></g><path fill="#25bebb" d="M360.23 319.4c23.42-62.98 72.76-116.06 134.4-143.06 22.67 34.59 41.89 71.66 54.56 111.11-47.85-11.62-99.25-8.45-145.07 9.72-15.4 5.8-29.77 13.88-43.89 22.23z" style="--darkreader-inline-fill:#1e9896"/><path fill="#76489c" d="M799.02 248.19c16.51 19.78 29.51 42.39 39.25 66.22-.81.45-1.62.9-2.42 1.34-14.35 2.54-28.34 6.71-42.18 11.22-.2.27-.59.81-.79 1.08-.45 1.97.8 3.7 1.55 5.43 15.1 32.38 39.38 59.05 61.63 86.57-1.4.03-2.79.05-4.18.06-24.13-2.99-48.23-6.35-72.34-9.47-7.25-1.11-14.58-1.59-21.73-3.23-1.18-.22-2.36-.4-3.54-.52 5.71-6.44 9.87-14.12 14.29-21.48 23.62-41.31 34.25-89.81 30.46-137.22z" style="--darkreader-inline-fill:#5e3a7d"/><path fill="#3ac3f1" d="M387.76 327.87c39.17-20.51 84.37-28.11 128.25-24.53 19.13 1.35 37.95 5.24 56.65 9.3-5.88 9.83-12.18 19.41-17.29 29.68-17.42 34.47-30.33 71.52-35.62 109.86-5.02 35.86-2.13 73.63 13.38 106.71 14.33 31 39.21 56.15 67.89 74.21 16.51 10.25 33.48 19.75 49.93 30.08-14.32.33-28.63-.39-42.94-.18-13.84.35-27.63-1.35-41.26-3.62-37.4-6.51-73.84-19.69-105.91-40.15-28.08-17.84-52.42-41.6-70.59-69.48-20.5-31.24-33.07-67.2-39.39-103.89-2.13-11.64-3.33-23.41-4.52-35.17 13.46-11.98 28.44-22.15 43.7-31.68 21.96-13.25 45.48-24.76 70.83-29.65 12.39-2.51 25.07-1.7 37.62-2.39-3.9 11.38-8.26 22.61-11.19 34.3-10.2 38.96-15.43 79.59-12.05 119.84 1.67 19.73 5.95 39.23 12.94 57.76 4.35 12.46 8.9 24.86 13.1 37.38-7.23-4.92-14.06-10.38-21.13-15.5-9.4-7.15-19.52-13.56-27.37-22.51-29.81-32.48-46.08-75.31-52.97-118.36-.81-5.35-2.34-11.36.89-16.22 3.73-6.53 12.97-8.67 19.32-4.74 3.86 2.32 6.49 6.44 6.86 10.95 3.06 22.1 8.85 43.88 17.92 64.29.5 1.05 1.14 2.04 1.78 3.03-2.61-39.8 2.3-79.83 11.99-118.44-18.56 4.88-35.83 13.66-52.23 23.47-10.45 6.45-20.78 13.18-30.4 20.84 4.63 36.4 14.54 72.66 33.5 104.34 17.05 28.99 41.4 53.56 70.07 71.11 20.91 12.89 43.89 22.29 67.66 28.37-8.81-9.27-17.46-18.79-24.59-29.45C502.25 568 491.35 532.6 489.57 497c-2.28-41.83 6.45-83.59 20.79-122.73a406.213 406.213 0 0 1 17.87-41.29c-40.67-5.54-83.19-.67-120.53 16.83-19.3 9.14-37.54 21.13-52.07 36.9-2.34 2.39-5.65 3.3-8.86 3.71 0-12.55 1.1-25.14 3.4-37.48 11.33-9.94 24.24-18.09 37.59-25.07z" style="--darkreader-inline-fill:#0c7fa6"/><g fill="#eb188c"><path d="M793.67 326.97c13.84-4.51 27.83-8.68 42.18-11.22.69-.12 2.08-.38 2.77-.5 12.84 33.23 19.61 69.15 17.44 104.8-22.25-27.52-46.53-54.19-61.63-86.57-.75-1.73-2-3.46-1.55-5.43.2-.27.59-.81.79-1.08zM754.33 407.24c.87.05 2.61.13 3.48.17 7.15 1.64 14.48 2.12 21.73 3.23 24.11 3.12 48.21 6.48 72.34 9.47 1.49.12 2.97.08 4.49.09-2.11 48.19-17.88 95.83-45.75 135.26-16.8-50.1-32.9-100.69-56.29-148.22z" style="--darkreader-inline-fill:#ed2e97"/></g><path fill="#becd30" d="M547.85 506.64c34.08.97 68.53-4.13 100.25-16.9 9.81 54.59 19.6 109.19 29.22 163.81l.04.3c-4.43 1.1-8.73 2.86-13.27 3.49-26.79-12.95-50.87-31.69-69.9-54.59-23.24-27.45-39.17-60.89-46.34-96.11z" style="--darkreader-inline-fill:#98a426"/></svg>