<svg version="1.1" id="Capa_1" xmlns="http://www.w3.org/2000/svg" x="0" y="0" viewBox="0 0 138.9 139.7" style="enable-background:new 0 0 138.9 139.7" xml:space="preserve"><style>.st0{fill:#fff}.st1{fill:#e71173}</style><g id="_x23_4a256bff"><path class="st0" d="M61.5 1.7c21.8-4.7 45.5.5 63.2 14-.9 1.1-1.7 2.3-2.4 3.5-14-10.7-31.9-16.3-49.6-14.8-17.3 1.1-34.1 8.9-46.4 21.1C14.9 36.7 7.2 51.7 5 67.6c-1.6 12.8-.4 26.1 4.7 37.9 3.4 8.2 8.4 15.7 14.4 22.2-1 1.2-1.9 2.4-2.9 3.7C8.6 118.4.7 100.8.1 82.6c-1.1-17.1 4-34.4 13.6-48.5 11-16.4 28.5-28.3 47.8-32.4z"/><path class="st0" d="M20.2 104c-8.8-18.3-7.7-40.7 2.8-58.1 5.3 2.9 10.6 5.8 15.9 8.5-7.4 11.7-9 27-3.9 39.9 7.1 18.7 27.9 30.5 47.5 27.7 15-1.7 28.5-12 34.7-25.7 5.2 2.8 10.3 5.4 15.4 8.3-7.3 15.2-21.1 27.2-37.3 32.2-13 4.2-27.3 3.9-40.1-.8-15.2-5.5-28.1-17.3-35-32z"/><path class="st0" d="M48.9 94.3C42.4 84 43 70.2 49.6 60c18.9 10.3 37.9 20.3 56.8 30.4-4.3 10.1-14 17.8-24.9 19.3-12.6 2.1-26.1-4.2-32.6-15.4z"/></g><g id="_x23_e71173ff"><path class="st1" d="M124.8 15.7c5-4.6 14.2-.8 14.1 6 .7 5.9-6 10.9-11.4 8.5-4.4-1.4-6.6-6.7-5.1-11 .7-1.2 1.5-2.4 2.4-3.5zM55.8 19c14.7-5.3 31.4-4.7 45.7 1.6 14.9 6.4 27.2 19 33 34.1 6.4 15.9 5.7 34.4-1.8 49.8-5.1-2.8-10.3-5.5-15.4-8.3 3.5-7.7 4.9-16.5 3.6-24.9-2.1-14.5-11.9-27.7-25.3-33.8-9.5-4.5-20.6-5.4-30.8-2.7-10.6 3-20.1 10.1-25.9 19.5-5.4-2.7-10.7-5.6-15.9-8.5C30.4 33.5 42.2 23.7 55.8 19z"/><path class="st1" d="M68.5 46.6c9.8-2.7 20.9-.2 28.7 6.4 10.8 8.8 14.8 24.7 9.3 37.5-19-10.1-38-20.1-56.8-30.4 4.4-6.6 11.1-11.6 18.8-13.5z"/></g></svg>