<?xml version="1.0" encoding="utf-8"?>
<svg version="1.1" id="Capa_1" x="0" y="0" style="enable-background:new 0 0 595.28 841.89" viewBox="105.98 232.55 362.63 362.21" xmlns="http://www.w3.org/2000/svg">
  <style>.st1{fill:#e62929}.st12{fill:#d6da23}.st14{fill:#dadb21}.st20{fill:#e2df23}.st39{fill:#faea27}</style>
  <path d="m259.44 302.89 57.78-70.34c19.64 18.86 35.26 38.01 46.92 57.32l-82.31 29.79c-7.37-5.63-13.68-11.93-22.39-16.77" style="fill:#295ca8"/>
  <path class="st1" d="m127.32 491.56-4.25 22.75H110.7l-4.72 21.8h13.5l-4.25 19.92s-10.95 37.66 18.21 37.66h16.62l4.25-22.75h-6.13s-7.18 0-5.48-10.67l3.12-25.11h24.64l-11.14 58.99s79.85 12.84 88.63-79.38H221.9s-3.77 44.55-33.89 57.58l14.91-58.52h-52.39l5.48-25.87-28.69 3.6" style="fill: rgb(255, 255, 255);"/>
  <path d="M253.46 530.58c4.6-7.78 13.83-14.32 25.38-16.99 18.62-4.3 36.23 3.1 39.33 16.52 3.1 13.42-9.48 27.79-28.1 32.09-6.71 1.55-13.28 1.58-19.09.36-1.8 20.54 37.68 1.95 37.68 1.95 26.81-14.73 32-52.86 32-52.86 64.47 4.72 38.13 59.28 38.13 59.28l12.84-.47-3.59 22.28H336.4c35.12-32.94 18.69-53.33 18.69-53.33-11.61 41.25-51.92 50.5-51.92 50.5-66.17 19.45-60.88-27.75-60.88-27.75.56-14.21 6.43-25.05 11.17-31.58zm19.85 16.48 3.57-7.48c.19-.35.38-.68.57-.99.47-1.12 1.31-2.22 2.5-3.15 2.81-2.2 6.56-2.65 8.75-1.17.28.1.7.4.72.62 1.83 2.01 1 5.39-1.95 7.7-.51.4-1.05.74-1.63 1.03-1.09.84-2.49 1.54-4.31 1.96l-8.22 1.48" style="fill-rule: evenodd; clip-rule: evenodd; fill: rgb(255, 255, 255);"/>
  <path d="M343.37 493.77c2.49-9.81 21.12-94.9-59.69-176.32l80.47-27.58c40.77 67.54 33.04 137.12-20.78 203.9" style="fill:#e6e12a"/>
  <defs>
    <path id="SVGID_1_" d="M343.37 493.77c2.49-9.81 21.12-94.9-59.69-176.32l80.47-27.58c40.77 67.54 33.04 137.12-20.78 203.9z"/>
  </defs>
  <clipPath id="SVGID_00000045600772443703293810000000369517470478589086_">
    <path d="M343.37 493.77c2.49-9.81 21.12-94.9-59.69-176.32l80.47-27.58c40.77 67.54 33.04 137.12-20.78 203.9z" transform="matrix(1, 0, 0, 1, 0, 0)" style="overflow: visible;"/>
  </clipPath>
  <g transform="matrix(.13333 0 0 -.13333 45.967 410.104)" style="clip-path:url(#SVGID_00000045600772443703293810000000369517470478589086_)">
    <path d="m1571.58 561.28 768.37 425.91-8.37 15.08-768.36-425.91 8.36-15.08z" style="fill:#ced71e"/>
    <path d="m1579.81 546.43 768.37 425.91-8.37 15.08-768.36-425.91 8.36-15.08z" style="fill:#cfd722"/>
    <path d="m1588.05 531.57 768.36 425.91-8.36 15.09-768.37-425.91 8.37-15.09z" style="fill:#d0d822"/>
    <path d="m1596.28 516.72 768.36 425.91-8.36 15.09-768.36-425.91 8.36-15.09z" style="fill:#d1d822"/>
    <path d="m1604.51 501.87 768.37 425.91-8.37 15.09-768.36-425.91 8.36-15.09z" style="fill:#d2d823"/>
    <path d="m1612.74 487.02 768.37 425.91-8.37 15.09-768.36-425.91 8.36-15.09z" style="fill:#d3d923"/>
    <path d="m1620.97 472.17 768.37 425.91-8.37 15.09-768.36-425.91 8.36-15.09z" style="fill:#d5da24"/>
    <path class="st12" d="m1629.21 457.32 768.36 425.91-8.36 15.09-768.36-425.91 8.36-15.09z"/>
    <path class="st12" d="m1637.44 442.47 768.36 425.91-8.36 15.09-768.36-425.91 8.36-15.09z"/>
    <path d="m1645.67 427.62 768.37 425.91-8.37 15.09-768.36-425.91 8.36-15.09z" style="fill:#d7da22"/>
    <path class="st14" d="m1653.9 412.77 768.37 425.91-8.37 15.09-768.36-425.91 8.36-15.09z"/>
    <path class="st14" d="m1662.13 397.92 768.37 425.91-8.37 15.08L1653.77 413l8.36-15.08z"/>
    <path d="m1670.37 383.07 768.36 425.91-8.36 15.08L1662 398.15l8.37-15.08z" style="fill:#dbdc21"/>
    <path d="m1678.6 368.22 768.36 425.91-8.36 15.09-768.36-425.91 8.36-15.09z" style="fill:#dddd21"/>
    <path d="m1686.83 353.37 768.36 425.91-8.36 15.08-768.36-425.91 8.36-15.08z" style="fill:#dedd21"/>
    <path d="m1695.06 338.52 768.36 425.91-8.36 15.09-768.36-425.91 8.36-15.09z" style="fill:#dfde22"/>
    <path d="m1703.29 323.67 768.37 425.91-8.37 15.08-768.36-425.91 8.36-15.08z" style="fill:#dfde24"/>
    <path class="st20" d="m1711.53 308.82 768.36 425.91-8.36 15.09-768.37-425.91 8.37-15.09z"/>
    <path class="st20" d="m1719.76 293.97 768.36 425.91-8.36 15.09-768.37-425.91 8.37-15.09z"/>
    <path d="m1727.99 279.12 768.36 425.91-8.36 15.08-768.37-425.91 8.37-15.08z" style="fill:#e4e022"/>
    <path d="m1736.22 264.27 768.36 425.91-8.36 15.09-768.37-425.91 8.37-15.09z" style="fill:#e5e023"/>
    <path d="m1744.45 249.42 768.36 425.91-8.36 15.08-768.36-425.91 8.36-15.08z" style="fill:#e6e123"/>
    <path d="m1752.68 234.57 768.36 425.91-8.36 15.09-768.36-425.91 8.36-15.09z" style="fill:#e7e126"/>
    <path d="m1760.91 219.72 768.37 425.91-8.37 15.09-768.36-425.91 8.36-15.09z" style="fill:#e8e228"/>
    <path d="m1769.15 204.87 768.36 425.91-8.36 15.08-768.37-425.91 8.37-15.08z" style="fill:#eae327"/>
    <path d="m1777.38 190.02 768.36 425.91-8.36 15.09-768.37-425.91 8.37-15.09z" style="fill:#ece328"/>
    <path d="m1785.61 175.17 768.36 425.91-8.36 15.08-768.37-425.91 8.37-15.08z" style="fill:#ece427"/>
    <path d="m1793.84 160.32 768.36 425.91-8.36 15.09-768.37-425.91 8.37-15.09z" style="fill:#eee427"/>
    <path d="m1802.07 145.47 768.37 425.91-8.37 15.09-768.37-425.91 8.37-15.09z" style="fill:#efe526"/>
    <path d="m1810.3 130.62 768.37 425.91-8.37 15.08-768.36-425.91 8.36-15.08z" style="fill:#f0e526"/>
    <path d="m1818.53 115.77 768.37 425.91-8.37 15.09-768.36-425.91 8.36-15.09z" style="fill:#f1e625"/>
    <path d="m1826.76 100.92 768.37 425.91-8.37 15.08L1818.4 116l8.36-15.08z" style="fill:#f3e624"/>
    <path d="m1835 86.07 768.36 425.91-8.36 15.09-768.37-425.91 8.37-15.09z" style="fill:#f3e724"/>
    <path d="m1843.23 71.22 768.36 425.91-8.36 15.09-768.36-425.91 8.36-15.09z" style="fill:#f5e727"/>
    <path d="m1851.46 56.37 768.36 425.91-8.36 15.09L1843.1 71.46l8.36-15.09z" style="fill:#f7e826"/>
    <path d="m1859.69 41.52 768.36 425.91-8.36 15.09-768.36-425.91 8.36-15.09z" style="fill:#f7e928"/>
    <path d="m1867.92 26.67 768.37 425.91-8.37 15.08-768.36-425.91 8.36-15.08z" style="fill:#f9e927"/>
    <path class="st39" d="m1876.15 11.82 768.37 425.91-8.37 15.09-768.36-425.91 8.36-15.09z"/>
    <path class="st39" d="m2231.76-629.71 768.95 426.23-357.95 645.77-768.95-426.24 357.95-645.76z"/>
  </g>
  <path class="st39" d="M343.12 494.71s.09-.32.25-.94c53.82-66.78 61.55-136.36 20.78-203.9l95.07-32.59c32.15 118.67-21.12 198.33-116.1 237.43"/>
  <path class="st1" d="M342.38 493.96c-4.17-4.3-65.9-65.25-179.69-35.22l33.64-182.43c24.44 6.47 45.83 14.88 64.24 25.1l-61.21 74.39c111.86 28.34 140.29 109.53 143.02 118.16"/>
  <path d="M342.38 493.96c-2.73-8.63-31.16-89.82-143.02-118.17l61.21-74.39c8.7 4.83 16.74 10.07 24.11 15.7 34.26 26.86 60.47 59.54 62.15 136.26-.28 13.05-1.69 26.67-4.21 40.83l-.24-.23" style="fill:#575ba5"/>
</svg>