<?xml version="1.0" encoding="utf-8"?>
<!-- Generator: Adobe Illustrator 27.5.0, SVG Export Plug-In . SVG Version: 6.00 Build 0)  -->
<svg version="1.1" id="Capa_1" xmlns="http://www.w3.org/2000/svg" xmlns:xlink="http://www.w3.org/1999/xlink" x="0px" y="0px"
	 viewBox="0 0 465.5 477" style="enable-background:new 0 0 465.5 477;" xml:space="preserve">
<style type="text/css">
	.st0{fill:#FFFFFF;}
	.st1{fill:#00B0AA;}
	.st2{fill:#EE3342;}
	.st3{fill:#81BE41;}
	.st4{fill:#435464;}
	.st5{fill:#FED105;}
	.st6{fill:#F58220;}
</style>
<g>
	<path class="st0" d="M213.9,23.8c27.5-7.8,55-15.9,82.5-23.8C283.9,37.5,271,74.9,260,112.8c-22.8-25.4-46.8-49.8-68.2-76.5
		C194.9,26.6,205.7,26.5,213.9,23.8z"/>
	<path class="st0" d="M66.6,33.6c31.9-9.6,63.6-20.1,95.5-29.8c-17,44.1-36.2,87.4-53.4,131.5C72.6,143.9,36.2,151.5,0,160
		c16.7-39.6,36.3-78.7,53.8-118.2C55.5,36.3,61.8,35.1,66.6,33.6z M369.2,88.6c5-1.5,10-2.7,15.1-3.8c-10.9,47.2-22.9,94.1-35,141
		c-43.3,4-86.2,12.3-129.5,15.6c13.3-42.7,27.4-85.2,40.6-128C296.5,104.2,333.3,98.2,369.2,88.6L369.2,88.6z"/>
	<path class="st0" d="M17.6,268.1C27.2,246,36,223.5,46,201.5c20.8,18,41.6,36,62.2,54.2C78,259.9,47.7,263.5,17.6,268.1z"/>
	<path class="st0" d="M110.2,256.3c35.9-4.5,71.8-9.5,107.7-13.7c-15.6,49.8-31.7,99.4-47.6,149.1c-37.9,1.1-75.7,2.3-113.6,2.1
		C73.1,347.4,93.5,302.6,110.2,256.3z"/>
</g>
<path class="st1" d="M296.4,0c24.9,29,48.1,59.5,72.8,88.6c-35.9,9.6-72.7,15.6-108.7,24.8l-0.4-0.5C271,74.9,283.9,37.5,296.4,0z"
	/>
<path class="st2" d="M162.1,3.8l1-0.3c32.4,36.7,63.6,74.3,97.3,109.9c-13.2,42.8-27.3,85.3-40.6,128
	c-37.5-34.9-73.6-71.2-111.1-106.1C125.9,91.2,145.1,47.9,162.1,3.8L162.1,3.8z"/>
<path class="st3" d="M384.3,84.8c26.6,34.9,56,67.8,81.2,103.6c-5.9,45.4-17.2,90.3-25.6,135.4l-0.8,0.1c-30-32.6-60-65.2-89.8-98.2
	C361.5,178.9,373.4,132,384.3,84.8L384.3,84.8z"/>
<g>
	<path class="st4" d="M0,160c36.2-8.6,72.6-16.1,108.7-24.8c37.4,34.9,73.6,71.2,111.1,106.1c43.3-3.3,86.2-11.6,129.5-15.6
		c29.7,32.9,59.7,65.5,89.8,98.2c-42,3.6-84.3,4.5-126.3,8.2c26.4,25.6,52.9,51.1,79.4,76.6c-33.1,0.6-66.2,0-99.4,1.6
		c5-26.5,13.2-52.3,19.4-78.6c-31.4-29.7-62.1-60.4-94.3-89.2c-35.9,4.2-71.8,9.3-107.7,13.7c-8.8,22-15.8,44.7-25.9,66.2
		c-22.2-18.2-44.8-35.8-66.7-54.3c30.1-4.6,60.4-8.2,90.6-12.4C72.4,224,36,192.9,0,161.5V160z M56.7,393.8
		c37.8,0.1,75.7-1,113.6-2.1c35.8,27.7,70.8,56.4,106,84.7l-0.1,0.7c-32.8-0.3-65.9-3.1-98.7-3.4c-7.7-0.8-16.3,0.2-22.4-5.7
		c-33-24.1-65.7-48.6-99-72.3C56.2,395.2,56.6,394.3,56.7,393.8L56.7,393.8z"/>
</g>
<path class="st5" d="M217.9,242.5c32.2,28.9,62.9,59.5,94.3,89.2c-12.8,48-23.1,96.6-35.9,144.6c-35.2-28.4-70.2-57-106-84.7
	C186.2,342,202.3,292.4,217.9,242.5z"/>
<path class="st6" d="M312.8,332.2c32.5-2.6,65-4.3,97.5-6.2c-5.2,27.7-11.2,55.2-16.9,82.7l-1.2,0
	C365.7,383.2,339.1,357.8,312.8,332.2z"/>
</svg>
