<svg xmlns="http://www.w3.org/2000/svg" version="1.1" id="Capa_1" x="0" y="0" style="enable-background:new 0 0 200 68.92" xml:space="preserve" viewBox="0 0 200 68.92"><style>.st0{fill:#fff}</style><switch><g><path class="st0" d="M171.79 56.35c0 1.3-.32 2.85-2.26 2.85h-5.77c-1.94 0-2.26-1.55-2.26-2.85l-.01-1.29V17.44c0-2.68 2.3-5.02 5.18-5.02h17.11c10.67 0 16.22 5.29 16.22 15.06 0 9.22-5.4 15.06-15.48 15.06h-12.73v13.81zm10.14-22.26c5.18.07 7.78-2.2 7.78-6.74s-2.44-6.81-7.26-6.81h-10.52v13.55h10zM98.22 56.35c0 1.3-.32 2.85-2.26 2.85h-5.77c-1.94 0-2.26-1.55-2.26-2.85v-35.6H73.04v-3.3c0-2.68 2.29-5.02 5.18-5.02h29.7c2.89 0 5.19 2.34 5.19 5.02v3.3H98.22v35.6zM115.2 12.42h7.44c2.81 0 4.44 1.17 5.04 3.51l9.67 28.93 9.85-28.93c.59-2.34 2.22-3.51 5.04-3.51h7.41l-15.97 43.27c-.92 2.38-2.22 3.51-5.04 3.51h-2.29c-2.81 0-4.05-.94-5.04-3.51L115.2 12.42zM34.46 0C16.37 0 1.55 13.94.13 31.66c.65-.41 1.61-.91 2.92-1.53 2.66-1.25 8.45-2.85 12.79-3.81 5.57-1.24 7.52-1.23 12.64 2.23 6.99 4.7 9.4 6.55 15.61 3.75 6.21-2.8 5.91-2.56 12.35 1.64 6.45 4.21 7.98 5.91 10.67 7.82.33.24.62.46.87.68.61-2.56.94-5.22.94-7.97C68.91 15.43 53.49 0 34.46 0zm8.88 40.83c-5.43 2.77-9.84.88-14.06-2.61-5.02-4.15-10.47-6.98-19.95-5.87-4.12.48-7.63.9-9.3.79-.01.44-.03.87-.03 1.32 0 19.03 15.43 34.46 34.46 34.46 15.73 0 28.99-10.55 33.12-24.96-.42-.12-.93-.3-1.54-.57-10.11-4.41-14.17-6.91-22.7-2.56z"/></g></switch></svg>