<svg version="1.1" id="Capa_1" xmlns="http://www.w3.org/2000/svg" x="0" y="0" viewBox="0 0 1022.1 594" style="enable-background:new 0 0 1022.1 594" xml:space="preserve"><style>.st0{fill:#fff}</style><path class="st0" d="M428.1 0h594v594h-597v-71.9h81.4V405.6c1.6 1 2.5 1.5 3.4 2.1 5.3 3.8 10.3 8.3 16 11.4 12.8 7 26.4 11.8 41.1 12.1 12 .2 24.3 1.4 36.1-.3 27.3-4.1 49.5-18.2 66.5-39.7 21.2-26.7 30.2-57.9 31.6-91.5.5-11.1-.7-22.2-.8-33.3-.1-16.3-3.7-31.9-9.1-47.1-7.5-21.1-19-39.5-36.7-53.9-17.1-13.9-36.9-20.8-58.3-22.4-15.9-1.2-32-1.1-47.7 3.6-12.2 3.7-24 7.7-34 15.8-4.6 3.8-9.3 7.5-14.5 11.7v-26.2h-72.8c-31 93-62 185.9-92.9 278.6h-87.6c-31-93-62-185.9-93-279.1h86.6c17 67.2 34 134.3 51 201.3.3 0 .7.1 1 .1 17.1-67.2 34.2-134.4 51.3-201.9h84.5c.1-1.1.2-1.8.2-2.5V1.9c-.1-.5-.2-1.2-.3-1.9zM989 304.2c1.5-20.8.4-40.8-3.9-60.3-6.7-30.5-20.3-57.4-45-77.9-20.4-16.9-44.1-25.1-69.9-27-11.2-.8-22.5.1-33.8.9-13.5.9-26.4 4.9-38.6 10.6-22.1 10.3-39.2 26.3-52.7 46.5-16 23.8-23.3 50.3-25 78.3-1.2 19.9-.9 39.9 3.6 59.7 5.3 23.6 15 44.7 31.2 62.7 21.9 24.2 49.9 36.1 81.8 38.4 24.6 1.8 49.1 0 72.7-8.4 24.5-8.7 45.4-22.7 61.2-43.5 6.5-8.5 11.8-18 17.8-27.4-21-10.5-40.8-20.4-60.8-30.3-1.4 2.7-2.6 4.8-3.7 7-6.2 12-13.8 22.9-24.5 31.2-12.1 9.4-26 12.6-41.2 12.2-21.8-.6-40.6-12.1-49.2-32.7-5.3-12.7-8-25.9-7.6-40H989z"/><path class="st0" d="M618.7 286.6c.9-21.1-2.1-40.7-12.1-58.8-5.4-9.8-12.7-17.6-23.3-21.7-23.7-9.2-47.3-2.8-61.7 18.6-9.1 13.6-13 29.4-14.1 45.5-.8 12.5-.4 25.3 1 37.7 1.7 15.6 6.5 30.2 16.3 43.1 13.1 17.2 33.3 22 52.5 16.9 18.3-4.9 28.3-18.3 34.5-35 5.6-15.1 7.9-30.8 6.9-46.3zm0 0c.9-21.1-2.1-40.7-12.1-58.8-5.4-9.8-12.7-17.6-23.3-21.7-23.7-9.2-47.3-2.8-61.7 18.6-9.1 13.6-13 29.4-14.1 45.5-.8 12.5-.4 25.3 1 37.7 1.7 15.6 6.5 30.2 16.3 43.1 13.1 17.2 33.3 22 52.5 16.9 18.3-4.9 28.3-18.3 34.5-35 5.6-15.1 7.9-30.8 6.9-46.3zM.1 147h35.1V60.6h80.5v86.5h29.7c5.4 16.8 10.8 33.2 16.3 50.4h-45.9v5.9c0 37.8-.2 75.7.1 113.5.1 9 1.8 17.9 2.7 26.9.9 8.7 8 14.1 18.3 14.4 8.7.2 17.5 0 26.5 0V420c-19.6 4.2-39.2 5.4-58.9 4.6-14.4-.6-28.4-3.2-41-10.8-11.6-7-17.9-17.8-21.1-30.4-4.3-16.6-6.1-33.6-6.2-50.8-.2-43.6-.6-87.2-1-130.8 0-1.1-.1-2.3-.2-3.8H0c.1-17 .1-34 .1-51zM908.3 254.5c-1.1-25.4-15.1-51.2-44.4-55-34.2-4.4-57.2 14.3-62 55h106.4zm0-.2c-1.1-25.4-15.1-51.2-44.4-55-34.2-4.4-57.2 14.3-62 55h106.4z"/></svg>