<svg xmlns="http://www.w3.org/2000/svg" viewBox="22.14 0 255.29 99"><path fill="#fff" d="M25.99 0h92.24c4.56 22.63 9 45.28 13.57 67.9 10.12-22.69 20.46-45.28 30.73-67.9h51.99c4.49 7.85 8.44 16 12.77 23.95C234.06 16.34 239.8 7.8 246.38 0h31.05c-11.74 15.64-23.48 31.3-35.25 46.92C252.5 64.23 262.59 81.68 272.91 99h-30.83c-5.99-10.52-12.25-20.9-18.17-31.47C215.84 77.94 208.01 88.54 200 99h-32.91c14.7-17.68 29.25-35.5 43.94-53.19-7.1-13.24-15.08-26.04-22.51-39.12C172.16 37.46 155.81 68.25 139.4 99h-22.93c-6.93-25.24-13.59-50.57-20.38-75.85-6.56-.07-13.12-.01-19.68-.04-4.04 25.29-8 50.6-12.06 75.89H37.7c4.08-25.28 8.04-50.59 12.03-75.89-9.2.02-18.39 0-27.59.01C23.36 15.41 24.82 7.73 25.99 0z" style="--darkreader-inline-fill:#181a1b"/></svg>