<svg version="1.1" id="svg2" xmlns="http://www.w3.org/2000/svg" x="0" y="0" viewBox="0 0 466.3 395.8" style="enable-background:new 0 0 466.3 395.8" xml:space="preserve"><style>.st0{fill:#fff}</style><g id="g3320"><path class="st0" d="m37.6 241.8 1.2 1c-1.3-9-2-18.8.6-27.4 3.9-13.8 8.8-27.2 11.3-41.5 2-11.1 4.3-23.6 3-34.3-1.5 5.8-3 11.5-6.2 16.5-12.1 18.7-24.5 40.7-16 64.5-.2.3-.5.6-.8.4-3.4-7.9-4.2-16.8-6.4-25.2-5.9-22.3-23-41-18-66.8-2.7 5.6-3.7 11.9-5.1 18-3 15.8 0 32.5 4.3 47.1 5.3 18.1 23 31.1 32.1 47.7zM33 126c4-8.2 10.5-16 18.3-21.8 17.2-13 36-29.8 36.3-51.8C81.8 68.2 64.5 74.8 53 85.6c-6.1 5.7-10.8 12.6-13.5 19.8l-.4-.3c1.4-6.4 4.1-12.1 6-18.3 5-16.8 4.1-36.9 20.5-48.2-8.4 2.2-15.5 7.6-21.8 14.6-13.3 14.7-12.1 36.4-10.4 55.6.6 6 .3 11.1-.4 17.2z"/><path class="st0" d="M53 78.1c9.2-8.6 19.8-15 27.6-25.2 9.3-12.3 17.4-26.1 29.6-36.7-16.5 6.4-34.3 13-45 30-6.3 9.9-7.3 21.6-12.2 31.9zm6.9 43.5c4-8.1 6.5-17.3 7.6-26.2-1.5 3.8-3.8 7.3-7 10.3-13.4 12.7-29.1 25.1-32.1 43.1-.4 2.6-.7 5.2-1.4 7.7-.6.3-.6-.4-.8-.6l1.7-22.2c1.6-21.7-9.8-45.8 2.7-64.9-.4-.1-.7.3-1 .4-11.4 14.5-19 30.5-19 50 0 24.1 13.9 41 15.6 63.6 3.6-23.6 23.4-40.4 33.7-61.2zM33.4 269.7c12.9 10.2 28.3 18.1 40.1 27.1-2.3-5.9-6.1-11.3-7.6-17.4-6.9-27.9-3.1-60.3-15-86.1C53.1 208 47.3 221 46 235c-1.1 11.5.9 22.7 5.4 32.3 1.3 2.9 3.7 5.4 4.4 8.4-4.3-3.9-7.4-8.8-10.3-13.6-13.9-22.5-43-37.1-45-64.5-1 12.2.1 25.1 4.1 35.9 5.5 14.8 16.3 26.3 28.8 36.2zm175.4 73.9c-22.5 0-42.7 10.9-62.4 19.1-17.9 7.4-41.6 6-57.5-5 7.8 9.8 18.3 15.9 29.2 20 20.1 8 43.6 1.9 60.8-9.1 12.3-7.9 22.9-19.1 37.6-19.1 23.7 0 48.6 24.3 69.9 46.3 3.3-2.7 6.8-5.5 9.5-8.6-22.3-21.2-53.8-43.6-87.1-43.6z"/><path class="st0" d="M168.6 346c3.5-.9 7.7-.6 10.9-1.8-13.4-2.7-26.3-6.8-36.7-16.3-14.9-13.6-28.1-28.1-44-38.7 12.5 16.8 16 41.2 38.8 49.7 4 1.5 8.7 1.8 12.2 4-4.4.7-8.2-.7-12.3-1.6-29.4-6.3-65.2 1.8-87.2-23.2 8.3 16.4 25.5 29.3 42.1 34.7 25.5 8.6 52.2-.9 76.2-6.8z"/><path class="st0" d="M119.4 333.7c-19.1-15.4-22-38.5-30.5-58.7-5.3-12.6-13.9-23.9-23.1-34.9 10.1 20.2 5.7 46.2 18.8 65.2 4.1 6 9.8 11.7 15.1 16.4l-.2.3c-4.8-2.2-9.1-5.6-13.5-9.2-22.9-19.1-57.4-21.5-71.1-52.6 3.7 22.8 21.8 43 41.4 55.8 18.6 12.2 42.5 10.9 63.1 17.7zM385.5 52.9c7.8 10.3 18.4 16.6 27.6 25.2-4.9-10.3-5.9-22-12.1-31.9-10.7-17-28.5-23.6-45-30 12 10.6 20.1 24.3 29.5 36.7z"/><path class="st0" d="M421 86.8c1.8 6.1 4.5 11.9 6 18.3l-.4.3c-2.7-7.2-7.4-14.1-13.5-19.8-11.5-10.9-28.8-17.4-34.5-33.3.3 22.1 19.1 38.9 36.3 51.8 7.7 5.8 14.3 13.6 18.3 21.8-.7-6.1-1-11.2-.4-17.1 1.8-19.3 2.9-40.9-10.3-55.6-6.3-7-13.4-12.5-21.8-14.6C416.9 49.9 416 70 421 86.8z"/><path class="st0" d="m438.2 133.6 1.7 22.2c-.2.2-.2.8-.8.6-.7-2.5-1-5.1-1.4-7.7-3-17.9-18.8-30.4-32.1-43.1-3.2-3-5.5-6.5-7-10.3 1.1 8.9 3.6 18.1 7.6 26.2 10.3 20.8 30.1 37.6 33.7 61.3 1.7-22.7 15.6-39.5 15.6-63.6 0-19.5-7.6-35.5-19-50-.3-.2-.6-.5-1-.4 12.5 19.1 1 43.2 2.7 64.8z"/><path class="st0" d="M441.8 195.7c-2.2 8.4-3 17.4-6.4 25.2-.3.2-.6-.2-.8-.4 8.5-23.8-3.9-45.7-16-64.5-3.2-4.9-4.7-10.7-6.2-16.5-1.3 10.8 1 23.2 3 34.3 2.6 14.3 7.4 27.7 11.3 41.5 2.6 8.6 1.9 18.3.6 27.4l1.2-1c9-16.6 26.8-29.6 32.2-47.8 4.3-14.5 7.3-31.3 4.3-47.1-1.4-6.1-2.5-12.4-5.1-18 4.9 25.9-12.2 44.6-18.1 66.9zm-122.2 167c-19.8-8.2-39.9-19.1-62.4-19.1-33.2 0-64.8 22.5-86.9 43.6 2.7 3.1 6.2 6 9.5 8.6 21.2-21.9 46.2-46.3 69.9-46.3 14.7 0 25.3 11.2 37.6 19.1 17.1 10.9 40.6 17.1 60.8 9.1 10.8-4.1 21.3-10.2 29.2-20-16 10.9-39.8 12.4-57.7 5z"/><path class="st0" d="M420.7 261.9c-3 4.8-6 9.8-10.3 13.6.7-2.9 3.1-5.5 4.4-8.4 4.5-9.7 6.5-20.8 5.4-32.3-1.4-14-7.2-27-4.9-41.7-12 25.8-8.1 58.2-15 86.1-1.5 6.2-5.3 11.6-7.6 17.4 11.8-9 27.2-16.9 40.1-27.1 12.5-9.8 23.3-21.4 29-36.4 4.1-10.8 5.1-23.7 4.1-35.9-2.1 27.6-31.3 42.2-45.2 64.7z"/><path class="st0" d="M379.9 312.8c-4.4 3.6-8.7 7-13.5 9.2l-.2-.3c5.3-4.8 11-10.5 15.1-16.4 13.1-19 8.7-45.1 18.8-65.2-9.2 11-17.8 22.3-23.1 34.9-8.5 20.2-11.4 43.3-30.5 58.7 20.6-6.8 44.5-5.5 63-17.6 19.5-12.8 37.6-33 41.4-55.8-13.6 31-48 33.4-71 52.5z"/><path class="st0" d="M328.6 341.4c-4.1.9-7.9 2.2-12.3 1.6 3.5-2.2 8.1-2.5 12.2-4 22.8-8.6 26.3-33 38.8-49.7-15.9 10.6-29.1 25.1-44 38.7-10.4 9.5-23.3 13.5-36.7 16.3 3.2 1.2 7.4.9 10.9 1.8 24.1 6 50.7 15.4 76.3 6.9 16.5-5.5 33.7-18.4 42.1-34.7-22.1 24.9-58 16.9-87.3 23.1zM233 0C142 0 68 74 68 165s74 165 165 165 165-74 165-165S324 0 233 0zm0 196.5c-17.4 0-31.5-14.1-31.5-31.5s14.1-31.5 31.5-31.5 31.5 14.1 31.5 31.5-14.1 31.5-31.5 31.5zm23.7-58c-5.8-5.2-13.3-8.5-21.6-9v-27c15.7.5 30 6.8 40.7 16.9l-19.1 19.1zm-25.7-9c-8.3.5-15.8 3.8-21.6 9l-19.1-19.1c10.7-10.1 25-16.4 40.7-16.9v27zm-24.4 11.9c-5.2 5.8-8.5 13.3-9 21.6h-27c.5-15.7 6.8-30 16.9-40.7l19.1 19.1zm-9 25.6c.5 8.3 3.8 15.8 9 21.6l-19.1 19.1c-10.4-11-16.4-25.5-16.9-40.7h27zm11.8 24.5c5.8 5.2 13.3 8.5 21.6 9v27c-15.7-.5-30-6.8-40.7-16.9l19.1-19.1zm25.6 8.9c8.3-.5 15.8-3.8 21.6-9l19.1 19.1c-11 10.4-25.5 16.4-40.7 16.9v-27zm24.5-11.8c5.2-5.8 8.5-13.3 9-21.6h27c-.5 15.7-6.8 30-16.9 40.7l-19.1-19.1zm9-25.6c-.5-8.3-3.8-15.8-9-21.6l19.1-19.1c10.1 10.7 16.4 25 16.9 40.7h-27zm10.1-46.4C267.1 105.8 251.9 99 235 98.5v-30c25.1.5 47.9 10.7 64.8 26.9l-21.2 21.2zM231 98.5c-16.8.5-32.1 7.3-43.6 18.1l-21.2-21.2C183.1 79.2 205.9 69 231 68.5v30zm-46.4 20.9c-10.8 11.5-17.6 26.7-18.1 43.6h-30c.5-25.1 10.7-47.9 26.9-64.8l21.2 21.2zm-18 47.6c.5 16.8 7.3 32.1 18.1 43.6l-21.3 21.2c-16.2-16.9-26.4-39.7-26.9-64.8h30.1zm20.9 46.4c11.5 10.8 26.7 17.6 43.6 18.1v30c-25.1-.5-47.9-10.7-64.8-26.9l21.2-21.2zm47.5 18c16.8-.5 32.1-7.3 43.6-18.1l21.2 21.2c-16.9 16.2-39.7 26.4-64.8 26.9v-30zm46.4-20.9c10.8-11.5 17.6-26.7 18.1-43.6h30c-.5 25.1-10.7 47.9-26.9 64.8l-21.2-21.2zm18.1-47.5c-.5-16.8-7.3-32.1-18.1-43.6l21.2-21.2c16.2 16.9 26.4 39.7 26.9 64.8h-30zm3.1-70.4c-17.6-16.9-41.4-27.5-67.6-28V38c33.5.5 63.9 14.1 86.3 35.8l-18.7 18.8zM231 64.5c-26.2.5-50 11.1-67.6 28l-18.7-18.7C167.1 52.1 197.5 38.5 231 38v26.5zm-70.4 30.9c-16.9 17.6-27.5 41.4-28 67.6h-26.5c.5-33.5 14.1-63.9 35.8-86.3l18.7 18.7zm-28 71.6c.5 26.2 11.1 50 28 67.6l-18.7 18.7c-21.7-22.4-35.3-52.8-35.8-86.3h26.5zm30.8 70.4c17.6 16.9 41.4 27.5 67.6 28v26.5c-33.5-.5-63.9-14.1-86.3-35.8l18.7-18.7zm71.6 28.1c26.2-.5 50-11.1 67.6-28l18.7 18.7c-22.4 21.7-52.8 35.3-86.3 35.8v-26.5zm70.5-30.9c16.9-17.6 27.5-41.4 28-67.6H360c-.5 33.5-14.1 63.9-35.8 86.3l-18.7-18.7zm28-71.6c-.5-26.2-11.1-50-28-67.6l18.7-18.7c21.7 22.4 35.3 52.8 35.8 86.3h-26.5zm-9.3-92C301 48.5 269.7 34.5 235 34V4c42.9.5 81.8 17.9 110.4 45.8L324.2 71zM231 34c-34.6.5-66 14.5-89.2 37l-21.1-21.2C149.3 21.9 188.2 4.5 231.1 4l-.1 30zm-92 39.8c-22.5 23.2-36.5 54.5-37 89.2H72c.5-42.9 17.9-81.8 45.8-110.4L139 73.8zM102.1 167c.5 34.6 14.5 66 37 89.2l-21.3 21.1C89.9 248.8 72.6 209.9 72.1 167h30zm39.8 92c23.2 22.5 54.5 36.5 89.2 37v30c-42.9-.5-81.8-17.9-110.4-45.8l21.2-21.2zm93.1 37c34.6-.5 66-14.5 89.2-37l21.2 21.2c-28.6 27.9-67.5 45.3-110.4 45.8v-30zm92-39.9c22.5-23.2 36.5-54.5 37-89.2h30c-.5 42.9-17.9 81.8-45.8 110.4L327 256.1zm37-93.1c-.5-34.6-14.5-66-37-89.2l21.2-21.2c27.9 28.6 45.3 67.5 45.8 110.4h-30z"/><g transform="translate(1.89 -2.19)"><path id="polygon59_9_" class="st0" d="m240.6 129-1 .1v1.2l1-.1V129z"/><path id="rect61_9_" class="st0" d="M238.1 127.4h1.3v1h-1.3v-1z"/><path id="polygon63_9_" class="st0" d="m235.7 127.1 1.2.2.1-1-1.2-.2-.1 1z"/><path id="rect65_9_" class="st0" d="m234.7 126.7-1.1-.1.1-1 1.2.1-.2 1z"/><path id="rect67_9_" class="st0" d="M225.1 125.4h1.3v1h-1.3v-1z"/><path id="polygon69_9_" class="st0" d="m222.2 127.4 1.2.2.1-1-1.1-.2-.2 1z"/><path id="rect71_9_" class="st0" d="m222.4 129-1.4-.4.3-1 1.3.4-.2 1z"/><path id="rect73_9_" class="st0" d="m220 130.2-.2-1 1-.2.2 1-1 .2z"/><path id="polygon75_9_" class="st0" d="M89.5 233.7v2.2h1l-.2-2.5-1.3-.5v-.9h-.8v1.7h1.3z"/><path id="polygon77_9_" class="st0" d="M96.5 239.8 99 241l.8 2.3 1.2.9 1.1 2.5-.6 1.2-1.9-1.7-1.3-1.9-.7-1.5-1.1-3z"/><path id="polygon79_9_" class="st0" d="m138.5 291.7.9 2.2-1.2.7-.7-1-1.6-.5-.2-1.5-1.3-2 2 .3 2.1 1.8z"/><path id="path81_9_" class="st0" d="M226 139.9h-1.8l-.3-3.7 1-.7v-1.9h-5.8l-.2-1.9.8-.5-1.3-.5-1 1.3-.3 1.5-1.7.3v.8h-1.2v2.2l-4.7 3.9-9.3-.3c-.7 1.5-2.3-.2-2.3-.2-.3-1-2.7 0-2.7 0 0 1.9-3.2-.8-3.2-.8l-5.8-4.2c-3.3-3-8.3.8-8.5 1.7.2 2.4-3.8.5-3.8.5s-3.3-1-3.8.3-2.7 1-2.7 1l-.3.7-1.7.3-.3 1-2 .3 5-.2c1.3-.2-.5 2.9-1.3 2.7l-2.3.2-.8.8h-2.2l-1 1.4-3.2-.2s-1.8 1.5-1.7 2c.2.5-.3 2-.8 2s-1.5 1.5-1.2 2-1 2.2-1 2.2l-.3 1.7-1 .3v4.6l-2 1.4v2l-3 3.2.3 2.7-2.5 2.7.3 2.7-1.5.5-.3 1.2-.7 3.5 1.7.2c.8-.3.7 2.2 0 2.5s-2.5 1-1.5 1.7-2.7.5-2.7-.5-2-1.9-2.5-1.5c-.5.3-1.3-1.5-1.3-1.5-1.8-1.9-7.5.2-7.5.2l-.8 2.7c-1.8.3-3 3.4-3 3.4-1.5.5-2.7 2.4-2.2 2.9s-.8.7-.8.7v3.7l-.8 1.2.2 4c1 0 .8 1.9.8 1.9-1.7.2-1.3 2.4-1.3 2.4l-3.5 1.2-.7 1-4.3-.2-1.2 1.2-1.2-1.2H101l-.3-.8-1.7-.3-.2-1.9-2.5.2-.5 1-2.7.2c.2 1.7-2.7 4.2-3 3.5s-2.2-2.5-1.3-2.9c.8-.3 3-.7 3-.7v-1.2l-6.2-.2-.7 1-2.5.2v2.7l-1.2.3c-.8.5.2 2.4.2 2.4 1.2 1.2-.2 3-.2 3-1 1 .8 2.9.8 2.9 1.3.3-.8 1.3-.8 1.3.3 1.7 1.3 2.2 1.3 2.2-1 1.7.7 2.5.7 2.5l.2 2.9 1.2.7v1.9l.7 1.2H88l-.2-4.2c-2.3-2.7 2-3.4 2.2-2.4s2 1.5 2 1.5c.3 2.5 3.2 4 4 1.5s1.5-1 2 .2 3.7 4.1 3.7 4.1h2.5l.3 2.4c2.8-.2 3.7.2 4.8 4 1.2 3.9 4.3 4.9 4.3 4.9l2.3-.2c0-2 2.3.3 2.3 1.4 0 1 4.5 4.9 4.5 4.9l4.5 1 4.2 3.4 3.2-.3h1.3c.8-2.9 4.8.2 5.2 1.2.3 1 3 2.7 3.3 1.9s2.2-.3 2.5 2.2 1.5 2 1.5 2l9.5-.2 3.3-2.9 8.5-.2c4.3-.2 1.7-6.1.8-6.1-1.5-1.2.5-6.1.5-6.1l-12.1-11.3c-2.8 0-.3-4.1-.3-4.1 2.2-1.4-.5-3.5-.5-3.5.3-2-1.2-4.4-1.2-4.4-3-2-2.2-5.9-2.2-5.9v-2.7c-2.5-2.4 1-2.7 1-2.7 1.2-2-.8-3.5-.8-3.5l-.2-2.2-2.7-.3-.3-7.9-6-8.6c-1.2-.3-.3-2.4-.3-2.4 1.5-.8-.3-2.9-.3-2.9l-.2-3.7 3.5-.3.8-1.3h1.7l-.2-4.4c.8-2.2 2.8-1 2.8-1l2.3.2 1.3-2.5.3-2-1.8-.2c-2-1.2-1-5.6-1-5.6 3.2-4.7 6.8-2 6.8-2l2.3-.2c3.5 2.4.3 6.7.3 6.7-.7 1-.3 4.2-.3 4.2l.8 5.4-2.2 1.9c-1.8 1-1.8 3.4.2 3.9 1.3.2.8 3.4-1.2 1.2-3 0 1.7 2.7.3 2 3 1.5 2.3-1.3 2.3-1.3l4-3.2c1.5-1.2 4.2 2.5 4.2 3s6.6.2 6.6.2c1.8 1.2 2.5 4.2 2.5 4.2 1.8-2.4 5.7-.2 2.8 1.2 2.7 1.7 2.7 3.2 2.7 3.2 2.2-.7 2.2 1 2.2 1.5s.7-2.5.7-2.5c-2.5-1.9 3.3-2.5 1.7.8l-1 1.5 1.7 1.3.2 3.9c3.7-.3 2.7-4.9 2.7-4.9l1.7-.3c0-1.5 1.2-.7 1.2-.7-1.2-5.7 2.7-6.7 2.7-6.7 2.2-.5 2.3-5.1 2.3-5.1-1.5-.7-.7-3 1-1s-1-4.1-1-4.1l-1.3-1.2-1.8-.2-.2-1.9h-3l-.5 2.4-1.1.5-.3-.7-.5 1.9h-3l-.2-2 1.8-.5.7-1 .5-2.7h2.2l2.8-.8c.2-2.9 1.7-2.2 1.7-2.2l1 .8 1.5 1.2.2 1-1 .5-.2 1.4.5 1.9h1.3c.5-2.7 4-2.7 5-1l1-2.4c-2.3-1.2 0-3 .6-2.2.7.8 2.2-2.2 2.2-2.2s1.2 1.5 0-.5.8-3 .8-3c-.3-2 2.2-1.7 2.2-1.7l.2-2.7-2.3-.2c-.5 2.4-2.5.3-1.5-.2s2-1.5 2-1.5v-1.7l1-.3.2-1.7h2.5l2.2-1 .5-.8 2.3-.2 3.3-3-.3-1.3c-2 0 0-1.5 0-1.5l.2-2.8z"/><path id="path83_9_" class="st0" d="m159 173.3-3-.3.2 1.2h.8c1.3 2.4.2 8.1.2 8.1s-2 .2-2.3-.8-1.2 2.2-.5 2.7 3 0 3.2 1.9 1.5-1.2 1.5-1.2l-.1-11.6z"/><path id="polygon85_9_" class="st0" d="M156 187v4l2.6 3.6 1-2.4.4-1.5-1.2-.5.2-2.5 1-.2.1-1.2-2.5 1.7-1.6-1z"/><path id="polygon87_9_" class="st0" d="M160.3 198.3v-1.7l-1.2.2-.1 1.3 1.3.2z"/><path id="polygon89_9_" class="st0" d="M158.8 206.4v-1.2l-1.4.2v1.2l1.4-.2z"/><path id="path91_9_" class="st0" d="M160.8 201.2c.4 0 .7-.3.7-.7s-.3-.7-.7-.7-.7.3-.7.7.3.7.7.7z"/><circle id="circle93_9_" class="st0" cx="161.9" cy="204" r=".7"/><circle id="circle95_9_" class="st0" cx="162" cy="184.7" r=".7"/><path id="polygon97_9_" class="st0" d="M215.3 161.8h1l.2 1.1-.7.6-.3.9-1.3.3-3 2.9-.2 1.3-.8 1.2-1 2.5-3.5.2-.7 3 .5 2.6 3 1.2.3-1.7 1-.5.2-1.7.7-1.2 1-1.2.3-1.3 1.7-1 2-.4.8-1 .3-2 .2-1.5.7-1.1 2-.8V161h-1l-.2-1.2-1.8-.2-.4.9h-.8l-.2 1.3z"/><path id="path99_9_" class="st0" d="M223.1 171.3v-2.4l-.3-2.2-2.5-1.2-1.8 1.7-.3 2.4v1.5l-1.7.3-.3 4.6-1.3.5.2 1.7-1.8.5-1.8.5-.3 2.2-1.3.8-.7 2-.8 4.9s1.5 2.9 2.3 1.5c.8-1.3 2.2-1.5 2.2-1.5l.5-1.2 4.5.2c.3-1.9 2.5-1.2 2.5-.3 0 .8 1.7.2 1.7.2l1.2-1.9h1.8l.2-2 .8-.5v-3c2.7-.8 2.3-3.4 2.3-3.4l.7-.8-.3-1.2c-1.3-.5-.7-1.7.2-1.4.8.3-1.2-1.5-1.2-1.5-1 .8-1.8-1-1.8-1h-2.9z"/><path id="path101_9_" class="st0" d="M225.8 191.7c-.2 2-2.7 2.7-2.7 2.7l-1.8-.5-1-.8-.2-2.4 1.5-.2.3 1 3.9.2z"/><path id="path103_9_" class="st0" d="M234.8 180.9c.4 1.5.3-2.4 1-2.2s.2-2.4.2-2.4l-3 2.2c1.4.2 1.6 1.7 1.8 2.4z"/><path id="path105_9_" class="st0" d="M243.6 172.1c.7 1.5.5 3.7 3 5.4.8.6-.5 1.7-1.3 1.2s-3.2-4.2-3.2-4.2v-2.2c.5-1.3 1.2-.8 1.5-.2z"/><path id="polygon107_9_" class="st0" d="m243.6 223.4.5.5.5.9 1.1-1.9-.9-.3-1.2.8z"/><path id="line109_9_" class="st0" d="M239.4 220.7v2.1"/><path id="polygon111_9_" class="st0" d="m263.5 218.3 1.3-.9-.5-.8-1.4.8.6.9z"/><path id="path113_9_" class="st0" d="m311.6 253.5 1.5.7.2 2.9c2 2 8.5.3 8.5-.2s-.3-6.2-.3-6.2l-.8-.8-.2-4.2c.7-2.2-3.2-5.4-3.5-4.7s-2.5.2-2.5.8c0 .7-1.3 4-.7 5.2.7 1.2-.5 1.2-.7 2.4-.2 1-1.9 3-1.5 4.1z"/><path id="path115_9_" class="st0" d="M307.9 246.7c-.3 1.3-1.5 2-2.2 1.5s.8.8 1.2 1.5c.3.7 1.3.7 1.7 0 .3-.7.2-2.2.5-2.9.3-.6-1-.8-1.2-.1z"/><path id="rect117_9_" class="st0" d="M300.2 215.8h1.2v3.2h-1.2v-3.2z"/><path id="path119_9_" class="st0" d="M317.4 183.3c-.7-1 3.3-2.7 4-.7s0 1.7-.7 1.5c-.6-.2-2.3.5-3.3-.8z"/><path id="polygon123_9_" class="st0" d="m321 160.7-.2 1 1.8.3.2-1-1.8-.3z"/><path id="polygon125_9_" class="st0" d="m316.3 163.6.1.3 1-.4-.4-.8-.2-.6-.5.3-1.2.7-1.1-.7-.5.9 1.3.8.3.2.2-.2 1-.5z"/><path id="path127_9_" class="st0" d="M322.6 122.5h-2.5s.8.3-1.5-1.9c-2.3-2.2-3.8.5-3.8.5l-2.7.3v2.7l-1.3.5.2 1.7 1.8-.2s0 2 .5 1.2 4.7.2 4.3 2.2c-.1.8 4.2 3 3.7 5.7 2.2.3 1.7 2.5 1.7 2.5l2.8.3.8-1.7.8.2v-1l-1.8-.5-.3-5.4-1.2-.8.3-1.4-1.3-.5.7-2.2-1.2-2.2z"/><path id="path129_9_" class="st0" d="m329.9 139.7-1.3-.2-3 .5-1.7 3.2s.8.5 1.5 1.7 1 8.1-1 9.3.2.5.2.5l-.3 3.7c.5 1.7 1.3.8 1.8 0s1-1 1.7-1.9c.7-.8 1.7-2.4 1.8-3.5.2-1.2 1-3 .5-3.5s.5-2.9.5-2.9.7-1.4 0-2.7c-.7-1.4.2-2.9.7-3.5l-1.4-.7z"/><path id="rect133_9_" class="st0" d="m331.9 146.6.1-1.3 1 .1-.1 1.4-1-.2z"/><path id="rect135_9_" class="st0" d="m331.8 151.3-.9-.5.5-1 .9.5-.5 1z"/><path id="path137_9_" class="st0" d="m330.4 137.9-.7-1.5s0-1.3.3-2-.7-1.3-1.2-1.5-.3-1.5-.5-2.2-1.3-1.2-1.3-1.2-.3-2.5-.3-3-1.5-1.2-1-1.7.8-1.2 1.3-1.5-.5-2.7.3-2.2.8 1.4 1.2 2c.3.7-.2 3 .7 3.5.8.5-.2 2.2 1.2 2.2 1.3 0 .5 3.2.5 3.2s-.3 2.4.5 2.5c.8.2.3 4.2.3 4.2l-1.3-.8z"/><path id="path139_9_" class="st0" d="M319.6 110.6c.5.7 1.5 1.2 1.5 1.9s-.3 1.2.7 1.3c1 .2 1.7-.2 2 .7.3.8.3 2.2.2 2.9-.2.7.2 1.7 1 1.7s1 .2 1 .7 1-1.9 1-1.9c-.8-.7-1.5-2.2-1.5-2.2s-.8-2.4-.8-2.7c0-.3-1.2-.7-1.7-.8-.5-.2-1.3-1.7-1.3-1.7l-2.1.1z"/><path id="path141_9_" class="st0" d="M321.2 109c-.5-.7-1-1.2-1.7-1.5s-1.2-.7-1.8-.7c-.7 0-1.3-.7-1-1.5s-.5-1.2-.5-1.9.5-.7 1.3-.2.7.7 1.3 1.5c.7.8 1 1.7 1.7 1.5s1.2 1.5 1.8 1c.7-.5.5 1.2.5 1.2l-1.6.6z"/><path id="path143_9_" class="st0" d="M301.8 128.1c.9.9-5 .7-5 0s.5-3 2-2.5 1.7-3 1.7-3-1.3.2-.2-.5c1.2-.7 0-1.7-.5-2.2s-1-1.4-1-1.4h2.3c1-.7 1.3-3.9 1.3-3.9 2 .7 3-.7 3-.7s.3 1 1 1.9c.7.8-1.7 1.2-.8 1.7.8.5 1.2 2 .8 2.5-.3.5-2.2.2-2.2-.5s-.7.8 0 1.7c.7.8-.8 2-1.2 2-.3 0-2.5.3-.7 1.4 1.8 1 3.8.5 3.8.5s1.5-.2 2 .7c.5.8-.2 1-1 1s-4.8-.3-4.8-.3-1 1.1-.5 1.6z"/><path id="path145_9_" class="st0" d="M291.1 129.6c.8-.2 2.8-.3 3.2.2.3.5-1.2 1.2-1.2 1.2l-2 .3c-.6-.8-.8-1.5 0-1.7z"/><path id="path147_9_" class="st0" d="M312.6 115.5c1.3-.7 4.2-.7 4-1.7s1.7-1.3 1.7-1.3l.5 2 1.5 1 .2 1.9s.5-.3-1.3.2-.7 1.3-.7 1.3l-4 .2-.5-1.7-1.4-1.9z"/><path id="path149_9_" class="st0" d="M306.1 106.3c1 0-.3 3.9 2.3 3.5 2.7-.3.2 1.2 2.2 1.3 2 .2 1.5-1.5 2.2-2.7s.3-1.9-.8-2.2c-1.2-.3-1.2-.3-1.5-1.7-.3-1.3-1.7-1.7-1.7-1.7l-.5-2-2.2 1.3-2.2 2.9c0 2.4 1.2 1.3 2.2 1.3z"/><path id="rect153_9_" class="st0" d="m310.5 120.6.5-1 .9.4-.5 1.1-.9-.5z"/><path id="rect155_9_" class="st0" d="M308.8 119h1v1.2h-1V119z"/><path id="rect157_9_" class="st0" d="m309.6 96.5.2 1.5-1 .1-.2-1.5 1-.1z"/><path id="rect159_9_" class="st0" d="M306.8 112.2h1v.8h-1v-.8z"/><path id="rect161_9_" class="st0" d="m304.1 112.2-.1-1 1.7-.1.1 1-1.7.1z"/><path id="rect163_9_" class="st0" d="m290.4 128.5-.9-.4.5-1.2.9.4-.5 1.2z"/><path id="rect165_9_" class="st0" d="m285.2 125.4-.1-1 1.7-.2.1 1-1.7.2z"/><path id="polygon169_9_" class="st0" d="m256.4 125.1-3.7.1.1 1 3.6-.1v-1z"/><path id="rect171_9_" class="st0" d="m250.3 126.5-.4-1.5 1-.2.3 1.5-.9.2z"/><path id="rect173_9_" class="st0" d="m249.6 127.6-.3-1 .5-.1.3.9-.5.2z"/><path id="path175_9_" class="st0" d="m257.9 124.7-.2 1.2 1.8.2s.8.7.8 1.2 1.2 1 1.8 1c.7 0 2.5-1.4 2.5-1.4s.8-2.4.2-2.2c-.7.2-2 1.2-2.2.2s-2.2-.5-2.2-.5l-2.5.3z"/><path id="path177_9_" class="st0" d="M266.2 122.9c0 .5-.3 1.2.7 1.4 1 .2 2.8-.7 3 .3s.2 1.7 1.5 2.2 2.2.7 3.2.7 3.2-.3 3.2-.3 2.4.4 2.8.8c1.8 1.9 3 2.4 3.5 1.5.5-.8-.2-2.7-.3-3.4-.2-.7-2.5-3.9-3.3-3.2-.8.7-1 0-2.5.5s-4.7.2-4.8-.5c-.2-.7-2.5-1-2.5-1.7s-1.7-1.5-1.5-.5-1.2 1.5-1.5 1.2c-.5-.4-1.5 1-1.5 1z"/><path id="path179_9_" class="st0" d="m304.4 101.3 1.2-3.7c-1.7-.3-1.3-2.2-1.3-2.2-.2-1.5-2.5-3.2-3.3-2.7s-.5-3.5-.5-3.5 1.5-1 2.2-.5-5.7-8.4-7-7.6-4.3-.8-4.2-2.4c.2-1.5-6-6.6-6-6.6s-2-1.3-2.3-.3-1 1.7 0 2.2.8-.8 2 .3c1.2 1.2 3.3 2.7 2.5 3.7s-1.8 1.4-1.8 1.4l1.2 1.4h1.8l.3 2.9s2 1 2.5 2.2.5 1.9 0 2.5c-.5.7-1.5 1.9-1.3 3 .2 1.2 1.5 1.7 1.5 1.7l1.3.2 1 .5V96c1.3-.3 3.5 1.5 3.3 2.7s.3.5 2 1.7 1.2 1.4 2.3 2.2c1.1.7 2.1.2 2.6-1.3z"/><path id="path181_9_" class="st0" d="M277 78.3c-.2-.7-.5-3 .5-2.9 1 .2.3 0 1.5.5s1.3-.8 1.3-.8h1.8l2.3 1.9-.3 1.5-1.7.2c-.8-1.3-2.5-.8-2.2.3.3 1.2-.8 3.4-1.5 3.5-.7.2-2.8.2-2.7-.8.3-1 1-3.4 1-3.4z"/><path id="path183_9_" class="st0" d="M275.7 73.8v-1.3s-.2-1.3-1-1.3-2.3-1-2-1.7-2.8-1.4-2.8-1.4-2.8-2.7-1.8-2.4c1 .3.5-1.2.5-1.2s-2 .3-2.5.2c-.5-.2-.3-1.7-.3-1.7s-2-.5-2 0 .7.5 1 1.5c.3 1 .2 2.7 1.7 3s1.8.7 2 1.4c.2.7 2 .8 2 .8l1.3.7 3.9 3.4z"/><path id="polygon185_9_" class="st0" d="m257.7 56.6-.5-1.4-1.3-.3v1.5l1.8.2z"/><path id="path187_9_" class="st0" d="M257.2 49.5c-1.7-1.3 2.3 1 2.3 1 1.3 0 2.2 1 2.2 1.5s1.8.3 1.8.3l.2-1.2-1.3-1.7-1.2-.8s-1.8-.2-1.8-.7c0-.4-1.5 2.1-2.2 1.6z"/><path id="path189_9_" class="st0" d="M287.8 50.5c-.5 1.5-.7 3.5-1.5 3.5s-.5 2.2-.5 2.2 2.2 0 2.8.2c.7.2.7 1.9.7 1.9 2.5-.2 3.5 3.2 3.2 4.1-.3.8 1 .8 1 .8s0 2.7-.3 3.4 2.2 1.2 2.8 2.2c.7 1-.3 4.4-.8 4.6s1.3.7 1.2 1.5c-.2.8.5 0 .7 1.4.2 1.3.5 4.2.5 4.2l2.3.2c.3-2.2 4.6-2.3 5.3-2 2.8 1 5 5.4 5 6.4s-1.8 1.2-1.8 1.2l.3 4.9c2.8.8 5.2 4.9 4.8 5.6-.3.7 2 .5 2 .5.3-3 3.2-2 3.3-1 .2 1 .7 3.2.7 3.2l.8 1.5 1.2 1.2 1.8-.2.5 1 2.2.3s1.8 2 2 2.5 2.7.3 3.3.5c.7.2 1.7.7 1.8 1.5.2.8 1.2 2.2 1.2 2.2s2 .5 2.2 1.2 1 2.2 1 2.2l1.7 1.4.2 1.5 1.8.2.5 2 3-.2 1.7-1.2c2.2-1.2 3.7-2.7 3.8-3.4.2-.7.5-3.2 2.2-2.7s.5-3.7.5-3.7-2.3-1.7-2.2-2.5c.2-.8-2.3-2.5-2.2-3.2.2-.7-2.2-2-2-2.7s-1.2-2.5-1.2-2.5l-2.5-2.4-.3-1.5-2-.2-4-4.9.2-1.4-1.2-.2v-1.9l-1.2-.7-1.8-.2-3.7-4-.3-1.9h-1.8l.3-3.5c1.2-1.5.5-4.4.5-4.4s-2.3 1.2-3.5.7.5-1.7.5-1.7v-1.3l-1-1s-2.8.3-3-.2-.7-2.7-.7-2.7l-.2-2.9-1.2-.5-.2-1-1.8.2v-2l-1-.3-1-.5-.2-2-3.7-.2-1.2-1.7-1.3-2-4.2-.3-1-1-1.7-.3-1.2-.5-.5.8-3.2.2-.2 1c-1.4.7-8 0-8.2.5z"/><path id="path191_9_" class="st0" d="M305.3 46.1c-.3-1.3 3.3-2.5 4.2-1.5.8 1 3.2 1.2 3.5 6.2.1 1.8-3-1.9-3-1.9l-2.5-.8c-1.4-.3-2.1-1.1-2.2-2z"/><path id="rect193_9_" class="st0" d="m256.5 48.2-.9-.4.7-1.6.9.5-.7 1.5z"/><path id="path195_9_" class="st0" d="m247.9 31.6-2.2-2.2v-1.9l-.7-.7-.7-2.4-2.2-.7-2.2.8-2.3 1.5-2.5.3-1.3 1.5 5.3.5 1 1.7 3.8.3 2.5 2.5c2.3 1 2.8 0 1.5-1.2z"/><path id="path197_9_" class="st0" d="M247.6 23.3c-.4-1.5-2.5 1.9-.3 2.5 2.2.7 4.3 0 4.3 0l.5-1 8.3.2c.7-.7 1-1.7 1-1.7s2-.7 2.8-.3c.8.3.2-2.4-.7-2-.8.3-2.5.2-2.5.2h-3c-.2-1.2-2.8-.7-3 0-.1.6-1.1.8-1.1.8l-3.8.3c-.4 1-2.3 1.7-2.5 1z"/><path id="path199_9_" class="st0" d="M231.1 51.8c2.6.8 3.5.2 3.7-.5s.3-.8 1.3-1-.2-2.2-1.2-2-2-.3-2.2-1.2c-.2-.8-1.8-3-2-1.3s-1.2 1.7-1 2.9c.3 1.1.8 2.9 1.4 3.1z"/><path id="path201_9_" class="st0" d="M212 53.7c-.1-.6 3.3-.7 3.8-.2s.2 1.4 1.7 1.4.8 1 .7 1.5c-.2.5-1.8.3-2-.2s-2.7-.7-2.7-.7-1.3-1-1.5-1.8z"/><path id="polygon205_9_" class="st0" d="m266.8 19.6.4.4.3-.3 1.7-1.4-.7-.8-1.3 1.1-.8-.9-.7.8 1.1 1.1z"/><path id="polygon207_9_" class="st0" d="m259.4 15.7.2-.2 1.9-1.2-.6-.8-1.5 1-1.1-.7-.5.9 1.3.8.3.2z"/><path id="polygon209_9_" class="st0" d="m253.4 50.1 1.1 1.7.8-.6-1.1-1.8-.2-.2h-.2l-1.7-.2-.1 1 1.4.1z"/><path id="path211_9_" class="st0" d="m199 96.2.2 1.9h2.5c1 0-.8-1.2-.8-1.2s-2 .2-1.9-.7z"/><path id="rect213_9_" class="st0" d="m202.2 96.3.6-.8 1 .8-.6.8-1-.8z"/><path id="rect215_9_" class="st0" d="m171.9 64.7.7-.7 1 1-.7.7-1-1z"/><path id="polygon219_9_" class="st0" d="m218.8 282.8.7.7.8-.8.5-.5-.6-.4-1.7-.8-.4.9 1 .5-.3.4z"/><path id="polygon221_9_" class="st0" d="m205.7 270.6 1.2.8.6-.8-.7-.5.5-.4-.6-.8-1 .9-.5.4.5.4z"/><path id="path223_9_" class="st0" d="M331 237.7c-.2-.9-1.2-1.2-1.3-1.2l-.3 1c.1 0 .2.1.3.2l.2.9c-.1.1-.2.2-.2.3l.7.7c.5-.8.7-1.3.6-1.9z"/><path id="polygon225_9_" class="st0" d="m332.5 234.5-1.6-.1.1-1.5 1.6.2-.1 1.4z"/><path id="path227_9_" class="st0" d="M371 221.4c.7-.4 1.6-1.3 1.5.6-.1 1.9-.9 1.3-1.5 1.9-.6.6-1-1.9 0-2.5z"/><path id="path231_9_" class="st0" d="M379.5 214.2v-.2c0-.3-.1-.7-.3-1.1l-.9.5c.1.2.1.5.2.7 0 .3.1.6.3.8.2.1.4.2.7.1l-.2-1c0 .1.1.1.2.2z"/><path id="path233_9_" class="st0" d="M377.3 215c.3 1 .6 2 .6 2.1l.9-.4s-.4-1-.6-2l-.9.3z"/><path id="path235_9_" class="st0" d="m373.6 219-1-.1c-.1.8.1 1.8.9 1.9l.2-1s-.1-.4-.1-.8z"/><path id="path237_9_" class="st0" d="M369.3 198.9c-.1-.3-.2-.6-.5-.7-.7-.3-2 .2-2.6.6l.6.8c.6-.4 1.5-.6 1.6-.5v-.1l.9-.1z"/><path id="path241_9_" class="st0" d="M323.2 145c-.7.7-2.2 1-2.2 1l-.5 1.9-.8.7s.2.5 0 1.7-1.7 1.9-1.7 1.9l-.7.8s-4 .2-4.5 0c-1.5-.7-.5-2.7.5-2.5s-.2-2.9-.2-2.9l1.3-.2s.2-3 .7-3-.2-1-.8-1.5c-.7-.5-1.5-2.2-2.2-2s-3.3 0-3.3 0l-.5 1-1.8.3s.2 1.3-.2 1.7c-1 1.2-4.8 3.7-3.2-.5l.5-1v-1.5l-3-.2s-1.5-.5-1.5-1.2-.2-1.5-.2-1.5l-3.5-3.9-4.2-.5-.3-.8-2.5-.3c-3-1.5-5.7-.2-5.2 2.4.5 2.5 1.3 3.5-.3 3.5-1.7 0-2-1.3-2-1.3s-1.3-.5-1.3.2-.5 2 0 2.7-.7 1.7-1.2 1.2-1.8-2-1.5-2.5-2.3-3.7.3-4.2c2.7-.5-.2-2 .8-2.4l1.3-.7h1.3l.8-.7-2.2-.3-1.3-.2-2.5-.2c-2.5 1.7-3 3.7-3 3.7-1.3 2.5-4.5-1-3.3-2.4s-3.7-.2-4.5.5-3.3.3-3.3.3c-.5 1.5-2.8-.2-2.2-1.2.7-1 .7-1.7.7-1.7l-.8-.2-1 1.9c-2.3 0-3 1.3-2.5 2.2.5.8-.7-.2-1 1s.2 1.2 1.2 1.7-.5.5.2 1.3 2.7 0 1.5 1.2-3.5.7-3.5.7c-.2 1.5-3.3 1.2-3.7.7-.3-.5-2.8-3.5-2.8-3.5l-3.2-.2c-.3-2.4 1.5-1.2 2.2-3 .7-1.9 1-4.9 1-4.9s-2.7-.2-2.8.7c-.2.8-1.8 1.4-1.8 1.4s-1.3.5-.8 1.2-1 1-1 1 .3 1.1-.2 1.5c-1.3 1.4-4.7.2-5.2-.3l-2-.8-2-1.3-2.3 1-.7.7h-2.5l-.2 2 4.5.5.3 4.2-1.8-.6h-1.2l-.5-1-1-.2v3.7l1 .8.8.8 1.7.2.3 2 4.2.2.5.8 2.5.2 4.8 4.9-.3 1.5-.8.5c.3 1.2-2.2.5-2.2.5v1l1.2.2 1.2.7 1.7-2.9c1.8-1.2 2.7.5 2.8 1.5.2 1-.8.8-.8.8v2.4l1 .3c1.7 2-.7 3.2-.7 3.2l-.5 1.7c-.5 1.5-2.3 1.2-2.3 1.2l-.7 1-2 .5 3.9.5c.4-1.4 1.4-1.7 1.9-1s.5 1.9.5 1.9l1 .2-.2 1.9 1 .3v5.4l1.2 1.3c2-.8 2 .5 1 1.2s-.3 3.7-.3 3.7l-.8.8v1.4l-1 .7v1.9c-1.7-.8-3.7-.5-4.2 0-1.5-1-4.7-.7-4.7.2 1 1.3-1.2 1.7-1.2 1.7l-1.2 1.3c.8 1.7-.8 1.9-.8 1.9v3.2l-2 1.9.2 4.4c0 1.2 2.5 1.3 3 .7.5-.7 2.5 1.4 2.5 1.4h1.5l.3-3-1-.5v-4.9l1.7-1.9c2-.7 1.3 4.4 1.3 4.9.2 1.9 1 1.7 1.8 1.3 1.7-.7.3 1.9-1 1.7s-.5 1.7-.5 1.7l.8.3-1.5 1.2-1.3 1.5-1.7-.5-2-.2-.7-1.2-1.2-.2-.2 2.4-.8 1-2 2c2.7 0-.3 1.9-1 1.9 1.5.5-.2 2-4 .8v1.2l-1.3.2 1.2 1.3 1.3.2-.5 2.9c0 2.2-5.5.7-6 .2l-.2 3-1 .2.2 2-.2 2.9 1.8-.3v1.2l4.5.2 6.5-6.9 3.8-.8c.3-1.7 2 .3 2 .3 1.7-.2 2 1 2 1l2.2.3c1.8.5.7.7.8 1.4.2 1 1 .7 1 .7l.3-2.2 1 .2-1-1.2-1.8-.8-2-.8c-1.3-1.9.3-1.5 1.7-1.3h2.2s2.5 3.4 2.5 4.2 1.2 1 1.2 1l1.5-.2.5 1.2h1.5l.5 1h3l.2-1.5-2.8-.5-.2-1.7-2-.5c-.7-2.9.5-3.7 1.3-2.4l1 .2-.3-2.5 1.2-.3-.3-3.5-1-.3v-1.2l4.2.2c-.3-2.2.2-3.2.2-3.2h1.2l.2.8 5.1.5 3.6-4.1c-.2-.3.4-.5 0-.9-.5-.5-1.2 0-2-.5s0-3.4-.2-4c-.2-.7 2.8-1.7 2.3-.2s0 2.2 0 2.2c2.2-2 4 .2 3.8.7s1.2 1 2 .5 1.8 1.5 1.5 2.5-3.3.8-3.5-.2-.7-.7-1-.2-1.8.8-2.7.3c-.2-.1-.2-.2-.3-.3l-3.6 4.1h.2c2 1.2 1 2.7.3 3s-1.8.3-1.8.3l-.3.7-4.3.3-.3 1.7c-2.2-.3-3 2-2.5 3.2.5 1.2 0 2.2 0 2.2l1.8.8 2.3-.7c.3-1.7 1.8-2 3.2-3 1.3-1 3.5 1.9 2.8 3.2s-.7 1.9-.7 1.9l.2 1.5-1.7.7-1.3.7-.2.8h-4.5l-.8.8-2.2.2-.7 1-1.5.2s-2.5 1.2-1.5 2.5c1 1.4-4.2 1.2-5.3-.7-.3 1.7-2.2.2-2.2.2l-1.8-.5-.2-2.5c-.3-1.7-3.5-1.7-3.3-.5s-6 .5-6 .5l-2 1-1.8 1.1-.2.8-3 .3-1.3.7-.5-1h-1.3l-1.3 1.9c-3.5.2-6.8 2.2-6.5 3s-1.3 1.7-1.3 1.7l-1.5.5-1 1.5-2 .7-.3 3.5-1 .7v1.5l-1.2.3v.8l-1.7.2 1 2.5 1.3.7c2.3.3 1.3 3.2 1.3 3.2l1.3.2.7 1.9 1.3 2.7c.5 2 2 1.5 2.7 1.4.7-.2 1.3 2 1.3 2l6.6.2s-.3.7.8 1c1.2.3 8.8.7 9.1.2-.3-1.5 4.2-1.9 6-.5 1.8 1.3 4.3.5 4.3.5l2.5 3 1.7 3.7 2.8.8 2 .5.7 2.9 1.5.2.5 1.9c1.8 1.3-.5 4.2-.5 4.2v3.7l1.3.7-.2 1.4 2.2 2.2 2.5.2 6.3 6.7 5 1.5.8 2.7 1.3-.2 1-.8 4-.2 2-1.9 2.2-.3 18.5-15.7-1.7-1v-3.7c3-2.2 3.2-6.1.3-6.4-2.1-.3-1.2-2.5.8-2.9l1.2-.5v-1.5l3.8-3.5V256l-8.3-6.9c-3.7-1.3 0-9.4 2.5-9.3 2.5.2-.2-12.5-.2-12.5l-1.3-.7.3-4.1h-1.8l-3 3.9-.8 2.7c-.3 3.5-10.6 2.9-11.1 2.4s-4-2-4-2-2.7-2.2-3.2-1.5-2.8-.8-2.8-.3-2.2-1.2-2.2-1.2l-3.3-1.2 2.5-.5-.5-2 4.3 2.2c.5.7 2.7.5 2.7.5l.7.8s1.3-.2 2.2.8c.8 1 5.2.2 5.2.2l1.2 1 1.8.7 5.2.2.2-3.2 1-1-.2-2 1.2-1v-1.7l1-.3.2-3.7.8-.2V208l-2.5-2.4c-.2.8-2.8.8-2.8.8s-.7 1.2-1.2 1.2.7 1.5.3 2.5c-.3 1-1.7 1-1.7 1l-2.5.7-.7.8h-2.7l-.3-2.2 3-.8 1.7-.8.8-1.7c.2-1.7 2.2-1.5 2.2-1.5s3.8-3.2 4-4.7 1.5-5.7 3.8-5.7h4.3c1.7-.7 1.2-2.9 1.2-2.9l2.2-.3.3 1.2s3 .3 3.3-.2 1-1.7 1.8-1.2 3.5-1.2 3.5-1.2c.2-1.2 4.3-.7 4.3-.7l.5-1.5s-2.8-3.9-3.3-3.9-3.2-2.4-3.5-1.5c-2.7-.7-2.5-4.4-2.5-4.4l-1-2.4c0-1.4-2.5-4.2-3-3.9-2.5-1.9-.7-4 0-4.2s2.3-2.5 2.3-2.5l.8-2.4 2.8-.8.3-2.2-1.5-.2s1.7-3 2.5-3 6.3 0 6.8-.3 1.5-3 1.5-3.5 1.3-.7 1.8-.8c.5-.2 1.7-1.5 2-2.2.9-1.7-.2-5.9-.9-5.2z"/><path id="path245_9_" class="st0" d="M231.1 205.8c.2-.2.5.8 1 .6.5-.1.7.9.2.9s-.5.6-.5.9c0 .3 0 .9-.4 1.3s-.7.1-1.2-.1c-.5-.3-.7-.3-1.4-.3-.6 0-.1 1-.1 1s-2.6-.1-2.1-.5 1-.5.6-.8 0-.5 0-1 1.2-.3.9-.6c-.4-.4 0-1.8.6-1l.4-.9c-.4-.4-.1-.5-.9-.8-.7-.3-.1-1.8-.1-1.8l.1-1c.2-1.3 2.7-1.4 2.9-.3.1 1.1 0 1.9 0 1.9l.7.3s-.1.8-.7.8 0 .4-.4.8l.4.6z"/><path id="path247_9_" class="st0" d="M222.9 207.1c.4-.8 1.2-4 2.2-3s1.6 0 1.6 0 .5.5.2 1.5c-.2 1-.5 2-1.1 2.2-.6.1-1.1.5-1.9.6-.6.1-1-1.3-1-1.3z"/></g></g></svg>