<svg xmlns="http://www.w3.org/2000/svg" viewBox="0 0 180.8 217" style="enable-background:new 0 0 180.8 217" xml:space="preserve"><path d="M359.5 534.1c-1.9-.7-6.3-2.7-9.6-4.4l-6.1-3.1-7.2 3.7c-6.6 3.4-7.9 3.7-15.4 3.7-6.4 0-9-.5-12.1-2.2l-4-2.2 3-1.2c4.4-1.7 14.1-3.7 21.5-4.6l6.5-.7-5-2.5c-2.7-1.4-6-3.5-7.3-4.6-2.6-2.4-7.6-11.5-6.8-12.4.8-.8 10.7 2.7 14.1 5 1.7 1.1 5.1 4.1 7.7 6.5l4.7 4.5 5.9-6c5-5.1 6.9-6.3 12.7-8.1 3.8-1.2 7.1-1.9 7.3-1.7 1.1 1.1-1 7.3-3.3 9.8-1.4 1.5-5.3 4.1-8.6 5.8s-5.9 3.2-5.7 3.4c.2.2 4.9.8 10.4 1.4 5.5.6 12.2 1.8 14.9 2.7l4.9 1.7-2.4 1.9c-2.7 2.1-11.1 4.9-14.3 4.8-1.4.1-3.9-.5-5.8-1.2zm-67.8-9.6c-4.5-1.8-11.4-7.2-10.4-8.1.5-.5 4.1-1.2 8-1.5 6-.5 7.9-.2 12.3 1.6 7.8 3.3 8.5 1.4 2.1-5.4-4.8-5.1-5.2-5.8-5.2-10.5 0-6.2 1.1-6.4 6.8-1.5 2.8 2.4 5.4 6.2 7.8 11.2 2 4.2 4.5 8.9 5.5 10.3l1.9 2.7h-6.3c-3.5 0-7.6.5-9.1 1.1-3.3 1.3-10.3 1.3-13.4.1zm88.8-1.5c-2.5-.7-6.9-1.3-9.9-1.4-4.8-.1-5.2-.2-4-1.7.8-.9 3.4-5.7 5.9-10.7 3.4-6.9 5.6-9.9 8.8-12.4 2.4-1.8 4.7-3.3 5.2-3.3 1.4 0 2.2 7.4 1.1 10.1-.5 1.4-2.8 4.1-5.1 6.1-3.8 3.3-5.4 6.8-3 6.8.6 0 3.3-1 6-2.1 4-1.7 6.1-2 10.8-1.5 3.2.3 6.8 1 8.1 1.5 2.3.8 2.2 1-2.3 4.1-5.2 3.6-11.8 6.2-15.1 6-1-.2-4-.8-6.5-1.5zm-92-13.7c-4.1-1-9.1-2-11.1-2.3-4.4-.6-10.6-5.8-13.8-11.5l-2.4-4.2 4.4.7c8.9 1.4 10.1 1.8 15.1 6.2 6.5 5.7 8.2 4.7 5-2.9-1.2-2.9-2.2-6.1-2.2-7.1 0-2.5 4.2-9.7 5.4-9.3 2.4.8 5.6 9.1 5.6 14.6 0 3.1.4 8.3 1 11.5.5 3.3.9 6 .7 6-.1 0-3.6-.7-7.7-1.7zm101.6-4.9c.8-2.9 1.4-8.2 1.4-11.8 0-6.7 3-14.9 5.7-15.8 1.8-.5 5.3 5.8 5.3 9.6 0 1.8-.9 5.1-2 7.2-1.1 2.2-2 4.4-2 5 0 2 3.7 1 6.1-1.6 1.3-1.4 4.2-3.4 6.4-4.4 4.2-1.9 14.5-3.7 14.5-2.5 0 1.6-6.3 9.7-9.5 12.1-2.6 2-5.3 2.9-10.7 3.5-6.7.8-10.8 1.7-14.9 3.4-1.5.5-1.5 0-.3-4.7zm-114.5-14.8c-1.9-1.5-6.4-4.2-10-6.1-5.1-2.7-7.1-4.5-8.9-7.6-2.4-4.4-4.2-13.4-2.6-13.4.5 0 3.4 1.5 6.4 3.2 3.9 2.3 6 4.4 7.5 7.4 4.5 9.2 6.5 9.2 6.5-.2 0-6 .3-6.7 3.6-10.4 2-2.2 4.2-4 5-4 1.7 0 2.8 6 2.1 10.9-.3 2.1-1.6 6-2.8 8.6-1.2 2.7-2.4 7-2.8 9.5l-.6 4.7-3.4-2.6zm131.9-3.1c0-1.7-1.4-6.5-3-10.7-3-7.6-4-16.3-2.1-19.2.7-1.1 1.4-1 4 .8 5 3.5 6.1 5.9 6.1 12.8 0 9.1 2 9.1 6.5 0 1.5-3.1 3.4-4.8 8.3-7.5 3.5-1.9 6.5-3.2 6.8-2.9 1.2 1.2-1.9 11.9-4.3 14.8-1.4 1.7-5.6 4.6-9.3 6.4s-8.1 4.6-9.9 6l-3.2 2.7v-3.2h.1zm-138.9-168h35l40 90 40-90h30.8l-70.8 162-75-162zm-1.8 145.1c-1.2-2.2-4-6-6.2-8.5s-4.3-5.8-4.6-7.1c-.7-3 .1-9.8 1.7-13.9l1.1-2.9 2.5 3c4.9 5.9 5.9 8 6.4 14 .7 7.9 2.6 8 6.3.2 2.3-4.8 3.5-6.1 7-7.7 6.5-2.9 8-2.7 7.2 1.3-1.1 5.1-5.1 11.3-9.9 15.4-2.4 2-5.2 5.2-6.2 7-1 1.8-2 3.4-2.3 3.3-.6-.2-1.8-2-3-4.1zm149.2-1.1c-.4-1.1-3.9-5.3-7.9-9.2-5-5-7.8-8.7-9.1-12-1-2.6-1.5-5.1-1.1-5.4 1-1 8.9 1.7 11.2 3.8 1.1 1.1 3.1 4.2 4.4 6.9 3.2 6.8 5.3 6.3 6-1.2.5-5.5 3.5-11.3 8-15.4 1.8-1.6 1.9-1.5 3.4 3.6 2.7 9.2 1.9 12.8-4.9 20-2.4 2.6-5.1 6.1-6 7.8-1.8 3.6-3.1 4-4 1.1zm-144.8-21.7c-.4-.4-.7-1.9-.7-3.5s-1-5.3-2.1-8.5c-2.8-7.4-2.1-12.1 2.7-19.1l3.8-5.5 1.4 2.7c2.3 4.4 2.7 12.6.9 16.3-3.7 7.1-.2 8.5 5.8 2.3 2.1-2.2 5.1-4.4 6.6-5.1 3.4-1.4 10.5-.9 10.5.7 0 2.6-7.3 8.8-14 11.9-3.9 1.8-8.5 4.4-10.4 5.8-4.1 3.1-3.7 2.9-4.5 2zm141.1-4.3c-1.4-1.1-6.3-3.8-11-6-7.9-3.8-15.7-10.2-15.7-13 0-1.5 9.7-1.2 12.8.4 1.5.8 4.3 3 6.1 5 3.3 3.4 7.1 4.8 7.1 2.5 0-.6-1-3.2-2.1-5.8-2.2-4.9-2.1-7.3 1.1-15.6 1.3-3.3 2.3-2.8 6.5 3.3 4.4 6.3 4.8 10.3 2 17.8-1.3 3.6-2.4 7.7-2.4 9.3-.2 3.9-1.4 4.5-4.4 2.1z" style="fill:#fff" transform="translate(-253.566 -318.457)"/></svg>