<svg xmlns="http://www.w3.org/2000/svg" version="1.1" id="Capa_1" x="0" y="0" style="enable-background:new 0 0 512 512" xml:space="preserve" viewBox="82.23 34 353.79 353.86"><style>.st0{fill:#fff}.st1{fill:#fa0029}</style><g id="_x23_f5f5f5ff"><path class="st0" d="M226.2 62.6c26.6-7.3 53-15.1 79.6-22.2 27 6.8 52.3 21.2 72.7 40.1-71.8 20-143.6 40.3-215.4 60.2-17.5-8.7-35-17.4-52.6-26 5.9-9 12.2-18.1 20.2-25.3 31.8-9.1 63.7-17.8 95.5-26.8zM240.1 178.6c58.6-16.6 117.3-32.9 176-49.3 9.1 17.3 15.2 36.3 18 55.7-59.8 16.5-119.5 33.5-179.3 50 7.8-12.4 15.6-24.9 23.5-37.2-12.6-6.7-25.5-12.7-38.2-19.2zM206.8 175.8c6.5-1.9 13-3.8 19.5-5.4-5.3 30.7-11.1 61.3-16.4 92-11.9-13.9-23.1-28.5-34.9-42.4-2.2 18.1-4.8 36.2-7.5 54.3-20.4-23.4-42-46-61.8-69.9 6.4-1.9 12.8-3.7 19.3-5.4 10.7 12.4 21.2 24.9 31.9 37.3 2.2-18.6 4.7-37.2 7.1-55.9 11.9 14.5 23.6 29.1 35.4 43.6 2.7-16 5-32.1 7.4-48.2zM210.7 306.9c74-20.6 148-41.5 222-62-4.7 24.7-14.7 48.8-29.8 68.9-37.6 10.9-75.4 21.2-113 31.8-32.6 9.2-65.3 18.3-97.9 27.5-6.9 1.1-13.2-4.9-19.3-7.6 13-19 23.7-41 38-58.6z"/></g><g id="_x23_fc224bff"><path class="st1" d="M237.5 35.3c22.8-2.7 46.2-1.3 68.3 5.1-58.4 16.1-116.7 32.6-175.1 49 27.4-30.1 66.5-49.2 106.8-54.1zM163.1 140.7c71.9-19.9 143.6-40.2 215.4-60.2 15.3 13.9 28 30.6 37.6 48.8-58.7 16.4-117.4 32.7-176 49.3 12.7 6.5 25.6 12.5 38.3 19.1-7.9 12.4-15.7 24.8-23.5 37.2 59.8-16.5 119.5-33.5 179.3-50 2.8 19.9 2.4 40.2-1.4 59.9-74 20.6-148 41.5-222 62-14.3 17.6-25 39.6-38 58.6C85 319 54.5 196.8 110.5 114.7c17.6 8.6 35.1 17.3 52.6 26m43.7 35.1c-2.4 16.1-4.7 32.2-7.4 48.3-11.9-14.5-23.6-29.1-35.4-43.6-2.4 18.6-4.9 37.2-7.1 55.9-10.7-12.4-21.2-24.9-31.9-37.3-6.5 1.6-12.9 3.5-19.3 5.4 19.8 23.9 41.3 46.5 61.8 69.9 2.7-18.1 5.2-36.2 7.5-54.3 11.8 14 23 28.6 34.9 42.4 5.3-30.7 11.1-61.3 16.4-92-6.5 1.5-13 3.4-19.5 5.3zM289.9 345.6c37.7-10.7 75.5-20.9 113-31.9-46.2 67.4-140.5 92.9-214.8 59.6 34.2-7.3 67.9-18.9 101.8-27.7z"/></g></svg>